<?xml version="1.0" standalone="no"?><!DOCTYPE svg PUBLIC "-//W3C//DTD SVG 1.1//EN" "http://www.w3.org/Graphics/SVG/1.1/DTD/svg11.dtd"><svg t="1563372669613" class="icon" viewBox="0 0 1024 1024" version="1.1" xmlns="http://www.w3.org/2000/svg" p-id="1286" xmlns:xlink="http://www.w3.org/1999/xlink" width="200" height="200"><defs><style type="text/css"></style></defs><path d="M1021.707569 507.946688c0 68.831868-6.189916 137.230442-30.949581 197.025032-25.688152 61.899162-73.041011 112.161281-119.836777 158.895148a496.926471 496.926471 0 0 1-164.342274 106.466559c-59.79459 24.759665-122.684139 53.666573-191.516007 53.666573s-134.444979-22.1599-194.301469-46.981464c-61.899162-25.688152-114.142054-67.098691-160.93782-113.832558a500.392824 500.392824 0 0 1-111.418492-162.052006C23.707384 641.277483 2.290274 576.778556 2.290274 507.946688a515.620018 515.620018 0 0 1 38.872673-196.158444c25.750051-61.899162 70.007952-114.018256 116.74182-160.93782s100.338541-86.968322 162.361501-112.656475A507.077933 507.077933 0 0 1 514.815333 0.002166c68.831868 0 132.526105 18.569749 192.320696 43.63891 61.899162 25.688152 124.664912 53.91417 171.398779 100.648037s72.174423 110.490004 97.862575 172.451064c24.821564 59.856489 45.310186 122.746038 45.310186 191.206511z" fill="#FFD635" p-id="1287"></path><path d="M624.191152 957.891695c-64.870322 0-126.831383-20.921917-183.221519-44.3198-58.494708-24.264471-107.704542-63.260943-151.776744-107.395045a471.91921 471.91921 0 0 1-104.795281-152.829031c-23.397883-56.390136-43.329413-117.237012-43.329413-182.169233a486.775008 486.775008 0 0 1 36.396707-185.016595c24.264471-58.494708 66.232103-107.518844 110.118609-151.591047S382.227329 52.430757 440.660138 28.166285A469.133747 469.133747 0 0 1 534.127872 0.559259C527.752258 0.002166 521.314745 0.002166 514.815333 0.002166a507.077933 507.077933 0 0 0-194.549065 38.191783c-61.899162 25.750051-115.627634 66.108305-162.361501 112.842172s-90.991768 99.038659-116.74182 160.937821A515.620018 515.620018 0 0 0 2.290274 507.946688c0 68.831868 21.41711 133.330795 46.238674 193.187284a499.773832 499.773832 0 0 0 111.418491 162.052006c46.733867 46.733867 99.038659 88.144406 160.937821 113.832558 59.856489 24.759665 125.5315 46.981464 194.301468 46.981464s131.721416-28.845009 191.516007-53.666573a517.848388 517.848388 0 0 0 134.568778-79.540423c-11.760841 5.818521-23.769278 11.389446-36.087212 16.527076-56.761531 23.397883-115.813332 50.571615-180.993149 50.571615z" fill="#F7B523" p-id="1288"></path><path d="M433.294137 132.156877s3.652051-2.847361 10.275261-7.304101a240.168748 240.168748 0 0 1 28.659312-16.650875 235.712008 235.712008 0 0 1 44.3198-16.836572A217.513655 217.513655 0 0 1 571.762562 83.689833h14.05111c4.39484 0 9.408673 0.309496 13.927311 0.618992s9.099177 0.990387 13.555917 1.609378 8.789681 1.547479 13.060723 2.475967a168.613317 168.613317 0 0 1 24.078774 7.489798 140.139702 140.139702 0 0 1 20.488623 9.903866 123.798324 123.798324 0 0 1 27.483227 21.293312 74.278994 74.278994 0 0 1 6.623211 7.737395 27.607026 27.607026 0 0 1 2.16647 3.033059s-5.19953 0.928487-13.617815 1.547479c-4.147244 0.309496-9.099177 0.433294-14.670102 0.680891s-11.637042 0-18.136454 0-13.432118-0.618992-20.67432-1.114185-14.732001-1.361782-22.469396-2.352168l-11.698941-1.609379-12.008438-1.918874c-4.085345-0.680891-7.737395-1.423681-12.379832-2.042672l-6.189916-1.237983a55.214052 55.214052 0 0 0-5.818522-0.74279 438.988855 438.988855 0 0 0-91.54886 0l-32.125665 2.723563-9.222975 0.680891z" fill="#FFEF57" p-id="1289"></path><path d="M468.824256 594.23412a132.340408 132.340408 0 0 1-40.482052 93.839129 130.73103 130.73103 0 0 1-93.839129 38.934573c-37.139497 0-73.8457-10.33716-98.110171-34.601632s-32.992253-61.403968-32.992254-98.17207 8.665883-74.278994 32.992254-98.419668a140.696795 140.696795 0 0 1 98.110171-38.686976c37.139497 0 67.470086 20.798118 91.734558 45.06259S468.824256 557.094623 468.824256 594.23412zM772.192048 550.285715c0 30.949581 16.093782 58.123313 36.520506 78.550036s47.414758 38.37748 78.488137 38.37748 57.071027-19.064942 77.49775-39.491665a107.642642 107.642642 0 0 0 33.549346-77.435851c0-30.949581-9.470572-60.784977-29.835396-81.149801a120.084374 120.084374 0 0 0-161.804409 0.557092 115.751433 115.751433 0 0 0-34.415934 80.592709z" fill="#FFA926" p-id="1290"></path><path d="M853.589446 658.856845l-3.156857 5.509025a175.917418 175.917418 0 0 1-9.841967 15.784286c-2.475966 3.404454-5.13763 7.427899-8.232589 11.327547l-10.089563 12.379832-12.379832 13.679715c-4.642437 4.518639-9.59437 9.284874-14.917698 14.05111a279.103321 279.103321 0 0 1-37.139497 27.668925c-6.870807 4.518639-14.360606 8.418286-21.974203 12.379832-3.837748 2.104572-7.861194 3.837748-11.884639 5.694723s-8.10879 3.71395-12.379832 5.261429l-12.751228 4.828135-13.24642 4.209143a264.618917 264.618917 0 0 1-27.421329 6.747008c-9.346773 1.547479-18.569749 3.156857-28.411715 3.899647-4.766235 0.495193-9.532471 0.990387-14.360606 1.052286l-15.350992 0.495194-13.184521-0.557093c-2.290269 0-4.209143 0-6.747009-0.371395l-7.489798-0.74279c-4.951933-0.557092-10.151463-0.866588-14.7939-1.733176L543.90794 798.501354a231.626663 231.626663 0 0 1-27.297531-6.870807l-12.936925-4.209143-12.751227-4.951933c-4.209143-1.547479-8.232589-3.466353-12.379832-5.323328s-8.046891-3.590151-11.82274-5.694723c-7.551698-4.271042-15.041496-8.170689-21.850404-12.813127a276.19406 276.19406 0 0 1-37.139497-27.730824 474.518974 474.518974 0 0 1-14.732001-14.113009l-12.379832-13.679715-9.965765-12.379832c-3.033059-3.899647-5.509025-7.737395-7.861194-11.07995a166.756342 166.756342 0 0 1-10.027664-16.155681l-3.342555-5.818521a15.846185 15.846185 0 0 1 25.87385-18.012657l0.433294 0.495194 3.837748 4.580538c2.537866 2.97116 6.189916 7.489799 11.018051 12.751227 2.475966 2.661664 5.013832 5.756622 8.10879 8.789681l10.089563 9.780068 12.379833 10.460958c4.45674 3.342555 8.913479 7.180303 13.803513 10.894252a273.346698 273.346698 0 0 0 33.425547 20.612421 306.029456 306.029456 0 0 0 39.924959 17.703161 262.266749 262.266749 0 0 0 44.876893 11.946538l11.760841 1.733176c4.023446 0.618992 7.675496 0.680891 11.513244 1.052286l5.694723 0.495193h30.640085c4.023446 0 8.046891-0.371395 12.008437-0.74279 7.984992-0.495193 15.846185-1.795076 23.707379-2.971159a267.961471 267.961471 0 0 0 44.814993-12.379833 302.872599 302.872599 0 0 0 39.677363-17.888857 257.624311 257.624311 0 0 0 33.054152-21.169514l13.679715-10.894252 11.946538-10.460959 9.965765-9.841966c3.094958-3.033059 5.385227-6.189916 7.799295-8.480186 4.580538-4.828135 8.603983-10.027664 11.141849-13.122622s4.023446-4.890034 4.023445-4.890034a17.579362 17.579362 0 0 1 28.84501 19.93153zM303.243998 426.301694l-0.990386-3.466353c-0.618992-2.414067-1.795076-5.447126-2.661664-10.089564s-2.166471-10.894252-2.723563-17.455563a132.340408 132.340408 0 0 1-0.680891-22.593194 123.798324 123.798324 0 0 1 1.237983-13.060724 106.899852 106.899852 0 0 1 2.537866-13.927311 106.837953 106.837953 0 0 1 10.894252-29.340203 96.500793 96.500793 0 0 1 21.912304-27.668925 80.46891 80.46891 0 0 1 34.230236-17.765059H372.075866l3.71395-0.495194h10.584757a60.53738 60.53738 0 0 1 9.903866 1.114185 55.709246 55.709246 0 0 1 9.222975 2.104572 96.253197 96.253197 0 0 1 31.506673 15.969983 110.180508 110.180508 0 0 1 22.1599 22.098001 132.340408 132.340408 0 0 1 8.170689 11.575144c2.599765 3.775849 4.518639 7.675496 6.561312 11.327546a130.978626 130.978626 0 0 1 8.789681 20.860018c2.290269 6.189916 3.466353 11.946538 4.766235 16.527076s1.48558 8.418286 1.980773 10.894252l0.557093 3.837748a11.946538 11.946538 0 0 1-22.469396 7.118404l-0.990387-2.909261-5.694723-11.76084c-2.042672-3.528252-4.147244-7.984992-7.118403-12.379833a77.435851 77.435851 0 0 0-4.704337-7.427899c-1.856975-2.475966-3.280656-5.323328-5.447126-7.861194s-4.023446-5.447126-6.189916-7.923092c-1.237983-1.237983-2.352168-2.661664-3.466353-4.023446s-2.537866-2.475966-3.775849-3.775849A105.228575 105.228575 0 0 0 412.991212 321.877808a60.846876 60.846876 0 0 0-18.569748-8.17069 20.550522 20.550522 0 0 0-4.642437-0.928487h-7.551698l-3.775849 0.557092H374.861329h1.671277a37.139497 37.139497 0 0 0-16.093782 7.861194 61.899162 61.899162 0 0 0-13.679715 15.227194 109.871012 109.871012 0 0 0-9.656269 19.498236c-0.557092 1.733177-1.299882 3.342555-1.795076 5.075731s-0.928487 3.404454-1.48558 5.075731a101.20513 101.20513 0 0 0-2.537865 9.903866c-0.866588 3.156857-1.052286 6.189916-1.671278 9.408673a78.116742 78.116742 0 0 0-1.176084 8.665882c-0.680891 5.694723-0.804689 10.151463-1.176084 14.113009s0 7.923093 0 10.213362v4.766235a12.008437 12.008437 0 0 1-23.58358 3.218757zM842.695193 421.968752v-3.590151c0-2.352168 0.557092-6.189916 0.80469-10.027664s0.433294-8.542084 0-14.236807c0-2.785462 0-5.756622-0.557093-8.851581s-0.433294-6.189916-1.114185-9.718168-0.928487-6.808908-1.856975-10.275261a85.482742 85.482742 0 0 0-2.971159-10.646656 113.399264 113.399264 0 0 0-9.408673-20.983815 60.784977 60.784977 0 0 0-14.422505-17.331766 44.257901 44.257901 0 0 0-18.569748-9.161076h1.176084H792.185477l-3.775848-0.557092c-1.48558-0.371395-1.609378 0-2.475967 0h-1.980773a21.664707 21.664707 0 0 0-5.013832 0.433294 22.655093 22.655093 0 0 0-5.261429 1.052286 59.980288 59.980288 0 0 0-20.426723 9.656269 112.285079 112.285079 0 0 0-17.269866 15.103395 90.744171 90.744171 0 0 0-7.180303 8.418286c-2.290269 2.723563-4.085345 5.818521-6.189916 8.603984s-3.342555 5.694723-5.013832 8.356387a75.269381 75.269381 0 0 0-4.271043 7.799294 143.23466 143.23466 0 0 0-6.189916 13.30832c-2.847361 7.675496-4.518639 12.070337-4.518639 12.070336a12.379832 12.379832 0 0 1-23.459782-5.13763v-3.961546c0-2.537866 0-6.189916 1.052286-11.141849a149.857871 149.857871 0 0 1 11.637042-38.810775 123.117433 123.117433 0 0 1 14.236807-24.202572 114.575348 114.575348 0 0 1 22.531295-23.521682 95.448507 95.448507 0 0 1 33.116052-17.455563 64.065632 64.065632 0 0 1 9.903866-2.290269l5.13763-0.74279 2.599765-0.371395h14.608202l3.71395 0.495193h3.528252l1.980773 0.371395a87.215919 87.215919 0 0 1 37.139497 19.126841 95.510407 95.510407 0 0 1 22.716993 29.649699 113.894458 113.894458 0 0 1 10.646656 30.949581 122.065147 122.065147 0 0 1 2.785462 27.854622 127.945567 127.945567 0 0 1-1.856975 23.026489 138.282727 138.282727 0 0 1-3.899647 17.579361 99.038659 99.038659 0 0 1-3.590152 9.965766l-1.299882 3.404453-0.433294 1.052286a12.008437 12.008437 0 0 1-15.103396 6.994605 12.379832 12.379832 0 0 1-7.613597-12.256034z" fill="#943436" p-id="1291"></path></svg>