<?xml version="1.0" standalone="no"?><!DOCTYPE svg PUBLIC "-//W3C//DTD SVG 1.1//EN" "http://www.w3.org/Graphics/SVG/1.1/DTD/svg11.dtd"><svg t="1563372809309" class="icon" viewBox="0 0 1024 1024" version="1.1" xmlns="http://www.w3.org/2000/svg" p-id="3789" xmlns:xlink="http://www.w3.org/1999/xlink" width="200" height="200"><defs><style type="text/css"></style></defs><path d="M935.936 230.4a211.712 211.712 0 0 0-143.936-77.12 211.456 211.456 0 0 0-156.224 47.296l-58.496 47.872-24.896 48.384 28.48 72.256-44.8 19.392 39.04 80.576-51.328 43.648 40.768 59.008-36.48 54.464 9.792 51.84-13.184 55.616 5.248 81.792c27.904-14.592 85.824-58.816 154.816-111.424l-0.384-0.448a21.952 21.952 0 0 0 9.536-17.856 22.4 22.4 0 0 0-22.464-22.4 21.952 21.952 0 0 0-12.992 4.608l55.936-42.688 0.576 0.64a22.08 22.08 0 0 0-9.024 17.472 22.4 22.4 0 0 0 22.4 22.464 22.016 22.016 0 0 0 15.424-6.336l0.448 0.576c13.696-10.688 23.488-19.648 37.44-30.656l-0.32-0.384a21.952 21.952 0 0 0 9.216-17.6 22.4 22.4 0 0 0-38.656-15.36l-0.832-0.96 78.336-62.848 0.896 1.088a21.888 21.888 0 0 0-9.856 18.048 22.4 22.4 0 0 0 22.4 22.464c5.76 0 10.816-2.304 14.72-5.888l0.32 0.384c15.872-12.992 32.64-24.832 48.064-37.568a213.504 213.504 0 0 0 30.016-300.352z m-280.896 440.32l-0.064-0.128 0.32-0.256c-0.064 0.192-0.128 0.32-0.256 0.384zM500.352 822.72c-55.808-28.992-231.168-163.968-376.256-284.288a213.632 213.632 0 0 1-30.272-300.352 212.032 212.032 0 0 1 143.872-77.184 211.904 211.904 0 0 1 156.288 47.104l58.56 47.872-33.6 58.368 30.08 62.272-54.08 29.248 59.968 70.72-25.088 60.608 58.624 46.976-24.192 48 28.096 53.248-11.328 52.992 19.328 84.416z" fill="" p-id="3790"></path><path d="M436.672 724.864C362.368 670.912 256 587.84 153.6 502.912a167.552 167.552 0 0 1-24.064-235.52 166.272 166.272 0 0 1 129.792-61.376c38.72 0 75.136 13.056 105.408 37.76l28.16 23.04-26.176 45.504 21.44 44.544-65.28 35.328 78.528 92.672-27.52 66.56 56.448 45.248-18.112 35.968 31.424 59.52-6.976 32.704zM583.872 679.04l-8.064-42.88 43.456-64.832-34.816-50.432 46.72-39.744-33.664-69.376 41.6-17.984-37.248-94.464 10.944-21.184 51.072-41.856a164.608 164.608 0 0 1 122.432-36.992 165.76 165.76 0 0 1 112.704 60.352c28.288 34.432 41.344 77.888 36.992 122.368a166.4 166.4 0 0 1-60.416 112.896c-112.704 93.632-230.016 185.024-304.32 237.76l12.608-53.632z" fill="#FF5F5F" p-id="3791"></path><path d="M229.952 532.16a10.688 10.688 0 0 1-7.232-2.24c-14.976-11.2-27.712-22.784-38.912-32.896a731.52 731.52 0 0 0-18.88-16.576c-56.128-46.592-55.36-97.28-55.36-99.392-3.968-71.36 60.352-112.192 63.104-113.92a11.264 11.264 0 0 1 11.904 19.136c-0.576 0.384-55.744 35.648-52.416 94.4-0.064 2.56-0.064 43.264 47.104 82.368 6.4 5.312 12.8 11.072 19.584 17.216 11.392 10.368 23.296 21.056 37.44 31.744a11.136 11.136 0 0 1-6.336 20.16zM313.6 605.952a11.136 11.136 0 0 1-8-2.944l-44.8-40.512a11.264 11.264 0 1 1 15.104-16.576l44.736 40.384a11.328 11.328 0 1 1-7.04 19.648z" fill="#FFFFFF" p-id="3792"></path><path d="M601.984 815.424l44.032 20.864-44.032 56zM570.56 101.248l40 42.56-73.6 43.392zM519.104 866.624l31.616 44.032-53.952 21.952z" fill="" p-id="3793"></path></svg>