<?xml version="1.0" standalone="no"?>
<!DOCTYPE svg PUBLIC "-//W3C//DTD SVG 1.1//EN" "http://www.w3.org/Graphics/SVG/1.1/DTD/svg11.dtd" >
<svg xmlns="http://www.w3.org/2000/svg" xmlns:xlink="http://www.w3.org/1999/xlink" version="1.1">
<metadata>
Created by FontForge 20170924 at Wed Nov 21 19:32:37 2018
 By www-data
Copyright (c) 2018 by Benjamin Critton &#38; Colophon Foundry. All rights reserved.
</metadata>
<defs>
<font id="MabryPro-Regular" horiz-adv-x="0" >
  <font-face 
    font-family="Mabry Pro"
    font-weight="400"
    font-stretch="normal"
    units-per-em="1000"
    panose-1="2 13 5 3 4 0 2 4 3 3"
    ascent="792"
    descent="-208"
    x-height="474"
    cap-height="700"
    bbox="-801 -258 1727 1056"
    underline-thickness="62"
    underline-position="-160"
    unicode-range="U+000D-1F610"
  />
<missing-glyph horiz-adv-x="590" 
d="M45 700h500v-700h-500v700zM430 635h-270l135 -219zM110 115l144 235l-144 235v-470zM480 585l-145 -235l145 -235v470zM430 65l-135 219l-135 -219h270z" />
    <glyph glyph-name="f_f" unicode="ff" horiz-adv-x="630" 
d="M117 401h-106v73h106v72q0 74 44 119t122 45q41 0 74 -14.5t49 -39.5q17 26 46.5 40t68.5 14q78 0 117.5 -39t39.5 -101q0 -13 -1 -22h-81q1 8 1 18q0 34 -20.5 52.5t-55.5 18.5q-75 0 -75 -93v-70h134v-73h-134v-401h-86v401h-156v-401h-87v401zM360 474v84
q0 40 -20.5 59.5t-55.5 19.5q-38 0 -59 -24.5t-21 -69.5v-69h156z" />
    <glyph glyph-name="f_f_i" unicode="ffi" horiz-adv-x="751" 
d="M117 401h-106v73h106v72q0 74 44 119t122 45q40 0 73 -13.5t50 -40.5q17 25 46.5 39.5t68.5 14.5q78 0 117.5 -39t39.5 -101q0 -13 -1 -22h-81l1 18q0 34 -20.5 52.5t-55.5 18.5q-75 0 -75 -93v-70h243v-474h-87v401h-156v-401h-86v401h-156v-401h-87v401zM360 474v84
q0 40 -20.5 59.5t-55.5 19.5q-38 0 -59 -24.5t-21 -69.5v-69h156z" />
    <glyph glyph-name="f_f_l" unicode="ffl" horiz-adv-x="756" 
d="M117 401h-106v73h106v72q0 74 44 119t122 45q40 0 72 -13.5t50 -40.5q17 26 48 40t71 14q81 0 123 -43t42 -114v-553h-87v550q0 41 -19.5 64t-58.5 23q-38 0 -58 -23t-20 -64v-76h102v-73h-102v-401h-86v401h-156v-401h-87v401zM360 474v84q0 40 -20.5 59.5t-55.5 19.5
q-38 0 -59 -24.5t-21 -69.5v-69h156z" />
    <glyph glyph-name="fi" unicode="fi" horiz-adv-x="507" 
d="M446 0h-87v401h-156v-401h-86v401h-106v73h106v72q0 74 42 119t119 45q78 0 117.5 -39t39.5 -101q0 -13 -1 -22h-81l1 18q0 34 -20.5 52.5t-55.5 18.5q-75 0 -75 -93v-70h243v-474z" />
    <glyph glyph-name="fl" unicode="fl" horiz-adv-x="513" 
d="M117 401h-106v73h106v79q0 71 42 114t123 43q80 0 122 -43t42 -114v-553h-86v550q0 41 -20 64t-58 23q-39 0 -58.5 -23t-19.5 -64v-76h101v-73h-101v-401h-87v401z" />
    <glyph glyph-name=".notdef" horiz-adv-x="590" 
d="M45 700h500v-700h-500v700zM430 635h-270l135 -219zM110 115l144 235l-144 235v-470zM480 585l-145 -235l145 -235v470zM430 65l-135 219l-135 -219h270z" />
    <glyph glyph-name="nonmarkingreturn" unicode="&#xd;" horiz-adv-x="245" 
 />
    <glyph glyph-name="space" unicode=" " horiz-adv-x="245" 
 />
    <glyph glyph-name="A" unicode="A" horiz-adv-x="739" 
d="M306 700h128l293 -700h-102l-72 178h-366l-73 -178h-101zM519 262l-149 365l-150 -365h299z" />
    <glyph glyph-name="Aacute" unicode="&#xc1;" horiz-adv-x="739" 
d="M306 700h128l293 -700h-102l-72 178h-366l-73 -178h-101zM519 262l-149 365l-150 -365h299zM416 914h117v-14l-121 -119h-83z" />
    <glyph glyph-name="Abreve" unicode="&#x102;" horiz-adv-x="739" 
d="M306 700h128l293 -700h-102l-72 178h-366l-73 -178h-101zM519 262l-149 365l-150 -365h299zM491 889q0 -53 -35 -81t-87 -28t-87 28t-35 81q0 9 1 14h68l-1 -11q0 -22 14.5 -36t39.5 -14t39.5 14t14.5 36l-1 11h68q1 -5 1 -14z" />
    <glyph glyph-name="Acircumflex" unicode="&#xc2;" horiz-adv-x="739" 
d="M306 700h128l293 -700h-102l-72 178h-366l-73 -178h-101zM519 262l-149 365l-150 -365h299zM218 795l121 106h62l121 -106v-14h-95l-57 69l-57 -69h-95v14z" />
    <glyph glyph-name="Adieresis" unicode="&#xc4;" horiz-adv-x="739" 
d="M306 700h128l293 -700h-102l-72 178h-366l-73 -178h-101zM519 262l-149 365l-150 -365h299zM238 892h97v-99h-97v99zM405 892h97v-99h-97v99z" />
    <glyph glyph-name="Agrave" unicode="&#xc0;" horiz-adv-x="739" 
d="M306 700h128l293 -700h-102l-72 178h-366l-73 -178h-101zM519 262l-149 365l-150 -365h299zM208 900v14h117l87 -133h-83z" />
    <glyph glyph-name="Amacron" unicode="&#x100;" horiz-adv-x="739" 
d="M306 700h128l293 -700h-102l-72 178h-366l-73 -178h-101zM519 262l-149 365l-150 -365h299zM497 876v-69h-254v69h254z" />
    <glyph glyph-name="Aogonek" unicode="&#x104;" horiz-adv-x="739" 
d="M306 700h128l293 -700h-102l-72 178h-366l-73 -178h-101zM519 262l-149 365l-150 -365h299zM729.5 -183q-17.5 -5 -41.5 -5q-40 0 -64 24t-24 59q0 29 16.5 56.5t51.5 48.5h59q-30 -19 -45.5 -38t-15.5 -41q0 -17 11.5 -27.5t29.5 -10.5q17 0 34 11l27 -61
q-21 -11 -38.5 -16z" />
    <glyph glyph-name="Aring" unicode="&#xc5;" horiz-adv-x="739" 
d="M306 700h128l293 -700h-102l-72 178h-366l-73 -178h-101zM519 262l-149 365l-150 -365h299zM307.5 790.5q-25.5 25.5 -25.5 62.5t25.5 63t62.5 26t63 -26t26 -63t-26 -62.5t-63 -25.5t-62.5 25.5zM397.5 825.5q11.5 11.5 11.5 27.5t-11.5 27.5t-27.5 11.5t-27.5 -11.5
t-11.5 -27.5t11.5 -27.5t27.5 -11.5t27.5 11.5z" />
    <glyph glyph-name="Aringacute" unicode="&#x1fa;" horiz-adv-x="739" 
d="M307 790.5q-26 25.5 -26 62.5q0 27 15.5 49.5t39.5 33.5l80 120h117v-15l-116 -112q19 -12 30 -32t11 -44q0 -37 -25.5 -62.5t-62.5 -25.5t-63 25.5zM397.5 825.5q11.5 11.5 11.5 27.5t-11.5 27.5t-27.5 11.5t-27.5 -11.5t-11.5 -27.5t11.5 -27.5t27.5 -11.5t27.5 11.5z
M727 0h-102l-72 178h-366l-73 -178h-101l293 700h128zM519 262l-149 365l-150 -365h299z" />
    <glyph glyph-name="Atilde" unicode="&#xc3;" horiz-adv-x="739" 
d="M306 700h128l293 -700h-102l-72 178h-366l-73 -178h-101zM519 262l-149 365l-150 -365h299zM388 792q-16 8 -33 23q-12 11 -21 16t-22 5q-14 0 -24 -9t-10 -25q0 -8 3 -16l-63 8q-2 6 -2 16q0 39 26.5 64t65.5 25q28 0 44 -8t33 -23q12 -11 21 -16t22 -5q14 0 24 9t10 25
q0 9 -3 16l64 -8q2 -6 2 -16q0 -39 -27 -64t-66 -25q-28 0 -44 8z" />
    <glyph glyph-name="AE" unicode="&#xc6;" horiz-adv-x="947" 
d="M893 87v-87h-461v178h-225l-92 -178h-102l363 700h507v-87h-359v-207h329v-87h-329v-232h369zM432 614l-182 -352h182v352z" />
    <glyph glyph-name="AEacute" unicode="&#x1fc;" horiz-adv-x="947" 
d="M893 87v-87h-461v178h-225l-92 -178h-102l363 700h507v-87h-359v-207h329v-87h-329v-232h369zM432 614l-182 -352h182v352zM671 914h117v-14l-121 -119h-83z" />
    <glyph glyph-name="B" unicode="B" horiz-adv-x="688" 
d="M76 700h317q66 0 116.5 -24t78 -65.5t27.5 -92.5q0 -52 -28.5 -93.5t-76.5 -63.5q61 -20 95.5 -63t34.5 -109q0 -54 -29.5 -97t-81.5 -67.5t-115 -24.5h-338v700zM397 401q59 0 93 28.5t34 79.5q0 49 -37 76.5t-90 27.5h-229v-212h229zM411 87q58 0 95.5 31t37.5 83
q0 51 -37 84.5t-96 33.5h-243v-232h243z" />
    <glyph glyph-name="C" unicode="C" horiz-adv-x="777" 
d="M266 592.5q-58 -33.5 -91.5 -96.5t-33.5 -146q0 -86 32.5 -148.5t90 -95t131.5 -32.5q116 0 180.5 61.5t86.5 162.5l81 -33q-18 -80 -64 -142t-118 -97.5t-166 -35.5q-105 0 -184.5 47t-122.5 128.5t-43 184.5q0 101 45.5 183.5t125.5 129.5t179 47q128 0 205.5 -66
t104.5 -167l-84 -38q-18 84 -76 135.5t-150 51.5q-71 0 -129 -33.5z" />
    <glyph glyph-name="Cacute" unicode="&#x106;" horiz-adv-x="777" 
d="M266 592.5q-58 -33.5 -91.5 -96.5t-33.5 -146q0 -86 32.5 -148.5t90 -95t131.5 -32.5q116 0 180.5 61.5t86.5 162.5l81 -33q-18 -80 -64 -142t-118 -97.5t-166 -35.5q-105 0 -184.5 47t-122.5 128.5t-43 184.5q0 101 45.5 183.5t125.5 129.5t179 47q128 0 205.5 -66
t104.5 -167l-84 -38q-18 84 -76 135.5t-150 51.5q-71 0 -129 -33.5zM436 914h117v-14l-121 -119h-83z" />
    <glyph glyph-name="Ccaron" unicode="&#x10c;" horiz-adv-x="777" 
d="M266 592.5q-58 -33.5 -91.5 -96.5t-33.5 -146q0 -86 32.5 -148.5t90 -95t131.5 -32.5q116 0 180.5 61.5t86.5 162.5l81 -33q-18 -80 -64 -142t-118 -97.5t-166 -35.5q-105 0 -184.5 47t-122.5 128.5t-43 184.5q0 101 45.5 183.5t125.5 129.5t179 47q128 0 205.5 -66
t104.5 -167l-84 -38q-18 84 -76 135.5t-150 51.5q-71 0 -129 -33.5zM237 887v14h95l57 -69l57 69h95v-14l-121 -106h-62z" />
    <glyph glyph-name="Ccedilla" unicode="&#xc7;" horiz-adv-x="777" 
d="M383 -10q-7 -22 -19 -43q9 10 23 16.5t27 6.5q34 0 55.5 -20.5t21.5 -56.5q0 -38 -23.5 -59.5t-60.5 -21.5q-34 0 -58.5 17t-30.5 50l47 12q2 -15 13 -24.5t28 -9.5q18 0 28.5 10t10.5 26t-10 26.5t-29 10.5q-12 0 -23 -6t-16 -15l-47 9q10 30 17 76q-89 12 -155 61
t-101.5 125.5t-35.5 169.5q0 101 45.5 183.5t125.5 129.5t179 47q128 0 205.5 -66t104.5 -167l-84 -38q-18 84 -76 135.5t-150 51.5q-71 0 -129 -33.5t-91.5 -96.5t-33.5 -146q0 -86 32.5 -148.5t90 -95t131.5 -32.5q116 0 180.5 61.5t86.5 162.5l81 -33q-18 -80 -64 -142
t-118 -97.5t-166 -35.5h-12z" />
    <glyph glyph-name="Ccircumflex" unicode="&#x108;" horiz-adv-x="777" 
d="M266 592.5q-58 -33.5 -91.5 -96.5t-33.5 -146q0 -86 32.5 -148.5t90 -95t131.5 -32.5q116 0 180.5 61.5t86.5 162.5l81 -33q-18 -80 -64 -142t-118 -97.5t-166 -35.5q-105 0 -184.5 47t-122.5 128.5t-43 184.5q0 101 45.5 183.5t125.5 129.5t179 47q128 0 205.5 -66
t104.5 -167l-84 -38q-18 84 -76 135.5t-150 51.5q-71 0 -129 -33.5zM238 795l121 106h62l121 -106v-14h-95l-57 69l-57 -69h-95v14z" />
    <glyph glyph-name="Cdotaccent" unicode="&#x10a;" horiz-adv-x="777" 
d="M266 592.5q-58 -33.5 -91.5 -96.5t-33.5 -146q0 -86 32.5 -148.5t90 -95t131.5 -32.5q116 0 180.5 61.5t86.5 162.5l81 -33q-18 -80 -64 -142t-118 -97.5t-166 -35.5q-105 0 -184.5 47t-122.5 128.5t-43 184.5q0 101 45.5 183.5t125.5 129.5t179 47q128 0 205.5 -66
t104.5 -167l-84 -38q-18 84 -76 135.5t-150 51.5q-71 0 -129 -33.5zM438 893v-100h-96v100h96z" />
    <glyph glyph-name="D" unicode="D" horiz-adv-x="726" 
d="M76 700h260q110 0 188 -45t118 -125t40 -183q0 -100 -40.5 -178.5t-118.5 -123.5t-187 -45h-260v700zM168 84h168q81 0 138 34t86.5 93.5t29.5 135.5q0 123 -66 196t-188 73h-168v-532z" />
    <glyph glyph-name="Eth" unicode="&#xd0;" horiz-adv-x="726" 
d="M524 655q78 -45 118 -125t40 -183q0 -100 -40.5 -178.5t-118.5 -123.5t-187 -45h-260v312h-81v76h81v312h260q110 0 188 -45zM474 118q57 34 86.5 93.5t29.5 135.5q0 123 -66 196t-188 73h-168v-228h203v-76h-203v-228h168q81 0 138 34z" />
    <glyph glyph-name="Dcaron" unicode="&#x10e;" horiz-adv-x="726" 
d="M76 700h260q110 0 188 -45t118 -125t40 -183q0 -100 -40.5 -178.5t-118.5 -123.5t-187 -45h-260v700zM168 84h168q81 0 138 34t86.5 93.5t29.5 135.5q0 123 -66 196t-188 73h-168v-532zM135 887v14h95l57 -69l57 69h95v-14l-121 -106h-62z" />
    <glyph glyph-name="Dcroat" unicode="&#x110;" horiz-adv-x="726" 
d="M524 655q78 -45 118 -125t40 -183q0 -100 -40.5 -178.5t-118.5 -123.5t-187 -45h-260v312h-81v76h81v312h260q110 0 188 -45zM474 118q57 34 86.5 93.5t29.5 135.5q0 123 -66 196t-188 73h-168v-228h203v-76h-203v-228h168q81 0 138 34z" />
    <glyph glyph-name="E" unicode="E" horiz-adv-x="633" 
d="M569 700v-87h-401v-207h371v-87h-371v-232h411v-87h-503v700h493z" />
    <glyph glyph-name="Eacute" unicode="&#xc9;" horiz-adv-x="633" 
d="M569 700v-87h-401v-207h371v-87h-371v-232h411v-87h-503v700h493zM368 914h117v-14l-121 -119h-83z" />
    <glyph glyph-name="Ebreve" unicode="&#x114;" horiz-adv-x="633" 
d="M569 700v-87h-401v-207h371v-87h-371v-232h411v-87h-503v700h493zM444 889q0 -53 -35 -81t-87 -28t-87 28t-35 81q0 9 1 14h68l-1 -11q0 -22 14.5 -36t39.5 -14t39.5 14t14.5 36l-1 11h68q1 -5 1 -14z" />
    <glyph glyph-name="Ecaron" unicode="&#x11a;" horiz-adv-x="633" 
d="M569 700v-87h-401v-207h371v-87h-371v-232h411v-87h-503v700h493zM170 887v14h95l57 -69l57 69h95v-14l-121 -106h-62z" />
    <glyph glyph-name="Ecircumflex" unicode="&#xca;" horiz-adv-x="633" 
d="M569 700v-87h-401v-207h371v-87h-371v-232h411v-87h-503v700h493zM170 795l121 106h62l121 -106v-14h-95l-57 69l-57 -69h-95v14z" />
    <glyph glyph-name="Edieresis" unicode="&#xcb;" horiz-adv-x="633" 
d="M569 700v-87h-401v-207h371v-87h-371v-232h411v-87h-503v700h493zM189 892h97v-99h-97v99zM356 892h97v-99h-97v99z" />
    <glyph glyph-name="Edotaccent" unicode="&#x116;" horiz-adv-x="633" 
d="M569 700v-87h-401v-207h371v-87h-371v-232h411v-87h-503v700h493zM370 893v-100h-96v100h96z" />
    <glyph glyph-name="Egrave" unicode="&#xc8;" horiz-adv-x="633" 
d="M569 700v-87h-401v-207h371v-87h-371v-232h411v-87h-503v700h493zM160 900v14h117l87 -133h-83z" />
    <glyph glyph-name="Emacron" unicode="&#x112;" horiz-adv-x="633" 
d="M569 700v-87h-401v-207h371v-87h-371v-232h411v-87h-503v700h493zM449 876v-69h-254v69h254z" />
    <glyph glyph-name="Eogonek" unicode="&#x118;" horiz-adv-x="633" 
d="M569 700v-87h-401v-207h371v-87h-371v-232h411v-87h-503v700h493zM581.5 -183q-17.5 -5 -41.5 -5q-40 0 -64 24t-24 59q0 29 16.5 56.5t51.5 48.5h59q-30 -19 -45.5 -38t-15.5 -41q0 -17 11.5 -27.5t29.5 -10.5q17 0 34 11l27 -61q-21 -11 -38.5 -16z" />
    <glyph glyph-name="F" unicode="F" horiz-adv-x="616" 
d="M565 700v-87h-397v-228h367v-87h-367v-298h-92v700h489z" />
    <glyph glyph-name="G" unicode="G" horiz-adv-x="788" 
d="M547 32.5q-64 -42.5 -159 -42.5q-98 0 -176 46t-122.5 128t-44.5 186q0 101 45.5 183.5t125 129.5t177.5 47q136 0 220.5 -65t111.5 -176l-90 -30q-45 184 -241 184q-69 0 -127 -34t-92 -96t-34 -143q0 -80 32 -142t90.5 -96.5t135.5 -34.5q66 0 113.5 31.5t74 77
t32.5 90.5h-317v86h429v-362h-79v157q-41 -82 -105 -124.5z" />
    <glyph glyph-name="Gbreve" unicode="&#x11e;" horiz-adv-x="788" 
d="M547 32.5q-64 -42.5 -159 -42.5q-98 0 -176 46t-122.5 128t-44.5 186q0 101 45.5 183.5t125 129.5t177.5 47q136 0 220.5 -65t111.5 -176l-90 -30q-45 184 -241 184q-69 0 -127 -34t-92 -96t-34 -143q0 -80 32 -142t90.5 -96.5t135.5 -34.5q66 0 113.5 31.5t74 77
t32.5 90.5h-317v86h429v-362h-79v157q-41 -82 -105 -124.5zM514 889q0 -53 -35 -81t-87 -28t-87 28t-35 81q0 9 1 14h68l-1 -11q0 -22 14.5 -36t39.5 -14t39.5 14t14.5 36l-1 11h68q1 -5 1 -14z" />
    <glyph glyph-name="Gcircumflex" unicode="&#x11c;" horiz-adv-x="788" 
d="M547 32.5q-64 -42.5 -159 -42.5q-98 0 -176 46t-122.5 128t-44.5 186q0 101 45.5 183.5t125 129.5t177.5 47q136 0 220.5 -65t111.5 -176l-90 -30q-45 184 -241 184q-69 0 -127 -34t-92 -96t-34 -143q0 -80 32 -142t90.5 -96.5t135.5 -34.5q66 0 113.5 31.5t74 77
t32.5 90.5h-317v86h429v-362h-79v157q-41 -82 -105 -124.5zM240 795l121 106h62l121 -106v-14h-95l-57 69l-57 -69h-95v14z" />
    <glyph glyph-name="uni0122" unicode="&#x122;" horiz-adv-x="788" 
d="M547 32.5q-64 -42.5 -159 -42.5q-98 0 -176 46t-122.5 128t-44.5 186q0 101 45.5 183.5t125 129.5t177.5 47q136 0 220.5 -65t111.5 -176l-90 -30q-45 184 -241 184q-69 0 -127 -34t-92 -96t-34 -143q0 -80 32 -142t90.5 -96.5t135.5 -34.5q66 0 113.5 31.5t74 77
t32.5 90.5h-317v86h429v-362h-79v157q-41 -82 -105 -124.5zM313 -248l10 47q20 -8 40 -8q16 0 25.5 8t9.5 24q0 15 -10 22.5t-27 7.5h-18v95h104v-121q0 -45 -23 -64.5t-61 -19.5q-25 0 -50 9z" />
    <glyph glyph-name="Gdotaccent" unicode="&#x120;" horiz-adv-x="788" 
d="M547 32.5q-64 -42.5 -159 -42.5q-98 0 -176 46t-122.5 128t-44.5 186q0 101 45.5 183.5t125 129.5t177.5 47q136 0 220.5 -65t111.5 -176l-90 -30q-45 184 -241 184q-69 0 -127 -34t-92 -96t-34 -143q0 -80 32 -142t90.5 -96.5t135.5 -34.5q66 0 113.5 31.5t74 77
t32.5 90.5h-317v86h429v-362h-79v157q-41 -82 -105 -124.5zM440 893v-100h-96v100h96z" />
    <glyph glyph-name="H" unicode="H" horiz-adv-x="737" 
d="M168 303v-303h-92v700h92v-313h401v313h92v-700h-92v303h-401z" />
    <glyph glyph-name="Hbar" unicode="&#x126;" horiz-adv-x="737" 
d="M739 509h-78v-509h-92v303h-401v-303h-92v509h-78v78h78v113h92v-113h401v113h92v-113h78v-78zM569 509h-401v-122h401v122z" />
    <glyph glyph-name="Hcircumflex" unicode="&#x124;" horiz-adv-x="737" 
d="M168 303v-303h-92v700h92v-313h401v313h92v-700h-92v303h-401zM216 795l121 106h62l121 -106v-14h-95l-57 69l-57 -69h-95v14z" />
    <glyph glyph-name="I" unicode="I" horiz-adv-x="243" 
d="M76 700h92v-700h-92v700z" />
    <glyph glyph-name="IJ" unicode="&#x132;" horiz-adv-x="841" 
d="M76 700h92v-700h-92v700zM772 700v-466q0 -65 -24 -120.5t-76.5 -89.5t-135.5 -34q-75 0 -130 29.5t-84 82.5t-29 120q0 69 28 121l87 -33q-23 -41 -23 -93q0 -62 41.5 -101t109.5 -39q72 0 108 44.5t36 129.5v449h92z" />
    <glyph glyph-name="Iacute" unicode="&#xcd;" horiz-adv-x="243" 
d="M76 700h92v-700h-92v700zM168 914h117v-14l-121 -119h-83z" />
    <glyph glyph-name="Ibreve" unicode="&#x12c;" horiz-adv-x="243" 
d="M76 700h92v-700h-92v700zM244 889q0 -53 -35 -81t-87 -28t-87 28t-35 81q0 9 1 14h68l-1 -11q0 -22 14.5 -36t39.5 -14t39.5 14t14.5 36l-1 11h68q1 -5 1 -14z" />
    <glyph glyph-name="Icircumflex" unicode="&#xce;" horiz-adv-x="243" 
d="M76 700h92v-700h-92v700zM-30 795l121 106h62l121 -106v-14h-95l-57 69l-57 -69h-95v14z" />
    <glyph glyph-name="Idieresis" unicode="&#xcf;" horiz-adv-x="243" 
d="M76 700h92v-700h-92v700zM-11 892h97v-99h-97v99zM156 892h97v-99h-97v99z" />
    <glyph glyph-name="Idotaccent" unicode="&#x130;" horiz-adv-x="243" 
d="M76 700h92v-700h-92v700zM169 893v-100h-96v100h96z" />
    <glyph glyph-name="Igrave" unicode="&#xcc;" horiz-adv-x="243" 
d="M76 700h92v-700h-92v700zM-40 900v14h117l87 -133h-83z" />
    <glyph glyph-name="Imacron" unicode="&#x12a;" horiz-adv-x="243" 
d="M76 700h92v-700h-92v700zM249 876v-69h-254v69h254z" />
    <glyph glyph-name="Iogonek" unicode="&#x12e;" horiz-adv-x="243" 
d="M76 700h92v-700h-92v700zM170.5 -183q-17.5 -5 -41.5 -5q-40 0 -64 24t-24 59q0 29 16.5 56.5t51.5 48.5h59q-30 -19 -45.5 -38t-15.5 -41q0 -17 11.5 -27.5t29.5 -10.5q17 0 34 11l27 -61q-21 -11 -38.5 -16z" />
    <glyph glyph-name="Itilde" unicode="&#x128;" horiz-adv-x="243" 
d="M76 700h92v-700h-92v700zM140 792q-16 8 -33 23q-12 11 -21 16t-22 5q-14 0 -24 -9t-10 -25q0 -8 3 -16l-63 8q-2 6 -2 16q0 39 26.5 64t65.5 25q28 0 44 -8t33 -23q12 -11 21 -16t22 -5q14 0 24 9t10 25q0 9 -3 16l64 -8q2 -6 2 -16q0 -39 -27 -64t-66 -25q-28 0 -44 8z
" />
    <glyph glyph-name="J" unicode="J" horiz-adv-x="598" 
d="M529 700v-466q0 -65 -24 -120.5t-76.5 -89.5t-135.5 -34q-75 0 -130 29.5t-84 82.5t-29 120q0 69 28 121l87 -33q-23 -41 -23 -93q0 -62 41.5 -101t109.5 -39q72 0 108 44.5t36 129.5v449h92z" />
    <glyph glyph-name="Jcircumflex" unicode="&#x134;" horiz-adv-x="598" 
d="M529 700v-466q0 -65 -24 -120.5t-76.5 -89.5t-135.5 -34q-75 0 -130 29.5t-84 82.5t-29 120q0 69 28 121l87 -33q-23 -41 -23 -93q0 -62 41.5 -101t109.5 -39q72 0 108 44.5t36 129.5v449h92zM331 795l121 106h62l121 -106v-14h-95l-57 69l-57 -69h-95v14z" />
    <glyph glyph-name="K" unicode="K" horiz-adv-x="672" 
d="M648 0h-110l-223 358l-147 -156v-202h-92v700h92v-374l348 374h119l-257 -274z" />
    <glyph glyph-name="uni0136" unicode="&#x136;" horiz-adv-x="672" 
d="M648 0h-110l-223 358l-147 -156v-202h-92v700h92v-374l348 374h119l-257 -274zM270 -248l10 47q20 -8 40 -8q16 0 25.5 8t9.5 24q0 15 -10 22.5t-27 7.5h-18v95h104v-121q0 -45 -23 -64.5t-61 -19.5q-25 0 -50 9z" />
    <glyph glyph-name="L" unicode="L" horiz-adv-x="638" 
d="M168 700v-613h428v-87h-520v700h92z" />
    <glyph glyph-name="Lacute" unicode="&#x139;" horiz-adv-x="638" 
d="M168 700v-613h428v-87h-520v700h92zM168 914h117v-14l-121 -119h-83z" />
    <glyph glyph-name="Lcaron" unicode="&#x13d;" horiz-adv-x="638" 
d="M168 700v-613h428v-87h-520v700h92zM479 543h25q39 0 39 30q0 14 -9 22t-25 8h-18v97h104v-122q0 -45 -26 -66t-67 -21h-23v52z" />
    <glyph glyph-name="uni013B" unicode="&#x13b;" horiz-adv-x="638" 
d="M168 700v-613h428v-87h-520v700h92zM243 -248l10 47q20 -8 40 -8q16 0 25.5 8t9.5 24q0 15 -10 22.5t-27 7.5h-18v95h104v-121q0 -45 -23 -64.5t-61 -19.5q-25 0 -50 9z" />
    <glyph glyph-name="Ldot" unicode="&#x13f;" horiz-adv-x="600" 
d="M168 700v-613h428v-87h-520v700h92zM490 403v-105h-104v105h104z" />
    <glyph glyph-name="Lslash" unicode="&#x141;" horiz-adv-x="638" 
d="M596 87v-87h-520v285l-58 -30l-34 67l92 48v330h92v-282l107 56l35 -68l-142 -73v-246h428z" />
    <glyph glyph-name="M" unicode="M" horiz-adv-x="942" 
d="M775 0v651l-234 -651h-140l-233 651v-651h-92v700h170l225 -631l225 631h171v-700h-92z" />
    <glyph glyph-name="N" unicode="N" horiz-adv-x="766" 
d="M168 0h-92v700h158l364 -636v636h92v-700h-159l-363 636v-636z" />
    <glyph glyph-name="Nacute" unicode="&#x143;" horiz-adv-x="766" 
d="M168 0h-92v700h158l364 -636v636h92v-700h-159l-363 636v-636zM429 914h117v-14l-121 -119h-83z" />
    <glyph glyph-name="Ncaron" unicode="&#x147;" horiz-adv-x="766" 
d="M168 0h-92v700h158l364 -636v636h92v-700h-159l-363 636v-636zM231 887v14h95l57 -69l57 69h95v-14l-121 -106h-62z" />
    <glyph glyph-name="uni0145" unicode="&#x145;" horiz-adv-x="766" 
d="M168 0h-92v700h158l364 -636v636h92v-700h-159l-363 636v-636zM301 -248l10 47q20 -8 40 -8q16 0 25.5 8t9.5 24q0 15 -10 22.5t-27 7.5h-18v95h104v-121q0 -45 -23 -64.5t-61 -19.5q-25 0 -50 9z" />
    <glyph glyph-name="Eng" unicode="&#x14a;" horiz-adv-x="766" 
d="M384.5 -171.5q-50.5 36.5 -67.5 99.5l83 34q11 -42 38 -64t69 -22q44 0 67.5 26.5t23.5 77.5v20h-67l-363 636v-636h-92v700h158l364 -636v636h92v-704q0 -97 -46.5 -150.5t-133.5 -53.5q-75 0 -125.5 36.5z" />
    <glyph glyph-name="Ntilde" unicode="&#xd1;" horiz-adv-x="766" 
d="M168 0h-92v700h158l364 -636v636h92v-700h-159l-363 636v-636zM401 792q-16 8 -33 23q-12 11 -21 16t-22 5q-14 0 -24 -9t-10 -25q0 -8 3 -16l-63 8q-2 6 -2 16q0 39 26.5 64t65.5 25q28 0 44 -8t33 -23q12 -11 21 -16t22 -5q14 0 24 9t10 25q0 9 -3 16l64 -8q2 -6 2 -16
q0 -39 -27 -64t-66 -25q-28 0 -44 8z" />
    <glyph glyph-name="O" unicode="O" horiz-adv-x="812" 
d="M92 531.5q47 82.5 129.5 130.5t184.5 48t184.5 -48t130 -130.5t47.5 -181.5t-47.5 -181.5t-130 -130.5t-184.5 -48t-184.5 48t-129.5 130.5t-47 181.5t47 181.5zM176 206q35 -62 95.5 -95.5t134.5 -33.5t134.5 34t95.5 96t35 143t-34.5 143t-95 96t-135.5 34t-135.5 -34
t-95 -96.5t-34.5 -143.5t35 -143z" />
    <glyph glyph-name="Oacute" unicode="&#xd3;" horiz-adv-x="812" 
d="M92 531.5q47 82.5 129.5 130.5t184.5 48t184.5 -48t130 -130.5t47.5 -181.5t-47.5 -181.5t-130 -130.5t-184.5 -48t-184.5 48t-129.5 130.5t-47 181.5t47 181.5zM176 206q35 -62 95.5 -95.5t134.5 -33.5t134.5 34t95.5 96t35 143t-34.5 143t-95 96t-135.5 34t-135.5 -34
t-95 -96.5t-34.5 -143.5t35 -143zM452 914h117v-14l-121 -119h-83z" />
    <glyph glyph-name="Obreve" unicode="&#x14e;" horiz-adv-x="812" 
d="M92 531.5q47 82.5 129.5 130.5t184.5 48t184.5 -48t130 -130.5t47.5 -181.5t-47.5 -181.5t-130 -130.5t-184.5 -48t-184.5 48t-129.5 130.5t-47 181.5t47 181.5zM176 206q35 -62 95.5 -95.5t134.5 -33.5t134.5 34t95.5 96t35 143t-34.5 143t-95 96t-135.5 34t-135.5 -34
t-95 -96.5t-34.5 -143.5t35 -143zM528 889q0 -53 -35 -81t-87 -28t-87 28t-35 81q0 9 1 14h68l-1 -11q0 -22 14.5 -36t39.5 -14t39.5 14t14.5 36l-1 11h68q1 -5 1 -14z" />
    <glyph glyph-name="Ocircumflex" unicode="&#xd4;" horiz-adv-x="812" 
d="M92 531.5q47 82.5 129.5 130.5t184.5 48t184.5 -48t130 -130.5t47.5 -181.5t-47.5 -181.5t-130 -130.5t-184.5 -48t-184.5 48t-129.5 130.5t-47 181.5t47 181.5zM176 206q35 -62 95.5 -95.5t134.5 -33.5t134.5 34t95.5 96t35 143t-34.5 143t-95 96t-135.5 34t-135.5 -34
t-95 -96.5t-34.5 -143.5t35 -143zM254 795l121 106h62l121 -106v-14h-95l-57 69l-57 -69h-95v14z" />
    <glyph glyph-name="Odieresis" unicode="&#xd6;" horiz-adv-x="812" 
d="M92 531.5q47 82.5 129.5 130.5t184.5 48t184.5 -48t130 -130.5t47.5 -181.5t-47.5 -181.5t-130 -130.5t-184.5 -48t-184.5 48t-129.5 130.5t-47 181.5t47 181.5zM176 206q35 -62 95.5 -95.5t134.5 -33.5t134.5 34t95.5 96t35 143t-34.5 143t-95 96t-135.5 34t-135.5 -34
t-95 -96.5t-34.5 -143.5t35 -143zM274 892h97v-99h-97v99zM441 892h97v-99h-97v99z" />
    <glyph glyph-name="Ograve" unicode="&#xd2;" horiz-adv-x="812" 
d="M92 531.5q47 82.5 129.5 130.5t184.5 48t184.5 -48t130 -130.5t47.5 -181.5t-47.5 -181.5t-130 -130.5t-184.5 -48t-184.5 48t-129.5 130.5t-47 181.5t47 181.5zM176 206q35 -62 95.5 -95.5t134.5 -33.5t134.5 34t95.5 96t35 143t-34.5 143t-95 96t-135.5 34t-135.5 -34
t-95 -96.5t-34.5 -143.5t35 -143zM244 900v14h117l87 -133h-83z" />
    <glyph glyph-name="Ohungarumlaut" unicode="&#x150;" horiz-adv-x="812" 
d="M92 531.5q47 82.5 129.5 130.5t184.5 48t184.5 -48t130 -130.5t47.5 -181.5t-47.5 -181.5t-130 -130.5t-184.5 -48t-184.5 48t-129.5 130.5t-47 181.5t47 181.5zM176 206q35 -62 95.5 -95.5t134.5 -33.5t134.5 34t95.5 96t35 143t-34.5 143t-95 96t-135.5 34t-135.5 -34
t-95 -96.5t-34.5 -143.5t35 -143zM362 914h117v-14l-121 -119h-83zM541 914h117v-14l-121 -119h-83z" />
    <glyph glyph-name="Omacron" unicode="&#x14c;" horiz-adv-x="812" 
d="M92 531.5q47 82.5 129.5 130.5t184.5 48t184.5 -48t130 -130.5t47.5 -181.5t-47.5 -181.5t-130 -130.5t-184.5 -48t-184.5 48t-129.5 130.5t-47 181.5t47 181.5zM176 206q35 -62 95.5 -95.5t134.5 -33.5t134.5 34t95.5 96t35 143t-34.5 143t-95 96t-135.5 34t-135.5 -34
t-95 -96.5t-34.5 -143.5t35 -143zM533 876v-69h-254v69h254z" />
    <glyph glyph-name="Oslash" unicode="&#xd8;" horiz-adv-x="812" 
d="M737 499q31 -70 31 -149q0 -99 -47.5 -181.5t-130 -130.5t-184.5 -48q-98 0 -180 45l-45 -62l-64 47l45 62q-55 49 -86 119t-31 149q0 99 47 181.5t129.5 130.5t184.5 48q98 0 180 -45l45 62l64 -47l-45 -61q56 -50 87 -120zM160.5 239.5q19.5 -49.5 54.5 -85.5l319 439
q-57 30 -128 30q-75 0 -135.5 -34t-95 -96.5t-34.5 -143.5q0 -60 19.5 -109.5zM540.5 111q60.5 34 95.5 96t35 143q0 59 -19 109t-54 87l-320 -439q57 -30 128 -30q74 0 134.5 34z" />
    <glyph glyph-name="Otilde" unicode="&#xd5;" horiz-adv-x="812" 
d="M92 531.5q47 82.5 129.5 130.5t184.5 48t184.5 -48t130 -130.5t47.5 -181.5t-47.5 -181.5t-130 -130.5t-184.5 -48t-184.5 48t-129.5 130.5t-47 181.5t47 181.5zM176 206q35 -62 95.5 -95.5t134.5 -33.5t134.5 34t95.5 96t35 143t-34.5 143t-95 96t-135.5 34t-135.5 -34
t-95 -96.5t-34.5 -143.5t35 -143zM424 792q-16 8 -33 23q-12 11 -21 16t-22 5q-14 0 -24 -9t-10 -25q0 -8 3 -16l-63 8q-2 6 -2 16q0 39 26.5 64t65.5 25q28 0 44 -8t33 -23q12 -11 21 -16t22 -5q14 0 24 9t10 25q0 9 -3 16l64 -8q2 -6 2 -16q0 -39 -27 -64t-66 -25
q-28 0 -44 8z" />
    <glyph glyph-name="OE" unicode="&#x152;" horiz-adv-x="1230" 
d="M221.5 38q-82.5 48 -129.5 130.5t-47 181.5t47 181.5t129.5 130.5t184.5 48q84 0 153 -33.5t114 -94.5v118h493v-87h-401v-207h371v-87h-371v-232h411v-87h-503v119q-99 -129 -267 -129q-102 0 -184.5 48zM541.5 111q60.5 34 95 96t34.5 143t-34.5 143t-95 96t-135.5 34
t-135.5 -34t-95 -96.5t-34.5 -143.5t35 -143t95.5 -95.5t134.5 -33.5q75 0 135.5 34z" />
    <glyph glyph-name="P" unicode="P" horiz-adv-x="658" 
d="M168 0h-92v700h309q72 0 123 -27.5t77.5 -74.5t26.5 -104q0 -55 -27 -102.5t-78.5 -75.5t-121.5 -28h-217v-288zM377 375q62 0 100 31t38 88t-38 88t-100 31h-209v-238h209z" />
    <glyph glyph-name="Thorn" unicode="&#xde;" horiz-adv-x="658" 
d="M168 0h-92v700h92v-141h217q72 0 123 -27.5t77.5 -74.5t26.5 -104q0 -56 -27 -103t-78.5 -75t-121.5 -28h-217v-147zM377 233q62 0 100 31.5t38 88.5t-38 88t-100 31h-209v-239h209z" />
    <glyph glyph-name="Q" unicode="Q" horiz-adv-x="812" 
d="M592 -80q-46 30 -66 89q-60 -19 -120 -19q-102 0 -184.5 48t-129.5 130.5t-47 181.5t47 181.5t129.5 130.5t184.5 48t184.5 -48t130 -130.5t47.5 -181.5q0 -96 -44 -175.5t-121 -128.5q14 -36 39.5 -53.5t65.5 -17.5q42 0 74 24l29 -77q-24 -16 -50.5 -24t-61.5 -8
q-61 0 -107 30zM257 178q0 66 45.5 107t114.5 41q77 0 120.5 -43.5t50.5 -128.5v-8q39 36 61 88t22 116q0 81 -34.5 143t-95 96t-135.5 34t-135.5 -34t-95 -96.5t-34.5 -143.5q0 -82 35.5 -144.5t97.5 -95.5q-17 30 -17 69zM512 96q-1 5 -1 15q-2 72 -27 106t-74 34
q-37 0 -60.5 -23t-23.5 -59q0 -41 23.5 -66.5t64.5 -25.5q52 0 98 19z" />
    <glyph glyph-name="R" unicode="R" horiz-adv-x="672" 
d="M512 0q-12 24 -17.5 59t-6.5 101q-1 75 -35.5 105.5t-101.5 30.5h-183v-296h-92v700h320q69 0 119.5 -25.5t77 -69t26.5 -95.5q0 -65 -36 -111t-104 -69q53 -20 81 -60.5t30 -110.5q2 -60 8 -91t27 -54v-14h-113zM388 383q63 0 98.5 30.5t35.5 84.5q0 55 -35.5 85
t-98.5 30h-220v-230h220z" />
    <glyph glyph-name="Racute" unicode="&#x154;" horiz-adv-x="672" 
d="M512 0q-12 24 -17.5 59t-6.5 101q-1 75 -35.5 105.5t-101.5 30.5h-183v-296h-92v700h320q69 0 119.5 -25.5t77 -69t26.5 -95.5q0 -65 -36 -111t-104 -69q53 -20 81 -60.5t30 -110.5q2 -60 8 -91t27 -54v-14h-113zM388 383q63 0 98.5 30.5t35.5 84.5q0 55 -35.5 85
t-98.5 30h-220v-230h220zM346 914h117v-14l-121 -119h-83z" />
    <glyph glyph-name="Rcaron" unicode="&#x158;" horiz-adv-x="672" 
d="M512 0q-12 24 -17.5 59t-6.5 101q-1 75 -35.5 105.5t-101.5 30.5h-183v-296h-92v700h320q69 0 119.5 -25.5t77 -69t26.5 -95.5q0 -65 -36 -111t-104 -69q53 -20 81 -60.5t30 -110.5q2 -60 8 -91t27 -54v-14h-113zM388 383q63 0 98.5 30.5t35.5 84.5q0 55 -35.5 85
t-98.5 30h-220v-230h220zM148 887v14h95l57 -69l57 69h95v-14l-121 -106h-62z" />
    <glyph glyph-name="uni0156" unicode="&#x156;" horiz-adv-x="672" 
d="M512 0q-12 24 -17.5 59t-6.5 101q-1 75 -35.5 105.5t-101.5 30.5h-183v-296h-92v700h320q69 0 119.5 -25.5t77 -69t26.5 -95.5q0 -65 -36 -111t-104 -69q53 -20 81 -60.5t30 -110.5q2 -60 8 -91t27 -54v-14h-113zM388 383q63 0 98.5 30.5t35.5 84.5q0 55 -35.5 85
t-98.5 30h-220v-230h220zM257 -248l10 47q20 -8 40 -8q16 0 25.5 8t9.5 24q0 15 -10 22.5t-27 7.5h-18v95h104v-121q0 -45 -23 -64.5t-61 -19.5q-25 0 -50 9z" />
    <glyph glyph-name="S" unicode="S" horiz-adv-x="629" 
d="M418.5 590.5q-43.5 32.5 -110.5 32.5q-59 0 -97.5 -26.5t-38.5 -71.5q0 -52 48 -81.5t135 -46.5q124 -24 181.5 -71t57.5 -129q0 -59 -33.5 -106.5t-94 -74t-136.5 -26.5q-99 0 -182 50t-119 164l85 53q21 -86 76.5 -133t140.5 -47q76 0 122 32t46 85q0 47 -39 75.5
t-137 44.5q-243 42 -243 209q0 51 29.5 94t83 68t123.5 25q87 0 154 -43.5t95 -122.5l-86 -49q-17 63 -60.5 95.5z" />
    <glyph glyph-name="Sacute" unicode="&#x15a;" horiz-adv-x="629" 
d="M418.5 590.5q-43.5 32.5 -110.5 32.5q-59 0 -97.5 -26.5t-38.5 -71.5q0 -52 48 -81.5t135 -46.5q124 -24 181.5 -71t57.5 -129q0 -59 -33.5 -106.5t-94 -74t-136.5 -26.5q-99 0 -182 50t-119 164l85 53q21 -86 76.5 -133t140.5 -47q76 0 122 32t46 85q0 47 -39 75.5
t-137 44.5q-243 42 -243 209q0 51 29.5 94t83 68t123.5 25q87 0 154 -43.5t95 -122.5l-86 -49q-17 63 -60.5 95.5zM362 914h117v-14l-121 -119h-83z" />
    <glyph glyph-name="Scaron" unicode="&#x160;" horiz-adv-x="629" 
d="M418.5 590.5q-43.5 32.5 -110.5 32.5q-59 0 -97.5 -26.5t-38.5 -71.5q0 -52 48 -81.5t135 -46.5q124 -24 181.5 -71t57.5 -129q0 -59 -33.5 -106.5t-94 -74t-136.5 -26.5q-99 0 -182 50t-119 164l85 53q21 -86 76.5 -133t140.5 -47q76 0 122 32t46 85q0 47 -39 75.5
t-137 44.5q-243 42 -243 209q0 51 29.5 94t83 68t123.5 25q87 0 154 -43.5t95 -122.5l-86 -49q-17 63 -60.5 95.5zM164 887v14h95l57 -69l57 69h95v-14l-121 -106h-62z" />
    <glyph glyph-name="Scedilla" unicode="&#x15e;" horiz-adv-x="629" 
d="M563 94q-31 -46 -86.5 -73.5t-127.5 -30.5q-10 -25 -19 -43q9 10 22.5 16.5t27.5 6.5q34 0 55.5 -20.5t21.5 -56.5q0 -37 -23.5 -59t-60.5 -22q-34 0 -58.5 17t-30.5 50l47 12q2 -15 12.5 -24.5t27.5 -9.5q19 0 29 10t10 26t-10 26.5t-29 10.5q-12 0 -22.5 -6t-15.5 -15
l-47 9q6 21 17 73q-92 6 -166.5 56.5t-107.5 156.5l85 53q21 -86 76.5 -133t140.5 -47q76 0 122 32t46 85q0 47 -39 75.5t-137 44.5q-243 42 -243 209q0 51 29.5 94t83 68t123.5 25q87 0 154 -43.5t95 -122.5l-86 -49q-17 63 -60.5 95.5t-110.5 32.5q-59 0 -97.5 -26.5
t-38.5 -71.5q0 -52 48 -81.5t135 -46.5q124 -24 181.5 -71t57.5 -129q0 -57 -31 -103z" />
    <glyph glyph-name="Scircumflex" unicode="&#x15c;" horiz-adv-x="629" 
d="M418.5 590.5q-43.5 32.5 -110.5 32.5q-59 0 -97.5 -26.5t-38.5 -71.5q0 -52 48 -81.5t135 -46.5q124 -24 181.5 -71t57.5 -129q0 -59 -33.5 -106.5t-94 -74t-136.5 -26.5q-99 0 -182 50t-119 164l85 53q21 -86 76.5 -133t140.5 -47q76 0 122 32t46 85q0 47 -39 75.5
t-137 44.5q-243 42 -243 209q0 51 29.5 94t83 68t123.5 25q87 0 154 -43.5t95 -122.5l-86 -49q-17 63 -60.5 95.5zM164 795l121 106h62l121 -106v-14h-95l-57 69l-57 -69h-95v14z" />
    <glyph glyph-name="uni0218" unicode="&#x218;" horiz-adv-x="629" 
d="M418.5 590.5q-43.5 32.5 -110.5 32.5q-59 0 -97.5 -26.5t-38.5 -71.5q0 -52 48 -81.5t135 -46.5q124 -24 181.5 -71t57.5 -129q0 -59 -33.5 -106.5t-94 -74t-136.5 -26.5q-99 0 -182 50t-119 164l85 53q21 -86 76.5 -133t140.5 -47q76 0 122 32t46 85q0 47 -39 75.5
t-137 44.5q-243 42 -243 209q0 51 29.5 94t83 68t123.5 25q87 0 154 -43.5t95 -122.5l-86 -49q-17 63 -60.5 95.5zM246 -248l10 47q20 -8 40 -8q16 0 25.5 8t9.5 24q0 15 -10 22.5t-27 7.5h-18v95h104v-121q0 -45 -23 -64.5t-61 -19.5q-25 0 -50 9z" />
    <glyph glyph-name="uni1E9E" unicode="&#x1e9e;" horiz-adv-x="688" 
d="M273 25q-53 34 -78 91l80 46q17 -40 50 -62.5t81 -22.5q60 0 101 37.5t41 101.5q0 63 -41.5 99t-100.5 36q-30 0 -56.5 -10.5t-42.5 -26.5l-60 54l236 245h-162q-85 0 -122.5 -38t-37.5 -122v-453h-92v453q0 126 60.5 186.5t188.5 60.5h280v-87l-190 -194q9 4 31 4
q55 0 101 -25.5t73 -72.5t27 -109q0 -67 -30.5 -118t-84 -79t-119.5 -28q-80 0 -133 34z" />
    <glyph glyph-name="T" unicode="T" horiz-adv-x="672" 
d="M641 613h-259v-613h-92v613h-259v87h610v-87z" />
    <glyph glyph-name="Tbar" unicode="&#x166;" horiz-adv-x="672" 
d="M382 613v-225h142v-76h-142v-312h-92v312h-142v76h142v225h-259v87h610v-87h-259z" />
    <glyph glyph-name="Tcaron" unicode="&#x164;" horiz-adv-x="672" 
d="M641 613h-259v-613h-92v613h-259v87h610v-87zM183 887v14h95l57 -69l57 69h95v-14l-121 -106h-62z" />
    <glyph glyph-name="uni0162" unicode="&#x162;" horiz-adv-x="672" 
d="M360 0q-12 -34 -23 -53q9 10 22.5 16.5t27.5 6.5q34 0 55.5 -20.5t21.5 -56.5q0 -37 -23.5 -59t-60.5 -22q-34 0 -58.5 17t-30.5 50l47 12q2 -15 13 -24.5t27 -9.5q19 0 29.5 10t10.5 26t-10.5 26.5t-29.5 10.5q-12 0 -22.5 -6t-15.5 -15l-47 9q12 39 18 82h-21v613h-259
v87h610v-87h-259v-613h-22z" />
    <glyph glyph-name="uni021A" unicode="&#x21a;" horiz-adv-x="672" 
d="M641 613h-259v-613h-92v613h-259v87h610v-87zM253 -248l10 47q20 -8 40 -8q16 0 25.5 8t9.5 24q0 15 -10 22.5t-27 7.5h-18v95h104v-121q0 -45 -23 -64.5t-61 -19.5q-25 0 -50 9z" />
    <glyph glyph-name="U" unicode="U" horiz-adv-x="715" 
d="M161 700v-411q0 -101 52.5 -156.5t143.5 -55.5q92 0 144.5 55.5t52.5 156.5v411h92v-420q0 -84 -35 -150t-100 -103t-154 -37q-88 0 -153.5 37t-100 103t-34.5 150v420h92z" />
    <glyph glyph-name="Uacute" unicode="&#xda;" horiz-adv-x="715" 
d="M161 700v-411q0 -101 52.5 -156.5t143.5 -55.5q92 0 144.5 55.5t52.5 156.5v411h92v-420q0 -84 -35 -150t-100 -103t-154 -37q-88 0 -153.5 37t-100 103t-34.5 150v420h92zM403 914h117v-14l-121 -119h-83z" />
    <glyph glyph-name="Ubreve" unicode="&#x16c;" horiz-adv-x="715" 
d="M161 700v-411q0 -101 52.5 -156.5t143.5 -55.5q92 0 144.5 55.5t52.5 156.5v411h92v-420q0 -84 -35 -150t-100 -103t-154 -37q-88 0 -153.5 37t-100 103t-34.5 150v420h92zM479 889q0 -53 -35 -81t-87 -28t-87 28t-35 81q0 9 1 14h68l-1 -11q0 -22 14.5 -36t39.5 -14
t39.5 14t14.5 36l-1 11h68q1 -5 1 -14z" />
    <glyph glyph-name="Ucircumflex" unicode="&#xdb;" horiz-adv-x="715" 
d="M161 700v-411q0 -101 52.5 -156.5t143.5 -55.5q92 0 144.5 55.5t52.5 156.5v411h92v-420q0 -84 -35 -150t-100 -103t-154 -37q-88 0 -153.5 37t-100 103t-34.5 150v420h92zM205 795l121 106h62l121 -106v-14h-95l-57 69l-57 -69h-95v14z" />
    <glyph glyph-name="Udieresis" unicode="&#xdc;" horiz-adv-x="715" 
d="M161 700v-411q0 -101 52.5 -156.5t143.5 -55.5q92 0 144.5 55.5t52.5 156.5v411h92v-420q0 -84 -35 -150t-100 -103t-154 -37q-88 0 -153.5 37t-100 103t-34.5 150v420h92zM224 892h97v-99h-97v99zM391 892h97v-99h-97v99z" />
    <glyph glyph-name="Ugrave" unicode="&#xd9;" horiz-adv-x="715" 
d="M161 700v-411q0 -101 52.5 -156.5t143.5 -55.5q92 0 144.5 55.5t52.5 156.5v411h92v-420q0 -84 -35 -150t-100 -103t-154 -37q-88 0 -153.5 37t-100 103t-34.5 150v420h92zM195 900v14h117l87 -133h-83z" />
    <glyph glyph-name="Uhungarumlaut" unicode="&#x170;" horiz-adv-x="715" 
d="M161 700v-411q0 -101 52.5 -156.5t143.5 -55.5q92 0 144.5 55.5t52.5 156.5v411h92v-420q0 -84 -35 -150t-100 -103t-154 -37q-88 0 -153.5 37t-100 103t-34.5 150v420h92zM313 914h117v-14l-121 -119h-83zM492 914h117v-14l-121 -119h-83z" />
    <glyph glyph-name="Umacron" unicode="&#x16a;" horiz-adv-x="715" 
d="M161 700v-411q0 -101 52.5 -156.5t143.5 -55.5q92 0 144.5 55.5t52.5 156.5v411h92v-420q0 -84 -35 -150t-100 -103t-154 -37q-88 0 -153.5 37t-100 103t-34.5 150v420h92zM484 876v-69h-254v69h254z" />
    <glyph glyph-name="Uogonek" unicode="&#x172;" horiz-adv-x="715" 
d="M646 700v-420q0 -115 -64 -193t-176 -94q-25 -17 -37.5 -34.5t-12.5 -37.5q0 -17 11.5 -27.5t29.5 -10.5q17 0 33 11l28 -61q-21 -11 -38.5 -16t-41.5 -5q-40 0 -64 24t-24 59q0 57 53 95q-84 3 -146 41t-95 102.5t-33 146.5v420h92v-411q0 -101 52.5 -156.5t143.5 -55.5
q92 0 144.5 55.5t52.5 156.5v411h92z" />
    <glyph glyph-name="Uring" unicode="&#x16e;" horiz-adv-x="715" 
d="M161 700v-411q0 -101 52.5 -156.5t143.5 -55.5q92 0 144.5 55.5t52.5 156.5v411h92v-420q0 -84 -35 -150t-100 -103t-154 -37q-88 0 -153.5 37t-100 103t-34.5 150v420h92zM294.5 790.5q-25.5 25.5 -25.5 62.5t25.5 63t62.5 26t63 -26t26 -63t-26 -62.5t-63 -25.5
t-62.5 25.5zM384.5 825.5q11.5 11.5 11.5 27.5t-11.5 27.5t-27.5 11.5t-27.5 -11.5t-11.5 -27.5t11.5 -27.5t27.5 -11.5t27.5 11.5z" />
    <glyph glyph-name="Utilde" unicode="&#x168;" horiz-adv-x="715" 
d="M161 700v-411q0 -101 52.5 -156.5t143.5 -55.5q92 0 144.5 55.5t52.5 156.5v411h92v-420q0 -84 -35 -150t-100 -103t-154 -37q-88 0 -153.5 37t-100 103t-34.5 150v420h92zM375 792q-16 8 -33 23q-12 11 -21 16t-22 5q-14 0 -24 -9t-10 -25q0 -8 3 -16l-63 8q-2 6 -2 16
q0 39 26.5 64t65.5 25q28 0 44 -8t33 -23q12 -11 21 -16t22 -5q14 0 24 9t10 25q0 9 -3 16l64 -8q2 -6 2 -16q0 -39 -27 -64t-66 -25q-28 0 -44 8z" />
    <glyph glyph-name="V" unicode="V" horiz-adv-x="728" 
d="M617 700h100l-289 -700h-128l-289 700h101l252 -629z" />
    <glyph glyph-name="W" unicode="W" horiz-adv-x="988" 
d="M13 700h97l149 -639l155 639h160l155 -639l149 639h97l-169 -700h-154l-158 641l-159 -641h-153z" />
    <glyph glyph-name="Wacute" unicode="&#x1e82;" horiz-adv-x="988" 
d="M13 700h97l149 -639l155 639h160l155 -639l149 639h97l-169 -700h-154l-158 641l-159 -641h-153zM540 914h117v-14l-121 -119h-83z" />
    <glyph glyph-name="Wcircumflex" unicode="&#x174;" horiz-adv-x="988" 
d="M13 700h97l149 -639l155 639h160l155 -639l149 639h97l-169 -700h-154l-158 641l-159 -641h-153zM342 795l121 106h62l121 -106v-14h-95l-57 69l-57 -69h-95v14z" />
    <glyph glyph-name="Wdieresis" unicode="&#x1e84;" horiz-adv-x="988" 
d="M13 700h97l149 -639l155 639h160l155 -639l149 639h97l-169 -700h-154l-158 641l-159 -641h-153zM361 892h97v-99h-97v99zM528 892h97v-99h-97v99z" />
    <glyph glyph-name="Wgrave" unicode="&#x1e80;" horiz-adv-x="988" 
d="M13 700h97l149 -639l155 639h160l155 -639l149 639h97l-169 -700h-154l-158 641l-159 -641h-153zM332 900v14h117l87 -133h-83z" />
    <glyph glyph-name="X" unicode="X" horiz-adv-x="674" 
d="M283 380l-225 320h112l167 -252l171 252h108l-225 -320l265 -380h-109l-210 308l-210 -308h-109z" />
    <glyph glyph-name="Y" unicode="Y" horiz-adv-x="672" 
d="M336 369l218 331h105l-277 -412v-288h-92v288l-276 412h110z" />
    <glyph glyph-name="Yacute" unicode="&#xdd;" horiz-adv-x="672" 
d="M336 369l218 331h105l-277 -412v-288h-92v288l-276 412h110zM382 914h117v-14l-121 -119h-83z" />
    <glyph glyph-name="Ycircumflex" unicode="&#x176;" horiz-adv-x="672" 
d="M336 369l218 331h105l-277 -412v-288h-92v288l-276 412h110zM184 795l121 106h62l121 -106v-14h-95l-57 69l-57 -69h-95v14z" />
    <glyph glyph-name="Ydieresis" unicode="&#x178;" horiz-adv-x="672" 
d="M336 369l218 331h105l-277 -412v-288h-92v288l-276 412h110zM203 892h97v-99h-97v99zM370 892h97v-99h-97v99z" />
    <glyph glyph-name="Ygrave" unicode="&#x1ef2;" horiz-adv-x="672" 
d="M336 369l218 331h105l-277 -412v-288h-92v288l-276 412h110zM174 900v14h117l87 -133h-83z" />
    <glyph glyph-name="Z" unicode="Z" horiz-adv-x="702" 
d="M524 613h-467v87h586v-87l-473 -526h478v-87h-596v87z" />
    <glyph glyph-name="Zacute" unicode="&#x179;" horiz-adv-x="702" 
d="M524 613h-467v87h586v-87l-473 -526h478v-87h-596v87zM393 914h117v-14l-121 -119h-83z" />
    <glyph glyph-name="Zcaron" unicode="&#x17d;" horiz-adv-x="702" 
d="M524 613h-467v87h586v-87l-473 -526h478v-87h-596v87zM195 887v14h95l57 -69l57 69h95v-14l-121 -106h-62z" />
    <glyph glyph-name="Zdotaccent" unicode="&#x17b;" horiz-adv-x="702" 
d="M524 613h-467v87h586v-87l-473 -526h478v-87h-596v87zM395 893v-100h-96v100h96z" />
    <glyph glyph-name="uni01B5" unicode="&#x1b5;" horiz-adv-x="600" 
d="M648 87v-87h-596v87l201 224h-164v78h234l201 224h-467v87h586v-87l-201 -224h158v-78h-229l-201 -224h478z" />
    <glyph glyph-name="Adieresis.ss01" horiz-adv-x="739" 
d="M306 700h128l293 -700h-102l-72 178h-366l-73 -178h-101zM519 262l-149 365l-150 -365h299zM243.5 802.5q-16.5 16.5 -16.5 39.5t16.5 39.5t39.5 16.5t39.5 -16.5t16.5 -39.5t-16.5 -39.5t-39.5 -16.5t-39.5 16.5zM416.5 802.5q-16.5 16.5 -16.5 39.5t16.5 39.5
t39.5 16.5t39.5 -16.5t16.5 -39.5t-16.5 -39.5t-39.5 -16.5t-39.5 16.5z" />
    <glyph glyph-name="Cdotaccent.ss01" horiz-adv-x="777" 
d="M266 592.5q-58 -33.5 -91.5 -96.5t-33.5 -146q0 -86 32.5 -148.5t90 -95t131.5 -32.5q116 0 180.5 61.5t86.5 162.5l81 -33q-18 -80 -64 -142t-118 -97.5t-166 -35.5q-105 0 -184.5 47t-122.5 128.5t-43 184.5q0 101 45.5 183.5t125.5 129.5t179 47q128 0 205.5 -66
t104.5 -167l-84 -38q-18 84 -76 135.5t-150 51.5q-71 0 -129 -33.5zM348.5 887.5q16.5 16.5 40.5 16.5q25 0 41.5 -16.5t16.5 -41.5t-16.5 -41.5t-41.5 -16.5q-24 0 -40.5 16.5t-16.5 41.5t16.5 41.5z" />
    <glyph glyph-name="Edieresis.ss01" horiz-adv-x="633" 
d="M569 700v-87h-401v-207h371v-87h-371v-232h411v-87h-503v700h493zM195.5 802.5q-16.5 16.5 -16.5 39.5t16.5 39.5t39.5 16.5t39.5 -16.5t16.5 -39.5t-16.5 -39.5t-39.5 -16.5t-39.5 16.5zM368.5 802.5q-16.5 16.5 -16.5 39.5t16.5 39.5t39.5 16.5t39.5 -16.5t16.5 -39.5
t-16.5 -39.5t-39.5 -16.5t-39.5 16.5z" />
    <glyph glyph-name="Edotaccent.ss01" horiz-adv-x="633" 
d="M569 700v-87h-401v-207h371v-87h-371v-232h411v-87h-503v700h493zM280.5 887.5q16.5 16.5 40.5 16.5q25 0 41.5 -16.5t16.5 -41.5t-16.5 -41.5t-41.5 -16.5q-24 0 -40.5 16.5t-16.5 41.5t16.5 41.5z" />
    <glyph glyph-name="uni0122.ss01" horiz-adv-x="788" 
d="M547 32.5q-64 -42.5 -159 -42.5q-98 0 -176 46t-122.5 128t-44.5 186q0 101 45.5 183.5t125 129.5t177.5 47q136 0 220.5 -65t111.5 -176l-90 -30q-45 184 -241 184q-69 0 -127 -34t-92 -96t-34 -143q0 -80 32 -142t90.5 -96.5t135.5 -34.5q66 0 113.5 31.5t74 77
t32.5 90.5h-317v86h429v-362h-79v157q-41 -82 -105 -124.5zM331 -249l10 48q20 -9 37 -9q33 0 33 26q0 9 -5.5 14t-20.5 12q-43 16 -43 55q0 26 16.5 42.5t40.5 16.5q25 0 43 -18t18 -43v-68q0 -85 -83 -85q-24 0 -46 9z" />
    <glyph glyph-name="Gdotaccent.ss01" horiz-adv-x="788" 
d="M547 32.5q-64 -42.5 -159 -42.5q-98 0 -176 46t-122.5 128t-44.5 186q0 101 45.5 183.5t125 129.5t177.5 47q136 0 220.5 -65t111.5 -176l-90 -30q-45 184 -241 184q-69 0 -127 -34t-92 -96t-34 -143q0 -80 32 -142t90.5 -96.5t135.5 -34.5q66 0 113.5 31.5t74 77
t32.5 90.5h-317v86h429v-362h-79v157q-41 -82 -105 -124.5zM351.5 887.5q16.5 16.5 40.5 16.5q25 0 41.5 -16.5t16.5 -41.5t-16.5 -41.5t-41.5 -16.5q-24 0 -40.5 16.5t-16.5 41.5t16.5 41.5z" />
    <glyph glyph-name="Idieresis.ss01" horiz-adv-x="243" 
d="M76 700h92v-700h-92v700zM-5.5 802.5q-16.5 16.5 -16.5 39.5t16.5 39.5t39.5 16.5t39.5 -16.5t16.5 -39.5t-16.5 -39.5t-39.5 -16.5t-39.5 16.5zM167.5 802.5q-16.5 16.5 -16.5 39.5t16.5 39.5t39.5 16.5t39.5 -16.5t16.5 -39.5t-16.5 -39.5t-39.5 -16.5t-39.5 16.5z" />
    <glyph glyph-name="Idotaccent.ss01" horiz-adv-x="243" 
d="M76 700h92v-700h-92v700zM80.5 887.5q16.5 16.5 40.5 16.5q25 0 41.5 -16.5t16.5 -41.5t-16.5 -41.5t-41.5 -16.5q-24 0 -40.5 16.5t-16.5 41.5t16.5 41.5z" />
    <glyph glyph-name="uni0136.ss01" horiz-adv-x="672" 
d="M648 0h-110l-223 358l-147 -156v-202h-92v700h92v-374l348 374h119l-257 -274zM288 -249l10 48q20 -9 37 -9q33 0 33 26q0 9 -5.5 14t-20.5 12q-43 16 -43 55q0 26 16.5 42.5t40.5 16.5q25 0 43 -18t18 -43v-68q0 -85 -83 -85q-24 0 -46 9z" />
    <glyph glyph-name="Lcaron.ss01" horiz-adv-x="638" 
d="M168 700v-613h428v-87h-520v700h92zM482 543h43q12 0 19 5t7 15q0 16 -23 22q-22 4 -35.5 21t-13.5 39q0 26 17.5 44t44.5 18q28 0 45.5 -19t17.5 -50v-59q0 -45 -22 -66.5t-61 -21.5h-39v52z" />
    <glyph glyph-name="uni013B.ss01" horiz-adv-x="638" 
d="M168 700v-613h428v-87h-520v700h92zM261 -249l10 48q20 -9 37 -9q33 0 33 26q0 9 -5.5 14t-20.5 12q-43 16 -43 55q0 26 16.5 42.5t40.5 16.5q25 0 43 -18t18 -43v-68q0 -85 -83 -85q-24 0 -46 9z" />
    <glyph glyph-name="Ldot.ss01" horiz-adv-x="638" 
d="M168 700v-613h428v-87h-520v700h92zM395 307q-18 18 -18 43q0 26 18 43.5t43 17.5q26 0 43.5 -17.5t17.5 -43.5q0 -25 -17.5 -43t-43.5 -18q-25 0 -43 18z" />
    <glyph glyph-name="uni0145.ss01" horiz-adv-x="766" 
d="M168 0h-92v700h158l364 -636v636h92v-700h-159l-363 636v-636zM318 -249l10 48q20 -9 37 -9q33 0 33 26q0 9 -5.5 14t-20.5 12q-43 16 -43 55q0 26 16.5 42.5t40.5 16.5q25 0 43 -18t18 -43v-68q0 -85 -83 -85q-24 0 -46 9z" />
    <glyph glyph-name="Odieresis.ss01" horiz-adv-x="812" 
d="M92 531.5q47 82.5 129.5 130.5t184.5 48t184.5 -48t130 -130.5t47.5 -181.5t-47.5 -181.5t-130 -130.5t-184.5 -48t-184.5 48t-129.5 130.5t-47 181.5t47 181.5zM176 206q35 -62 95.5 -95.5t134.5 -33.5t134.5 34t95.5 96t35 143t-34.5 143t-95 96t-135.5 34t-135.5 -34
t-95 -96.5t-34.5 -143.5t35 -143zM279.5 802.5q-16.5 16.5 -16.5 39.5t16.5 39.5t39.5 16.5t39.5 -16.5t16.5 -39.5t-16.5 -39.5t-39.5 -16.5t-39.5 16.5zM452.5 802.5q-16.5 16.5 -16.5 39.5t16.5 39.5t39.5 16.5t39.5 -16.5t16.5 -39.5t-16.5 -39.5t-39.5 -16.5
t-39.5 16.5z" />
    <glyph glyph-name="uni0156.ss01" horiz-adv-x="672" 
d="M512 0q-12 24 -17.5 59t-6.5 101q-1 75 -35.5 105.5t-101.5 30.5h-183v-296h-92v700h320q69 0 119.5 -25.5t77 -69t26.5 -95.5q0 -65 -36 -111t-104 -69q53 -20 81 -60.5t30 -110.5q2 -60 8 -91t27 -54v-14h-113zM388 383q63 0 98.5 30.5t35.5 84.5q0 55 -35.5 85
t-98.5 30h-220v-230h220zM275 -249l10 48q20 -9 37 -9q33 0 33 26q0 9 -5.5 14t-20.5 12q-43 16 -43 55q0 26 16.5 42.5t40.5 16.5q25 0 43 -18t18 -43v-68q0 -85 -83 -85q-24 0 -46 9z" />
    <glyph glyph-name="uni0218.ss01" horiz-adv-x="629" 
d="M418.5 590.5q-43.5 32.5 -110.5 32.5q-59 0 -97.5 -26.5t-38.5 -71.5q0 -52 48 -81.5t135 -46.5q124 -24 181.5 -71t57.5 -129q0 -59 -33.5 -106.5t-94 -74t-136.5 -26.5q-99 0 -182 50t-119 164l85 53q21 -86 76.5 -133t140.5 -47q76 0 122 32t46 85q0 47 -39 75.5
t-137 44.5q-243 42 -243 209q0 51 29.5 94t83 68t123.5 25q87 0 154 -43.5t95 -122.5l-86 -49q-17 63 -60.5 95.5zM264 -249l10 48q20 -9 37 -9q33 0 33 26q0 9 -5.5 14t-20.5 12q-43 16 -43 55q0 26 16.5 42.5t40.5 16.5q25 0 43 -18t18 -43v-68q0 -85 -83 -85q-24 0 -46 9
z" />
    <glyph glyph-name="uni021A.ss01" horiz-adv-x="672" 
d="M641 613h-259v-613h-92v613h-259v87h610v-87zM271 -249l10 48q20 -9 37 -9q33 0 33 26q0 9 -5.5 14t-20.5 12q-43 16 -43 55q0 26 16.5 42.5t40.5 16.5q25 0 43 -18t18 -43v-68q0 -85 -83 -85q-24 0 -46 9z" />
    <glyph glyph-name="Udieresis.ss01" horiz-adv-x="715" 
d="M161 700v-411q0 -101 52.5 -156.5t143.5 -55.5q92 0 144.5 55.5t52.5 156.5v411h92v-420q0 -84 -35 -150t-100 -103t-154 -37q-88 0 -153.5 37t-100 103t-34.5 150v420h92zM230.5 802.5q-16.5 16.5 -16.5 39.5t16.5 39.5t39.5 16.5t39.5 -16.5t16.5 -39.5t-16.5 -39.5
t-39.5 -16.5t-39.5 16.5zM403.5 802.5q-16.5 16.5 -16.5 39.5t16.5 39.5t39.5 16.5t39.5 -16.5t16.5 -39.5t-16.5 -39.5t-39.5 -16.5t-39.5 16.5z" />
    <glyph glyph-name="Wdieresis.ss01" horiz-adv-x="988" 
d="M13 700h97l149 -639l155 639h160l155 -639l149 639h97l-169 -700h-154l-158 641l-159 -641h-153zM367.5 802.5q-16.5 16.5 -16.5 39.5t16.5 39.5t39.5 16.5t39.5 -16.5t16.5 -39.5t-16.5 -39.5t-39.5 -16.5t-39.5 16.5zM540.5 802.5q-16.5 16.5 -16.5 39.5t16.5 39.5
t39.5 16.5t39.5 -16.5t16.5 -39.5t-16.5 -39.5t-39.5 -16.5t-39.5 16.5z" />
    <glyph glyph-name="Ydieresis.ss01" horiz-adv-x="672" 
d="M336 369l218 331h105l-277 -412v-288h-92v288l-276 412h110zM209.5 802.5q-16.5 16.5 -16.5 39.5t16.5 39.5t39.5 16.5t39.5 -16.5t16.5 -39.5t-16.5 -39.5t-39.5 -16.5t-39.5 16.5zM382.5 802.5q-16.5 16.5 -16.5 39.5t16.5 39.5t39.5 16.5t39.5 -16.5t16.5 -39.5
t-16.5 -39.5t-39.5 -16.5t-39.5 16.5z" />
    <glyph glyph-name="Zdotaccent.ss01" horiz-adv-x="702" 
d="M524 613h-467v87h586v-87l-473 -526h478v-87h-596v87zM305.5 887.5q16.5 16.5 40.5 16.5q25 0 41.5 -16.5t16.5 -41.5t-16.5 -41.5t-41.5 -16.5q-24 0 -40.5 16.5t-16.5 41.5t16.5 41.5z" />
    <glyph glyph-name="a" unicode="a" horiz-adv-x="515" 
d="M90.5 29.5q-45.5 39.5 -45.5 105.5q0 73 49.5 110t126.5 37q53 0 101 -15l43 -12v49q0 52 -33 79.5t-86 27.5q-51 0 -84 -26t-42 -72l-78 22q14 68 67.5 108.5t136.5 40.5q97 0 149.5 -49.5t52.5 -137.5v-297h-83v75q-18 -38 -62 -61.5t-101 -23.5q-66 0 -111.5 39.5z
M327.5 95.5q37.5 29.5 37.5 81.5v10l-44 13q-50 15 -88 15q-46 0 -72.5 -19t-26.5 -56q0 -33 25 -53.5t72 -20.5q59 0 96.5 29.5z" />
    <glyph glyph-name="aacute" unicode="&#xe1;" horiz-adv-x="515" 
d="M90.5 29.5q-45.5 39.5 -45.5 105.5q0 73 49.5 110t126.5 37q53 0 101 -15l43 -12v49q0 52 -33 79.5t-86 27.5q-51 0 -84 -26t-42 -72l-78 22q14 68 67.5 108.5t136.5 40.5q97 0 149.5 -49.5t52.5 -137.5v-297h-83v75q-18 -38 -62 -61.5t-101 -23.5q-66 0 -111.5 39.5z
M327.5 95.5q37.5 29.5 37.5 81.5v10l-44 13q-50 15 -88 15q-46 0 -72.5 -19t-26.5 -56q0 -33 25 -53.5t72 -20.5q59 0 96.5 29.5zM292 688h117v-14l-121 -119h-83z" />
    <glyph glyph-name="abreve" unicode="&#x103;" horiz-adv-x="515" 
d="M90.5 29.5q-45.5 39.5 -45.5 105.5q0 73 49.5 110t126.5 37q53 0 101 -15l43 -12v49q0 52 -33 79.5t-86 27.5q-51 0 -84 -26t-42 -72l-78 22q14 68 67.5 108.5t136.5 40.5q97 0 149.5 -49.5t52.5 -137.5v-297h-83v75q-18 -38 -62 -61.5t-101 -23.5q-66 0 -111.5 39.5z
M327.5 95.5q37.5 29.5 37.5 81.5v10l-44 13q-50 15 -88 15q-46 0 -72.5 -19t-26.5 -56q0 -33 25 -53.5t72 -20.5q59 0 96.5 29.5zM368 663q0 -53 -35 -81t-87 -28t-87 28t-35 81q0 9 1 14h68l-1 -11q0 -22 14.5 -36t39.5 -14t39.5 14t14.5 36l-1 11h68q1 -5 1 -14z" />
    <glyph glyph-name="acircumflex" unicode="&#xe2;" horiz-adv-x="515" 
d="M90.5 29.5q-45.5 39.5 -45.5 105.5q0 73 49.5 110t126.5 37q53 0 101 -15l43 -12v49q0 52 -33 79.5t-86 27.5q-51 0 -84 -26t-42 -72l-78 22q14 68 67.5 108.5t136.5 40.5q97 0 149.5 -49.5t52.5 -137.5v-297h-83v75q-18 -38 -62 -61.5t-101 -23.5q-66 0 -111.5 39.5z
M327.5 95.5q37.5 29.5 37.5 81.5v10l-44 13q-50 15 -88 15q-46 0 -72.5 -19t-26.5 -56q0 -33 25 -53.5t72 -20.5q59 0 96.5 29.5zM94 569l121 106h62l121 -106v-14h-95l-57 69l-57 -69h-95v14z" />
    <glyph glyph-name="adieresis" unicode="&#xe4;" horiz-adv-x="515" 
d="M90.5 29.5q-45.5 39.5 -45.5 105.5q0 73 49.5 110t126.5 37q53 0 101 -15l43 -12v49q0 52 -33 79.5t-86 27.5q-51 0 -84 -26t-42 -72l-78 22q14 68 67.5 108.5t136.5 40.5q97 0 149.5 -49.5t52.5 -137.5v-297h-83v75q-18 -38 -62 -61.5t-101 -23.5q-66 0 -111.5 39.5z
M327.5 95.5q37.5 29.5 37.5 81.5v10l-44 13q-50 15 -88 15q-46 0 -72.5 -19t-26.5 -56q0 -33 25 -53.5t72 -20.5q59 0 96.5 29.5zM113 666h97v-99h-97v99zM280 666h97v-99h-97v99z" />
    <glyph glyph-name="agrave" unicode="&#xe0;" horiz-adv-x="515" 
d="M90.5 29.5q-45.5 39.5 -45.5 105.5q0 73 49.5 110t126.5 37q53 0 101 -15l43 -12v49q0 52 -33 79.5t-86 27.5q-51 0 -84 -26t-42 -72l-78 22q14 68 67.5 108.5t136.5 40.5q97 0 149.5 -49.5t52.5 -137.5v-297h-83v75q-18 -38 -62 -61.5t-101 -23.5q-66 0 -111.5 39.5z
M327.5 95.5q37.5 29.5 37.5 81.5v10l-44 13q-50 15 -88 15q-46 0 -72.5 -19t-26.5 -56q0 -33 25 -53.5t72 -20.5q59 0 96.5 29.5zM83 674v14h117l87 -133h-83z" />
    <glyph glyph-name="amacron" unicode="&#x101;" horiz-adv-x="515" 
d="M90.5 29.5q-45.5 39.5 -45.5 105.5q0 73 49.5 110t126.5 37q53 0 101 -15l43 -12v49q0 52 -33 79.5t-86 27.5q-51 0 -84 -26t-42 -72l-78 22q14 68 67.5 108.5t136.5 40.5q97 0 149.5 -49.5t52.5 -137.5v-297h-83v75q-18 -38 -62 -61.5t-101 -23.5q-66 0 -111.5 39.5z
M327.5 95.5q37.5 29.5 37.5 81.5v10l-44 13q-50 15 -88 15q-46 0 -72.5 -19t-26.5 -56q0 -33 25 -53.5t72 -20.5q59 0 96.5 29.5zM372 650v-69h-254v69h254z" />
    <glyph glyph-name="aogonek" unicode="&#x105;" horiz-adv-x="515" 
d="M490 -167q-21 -11 -38.5 -16t-41.5 -5q-40 0 -64.5 24t-24.5 59q0 29 16.5 56.5t51.5 48.5h-24v75q-18 -38 -62 -61.5t-101 -23.5q-66 0 -111.5 39.5t-45.5 105.5q0 73 49.5 110t126.5 37q53 0 101 -15l43 -12v49q0 52 -33 79.5t-86 27.5q-51 0 -84 -26t-42 -72l-78 22
q14 68 67.5 108.5t136.5 40.5q97 0 149.5 -49.5t52.5 -137.5v-297q-30 -19 -45 -38t-15 -41q0 -17 11.5 -27.5t28.5 -10.5t34 11zM365 187l-44 13q-50 15 -88 15q-46 0 -72.5 -19t-26.5 -56q0 -33 25 -53.5t72 -20.5q59 0 96.5 29.5t37.5 81.5v10z" />
    <glyph glyph-name="aring" unicode="&#xe5;" horiz-adv-x="515" 
d="M90.5 29.5q-45.5 39.5 -45.5 105.5q0 73 49.5 110t126.5 37q53 0 101 -15l43 -12v49q0 52 -33 79.5t-86 27.5q-51 0 -84 -26t-42 -72l-78 22q14 68 67.5 108.5t136.5 40.5q97 0 149.5 -49.5t52.5 -137.5v-297h-83v75q-18 -38 -62 -61.5t-101 -23.5q-66 0 -111.5 39.5z
M327.5 95.5q37.5 29.5 37.5 81.5v10l-44 13q-50 15 -88 15q-46 0 -72.5 -19t-26.5 -56q0 -33 25 -53.5t72 -20.5q59 0 96.5 29.5zM183.5 564.5q-25.5 25.5 -25.5 62.5t25.5 63t62.5 26t63 -26t26 -63t-26 -62.5t-63 -25.5t-62.5 25.5zM273.5 599.5q11.5 11.5 11.5 27.5
t-11.5 27.5t-27.5 11.5t-27.5 -11.5t-11.5 -27.5t11.5 -27.5t27.5 -11.5t27.5 11.5z" />
    <glyph glyph-name="aringacute" unicode="&#x1fb;" horiz-adv-x="515" 
d="M183 564.5q-26 25.5 -26 62.5q0 29 17 52.5t44 32.5l74 112h117v-14l-113 -110q18 -12 28 -31.5t10 -41.5q0 -37 -25.5 -62.5t-62.5 -25.5t-63 25.5zM273.5 599.5q11.5 11.5 11.5 27.5t-11.5 27.5t-27.5 11.5t-27.5 -11.5t-11.5 -27.5t11.5 -27.5t27.5 -11.5t27.5 11.5z
M395.5 434.5q52.5 -49.5 52.5 -137.5v-297h-83v75q-18 -38 -62 -61.5t-101 -23.5q-66 0 -111.5 39.5t-45.5 105.5q0 73 49.5 110t126.5 37q53 0 101 -15l43 -12v49q0 52 -33 79.5t-86 27.5q-51 0 -84 -26t-42 -72l-78 22q14 68 67.5 108.5t136.5 40.5q97 0 149.5 -49.5z
M365 187l-44 13q-50 15 -88 15q-46 0 -72.5 -19t-26.5 -56q0 -33 25 -53.5t72 -20.5q59 0 96.5 29.5t37.5 81.5v10z" />
    <glyph glyph-name="atilde" unicode="&#xe3;" horiz-adv-x="515" 
d="M90.5 29.5q-45.5 39.5 -45.5 105.5q0 73 49.5 110t126.5 37q53 0 101 -15l43 -12v49q0 52 -33 79.5t-86 27.5q-51 0 -84 -26t-42 -72l-78 22q14 68 67.5 108.5t136.5 40.5q97 0 149.5 -49.5t52.5 -137.5v-297h-83v75q-18 -38 -62 -61.5t-101 -23.5q-66 0 -111.5 39.5z
M327.5 95.5q37.5 29.5 37.5 81.5v10l-44 13q-50 15 -88 15q-46 0 -72.5 -19t-26.5 -56q0 -33 25 -53.5t72 -20.5q59 0 96.5 29.5zM264 566q-16 8 -33 23q-12 11 -21 16t-22 5q-14 0 -24 -9t-10 -25q0 -8 3 -16l-63 8q-2 6 -2 16q0 39 26.5 64t65.5 25q28 0 44 -8t33 -23
q12 -11 21 -16t22 -5q14 0 24 9t10 25q0 9 -3 16l64 -8q2 -6 2 -16q0 -39 -27 -64t-66 -25q-28 0 -44 8z" />
    <glyph glyph-name="ae" unicode="&#xe6;" horiz-adv-x="844" 
d="M90 32q-45 42 -45 106q0 73 48 110.5t128 37.5h140v18q0 52 -32 79.5t-87 27.5q-50 0 -83 -24.5t-42 -68.5l-75 21q16 70 68 107.5t132 37.5q62 0 106.5 -22t67.5 -62q28 39 73 61.5t98 22.5q94 0 152.5 -54.5t58.5 -147.5q0 -22 -6 -58h-343q1 -77 44 -118t107 -41
q55 0 89 28t48 79l74 -29q-24 -72 -76.5 -112.5t-134.5 -40.5q-67 0 -118.5 30t-76.5 83q-60 -113 -198 -113q-72 0 -117 42zM711 286q1 5 1 14q0 51 -36.5 79.5t-90.5 28.5q-55 0 -92.5 -33t-44.5 -89h263zM324 98.5q37 32.5 37 88.5v33h-123q-48 0 -77 -21t-29 -59
q0 -36 25 -55t69 -19q61 0 98 32.5z" />
    <glyph glyph-name="aeacute" unicode="&#x1fd;" horiz-adv-x="844" 
d="M90 32q-45 42 -45 106q0 73 48 110.5t128 37.5h140v18q0 52 -32 79.5t-87 27.5q-50 0 -83 -24.5t-42 -68.5l-75 21q16 70 68 107.5t132 37.5q62 0 106.5 -22t67.5 -62q28 39 73 61.5t98 22.5q94 0 152.5 -54.5t58.5 -147.5q0 -22 -6 -58h-343q1 -77 44 -118t107 -41
q55 0 89 28t48 79l74 -29q-24 -72 -76.5 -112.5t-134.5 -40.5q-67 0 -118.5 30t-76.5 83q-60 -113 -198 -113q-72 0 -117 42zM711 286q1 5 1 14q0 51 -36.5 79.5t-90.5 28.5q-55 0 -92.5 -33t-44.5 -89h263zM324 98.5q37 32.5 37 88.5v33h-123q-48 0 -77 -21t-29 -59
q0 -36 25 -55t69 -19q61 0 98 32.5zM463 688h117v-14l-121 -119h-83z" />
    <glyph glyph-name="b" unicode="b" horiz-adv-x="573" 
d="M153 700v-315q24 44 69.5 71.5t98.5 27.5q63 0 111.5 -31.5t75.5 -88.5t27 -130t-28.5 -128.5t-79.5 -85.5t-116 -30q-51 0 -94 23.5t-68 64.5v-78h-82v700h86zM170.5 145q21.5 -38 55.5 -58t73 -20q40 0 74.5 19.5t55 57.5t20.5 91t-20.5 91.5t-55 59t-74.5 20.5
q-38 0 -72.5 -20.5t-56 -59.5t-21.5 -91t21.5 -90z" />
    <glyph glyph-name="c" unicode="c" horiz-adv-x="550" 
d="M145 148q23 -40 60.5 -61t79.5 -21q69 0 106 37.5t51 104.5l77 -29q-20 -90 -81.5 -139.5t-150.5 -49.5q-74 0 -130.5 31t-87.5 88t-31 131q0 70 32.5 126t87 87t118.5 31q86 0 144.5 -45t75.5 -126l-79 -24q-11 56 -47.5 87.5t-94.5 31.5q-37 0 -72 -19t-58 -57t-23 -92
q0 -52 23 -92z" />
    <glyph glyph-name="cacute" unicode="&#x107;" horiz-adv-x="550" 
d="M145 148q23 -40 60.5 -61t79.5 -21q69 0 106 37.5t51 104.5l77 -29q-20 -90 -81.5 -139.5t-150.5 -49.5q-74 0 -130.5 31t-87.5 88t-31 131q0 70 32.5 126t87 87t118.5 31q86 0 144.5 -45t75.5 -126l-79 -24q-11 56 -47.5 87.5t-94.5 31.5q-37 0 -72 -19t-58 -57t-23 -92
q0 -52 23 -92zM321 688h117v-14l-121 -119h-83z" />
    <glyph glyph-name="ccaron" unicode="&#x10d;" horiz-adv-x="550" 
d="M145 148q23 -40 60.5 -61t79.5 -21q69 0 106 37.5t51 104.5l77 -29q-20 -90 -81.5 -139.5t-150.5 -49.5q-74 0 -130.5 31t-87.5 88t-31 131q0 70 32.5 126t87 87t118.5 31q86 0 144.5 -45t75.5 -126l-79 -24q-11 56 -47.5 87.5t-94.5 31.5q-37 0 -72 -19t-58 -57t-23 -92
q0 -52 23 -92zM125 661v14h95l57 -69l57 69h95v-14l-121 -106h-62z" />
    <glyph glyph-name="ccedilla" unicode="&#xe7;" horiz-adv-x="550" 
d="M275 -10q-8 -20 -19 -43q9 10 22.5 16.5t27.5 6.5q34 0 55.5 -20.5t21.5 -56.5q0 -37 -23.5 -59t-60.5 -22q-35 0 -59 17t-30 50l47 12q2 -15 12.5 -24.5t27.5 -9.5q19 0 29 10t10 26t-10 26.5t-29 10.5q-12 0 -22.5 -6t-15.5 -15l-47 9q9 32 18 77q-89 17 -140.5 82.5
t-51.5 162.5q0 70 32.5 126t87 87t118.5 31q86 0 144.5 -45t75.5 -126l-79 -24q-11 56 -47.5 87.5t-94.5 31.5q-37 0 -72 -19t-58 -57t-23 -92q0 -52 23 -92t60.5 -61t79.5 -21q69 0 106 37.5t51 104.5l77 -29q-20 -90 -81.5 -139.5t-150.5 -49.5h-12z" />
    <glyph glyph-name="ccircumflex" unicode="&#x109;" horiz-adv-x="550" 
d="M145 148q23 -40 60.5 -61t79.5 -21q69 0 106 37.5t51 104.5l77 -29q-20 -90 -81.5 -139.5t-150.5 -49.5q-74 0 -130.5 31t-87.5 88t-31 131q0 70 32.5 126t87 87t118.5 31q86 0 144.5 -45t75.5 -126l-79 -24q-11 56 -47.5 87.5t-94.5 31.5q-37 0 -72 -19t-58 -57t-23 -92
q0 -52 23 -92zM124 569l121 106h62l121 -106v-14h-95l-57 69l-57 -69h-95v14z" />
    <glyph glyph-name="cdotaccent" unicode="&#x10b;" horiz-adv-x="550" 
d="M145 148q23 -40 60.5 -61t79.5 -21q69 0 106 37.5t51 104.5l77 -29q-20 -90 -81.5 -139.5t-150.5 -49.5q-74 0 -130.5 31t-87.5 88t-31 131q0 70 32.5 126t87 87t118.5 31q86 0 144.5 -45t75.5 -126l-79 -24q-11 56 -47.5 87.5t-94.5 31.5q-37 0 -72 -19t-58 -57t-23 -92
q0 -52 23 -92zM227 663h96v-101h-96v101z" />
    <glyph glyph-name="d" unicode="d" horiz-adv-x="573" 
d="M144.5 20.5q-50.5 30.5 -78.5 86t-28 127.5q0 73 28 130t78 88.5t114 31.5q55 0 97 -26t65 -70v312h87v-700h-83v85q-24 -43 -67 -69t-97 -26q-65 0 -115.5 30.5zM345.5 86.5q34.5 19.5 56.5 58t22 90.5t-22 91t-56.5 59.5t-71.5 20.5q-39 0 -73 -20.5t-55.5 -59
t-21.5 -91.5t21 -91t55.5 -57.5t73.5 -19.5q37 0 71.5 19.5z" />
    <glyph glyph-name="eth" unicode="&#xf0;" horiz-adv-x="552" 
d="M151 22q-54 32 -83.5 87.5t-29.5 125.5t29 127t82.5 89.5t122.5 32.5q41 0 77 -17.5t59 -48.5q-26 80 -90 146l-37 -43l-54 45l38 44q-29 22 -54 38l52 62q30 -20 55 -40l35 40l54 -45l-37 -42q69 -70 106.5 -160t37.5 -209q0 -78 -29.5 -138t-83.5 -93t-125 -33t-125 32
zM384.5 114q41.5 46 41.5 121t-42 123t-108 48t-108 -48t-42 -123t41.5 -121t108.5 -46t108.5 46z" />
    <glyph glyph-name="dcaron" unicode="&#x10f;" horiz-adv-x="671" 
d="M144.5 20.5q-50.5 30.5 -78.5 86t-28 127.5q0 73 28 130t78 88.5t114 31.5q55 0 97 -26t65 -70v312h87v-700h-83v85q-24 -43 -67 -69t-97 -26q-65 0 -115.5 30.5zM345.5 86.5q34.5 19.5 56.5 58t22 90.5t-22 91t-56.5 59.5t-71.5 20.5q-39 0 -73 -20.5t-55.5 -59
t-21.5 -91.5t21 -91t55.5 -57.5t73.5 -19.5q37 0 71.5 19.5zM555 543h25q39 0 39 30q0 14 -9 22t-25 8h-18v97h104v-122q0 -45 -26 -66t-67 -21h-23v52z" />
    <glyph glyph-name="dcroat" unicode="&#x111;" horiz-adv-x="573" 
d="M573 562h-66v-562h-83v85q-24 -43 -67 -69t-97 -26q-65 0 -115.5 30.5t-78.5 86t-28 127.5q0 73 28 130t78 88.5t114 31.5q55 0 97 -26t65 -70v174h-151v70h151v68h87v-68h66v-70zM345.5 86.5q34.5 19.5 56.5 58t22 90.5t-22 91t-56.5 59.5t-71.5 20.5q-39 0 -73 -20.5
t-55.5 -59t-21.5 -91.5t21 -91t55.5 -57.5t73.5 -19.5q37 0 71.5 19.5z" />
    <glyph glyph-name="e" unicode="e" horiz-adv-x="522" 
d="M366 93.5q34 27.5 48 78.5l75 -29q-24 -72 -77 -112.5t-135 -40.5q-69 0 -123.5 30.5t-85 87t-30.5 132.5q0 68 28 123.5t79.5 88t118.5 32.5q95 0 153 -54.5t58 -147.5q0 -31 -6 -58h-343q1 -77 44.5 -117.5t106.5 -40.5q55 0 89 27.5zM170.5 375q-37.5 -33 -44.5 -89
h263l1 14q0 51 -36.5 79.5t-90.5 28.5q-55 0 -92.5 -33z" />
    <glyph glyph-name="eacute" unicode="&#xe9;" horiz-adv-x="522" 
d="M366 93.5q34 27.5 48 78.5l75 -29q-24 -72 -77 -112.5t-135 -40.5q-69 0 -123.5 30.5t-85 87t-30.5 132.5q0 68 28 123.5t79.5 88t118.5 32.5q95 0 153 -54.5t58 -147.5q0 -31 -6 -58h-343q1 -77 44.5 -117.5t106.5 -40.5q55 0 89 27.5zM170.5 375q-37.5 -33 -44.5 -89
h263l1 14q0 51 -36.5 79.5t-90.5 28.5q-55 0 -92.5 -33zM310 688h117v-14l-121 -119h-83z" />
    <glyph glyph-name="ebreve" unicode="&#x115;" horiz-adv-x="522" 
d="M366 93.5q34 27.5 48 78.5l75 -29q-24 -72 -77 -112.5t-135 -40.5q-69 0 -123.5 30.5t-85 87t-30.5 132.5q0 68 28 123.5t79.5 88t118.5 32.5q95 0 153 -54.5t58 -147.5q0 -31 -6 -58h-343q1 -77 44.5 -117.5t106.5 -40.5q55 0 89 27.5zM170.5 375q-37.5 -33 -44.5 -89
h263l1 14q0 51 -36.5 79.5t-90.5 28.5q-55 0 -92.5 -33zM386 663q0 -53 -35 -81t-87 -28t-87 28t-35 81q0 9 1 14h68l-1 -11q0 -22 14.5 -36t39.5 -14t39.5 14t14.5 36l-1 11h68q1 -5 1 -14z" />
    <glyph glyph-name="ecaron" unicode="&#x11b;" horiz-adv-x="522" 
d="M366 93.5q34 27.5 48 78.5l75 -29q-24 -72 -77 -112.5t-135 -40.5q-69 0 -123.5 30.5t-85 87t-30.5 132.5q0 68 28 123.5t79.5 88t118.5 32.5q95 0 153 -54.5t58 -147.5q0 -31 -6 -58h-343q1 -77 44.5 -117.5t106.5 -40.5q55 0 89 27.5zM170.5 375q-37.5 -33 -44.5 -89
h263l1 14q0 51 -36.5 79.5t-90.5 28.5q-55 0 -92.5 -33zM114 661v14h95l57 -69l57 69h95v-14l-121 -106h-62z" />
    <glyph glyph-name="ecircumflex" unicode="&#xea;" horiz-adv-x="522" 
d="M366 93.5q34 27.5 48 78.5l75 -29q-24 -72 -77 -112.5t-135 -40.5q-69 0 -123.5 30.5t-85 87t-30.5 132.5q0 68 28 123.5t79.5 88t118.5 32.5q95 0 153 -54.5t58 -147.5q0 -31 -6 -58h-343q1 -77 44.5 -117.5t106.5 -40.5q55 0 89 27.5zM170.5 375q-37.5 -33 -44.5 -89
h263l1 14q0 51 -36.5 79.5t-90.5 28.5q-55 0 -92.5 -33zM112 569l121 106h62l121 -106v-14h-95l-57 69l-57 -69h-95v14z" />
    <glyph glyph-name="edieresis" unicode="&#xeb;" horiz-adv-x="522" 
d="M366 93.5q34 27.5 48 78.5l75 -29q-24 -72 -77 -112.5t-135 -40.5q-69 0 -123.5 30.5t-85 87t-30.5 132.5q0 68 28 123.5t79.5 88t118.5 32.5q95 0 153 -54.5t58 -147.5q0 -31 -6 -58h-343q1 -77 44.5 -117.5t106.5 -40.5q55 0 89 27.5zM170.5 375q-37.5 -33 -44.5 -89
h263l1 14q0 51 -36.5 79.5t-90.5 28.5q-55 0 -92.5 -33zM131 666h97v-99h-97v99zM298 666h97v-99h-97v99z" />
    <glyph glyph-name="edotaccent" unicode="&#x117;" horiz-adv-x="522" 
d="M366 93.5q34 27.5 48 78.5l75 -29q-24 -72 -77 -112.5t-135 -40.5q-69 0 -123.5 30.5t-85 87t-30.5 132.5q0 68 28 123.5t79.5 88t118.5 32.5q95 0 153 -54.5t58 -147.5q0 -31 -6 -58h-343q1 -77 44.5 -117.5t106.5 -40.5q55 0 89 27.5zM170.5 375q-37.5 -33 -44.5 -89
h263l1 14q0 51 -36.5 79.5t-90.5 28.5q-55 0 -92.5 -33zM216 663h96v-101h-96v101z" />
    <glyph glyph-name="egrave" unicode="&#xe8;" horiz-adv-x="522" 
d="M366 93.5q34 27.5 48 78.5l75 -29q-24 -72 -77 -112.5t-135 -40.5q-69 0 -123.5 30.5t-85 87t-30.5 132.5q0 68 28 123.5t79.5 88t118.5 32.5q95 0 153 -54.5t58 -147.5q0 -31 -6 -58h-343q1 -77 44.5 -117.5t106.5 -40.5q55 0 89 27.5zM170.5 375q-37.5 -33 -44.5 -89
h263l1 14q0 51 -36.5 79.5t-90.5 28.5q-55 0 -92.5 -33zM102 674v14h117l87 -133h-83z" />
    <glyph glyph-name="emacron" unicode="&#x113;" horiz-adv-x="522" 
d="M366 93.5q34 27.5 48 78.5l75 -29q-24 -72 -77 -112.5t-135 -40.5q-69 0 -123.5 30.5t-85 87t-30.5 132.5q0 68 28 123.5t79.5 88t118.5 32.5q95 0 153 -54.5t58 -147.5q0 -31 -6 -58h-343q1 -77 44.5 -117.5t106.5 -40.5q55 0 89 27.5zM170.5 375q-37.5 -33 -44.5 -89
h263l1 14q0 51 -36.5 79.5t-90.5 28.5q-55 0 -92.5 -33zM390 650v-69h-254v69h254z" />
    <glyph glyph-name="eogonek" unicode="&#x119;" horiz-adv-x="522" 
d="M289 -40.5q-13 -17.5 -13 -38.5q0 -17 11.5 -27.5t28.5 -10.5t34 11l28 -61q-21 -11 -38.5 -16t-41.5 -5q-40 0 -64.5 24t-24.5 59q0 26 13 50.5t41 44.5q-66 4 -117 35t-79.5 86t-28.5 129q0 68 28 123.5t79.5 88t118.5 32.5q95 0 153 -54.5t58 -147.5q0 -31 -6 -58
h-343q1 -77 44.5 -117.5t106.5 -40.5q55 0 89 27.5t48 78.5l75 -29q-20 -60 -60.5 -98.5t-101.5 -50.5q-25 -17 -38 -34.5zM170.5 375q-37.5 -33 -44.5 -89h263l1 14q0 51 -36.5 79.5t-90.5 28.5q-55 0 -92.5 -33z" />
    <glyph glyph-name="f" unicode="f" horiz-adv-x="387" 
d="M117 401h-106v73h106v72q0 74 42 119t119 45q78 0 117.5 -39t39.5 -101q0 -13 -1 -22h-81l1 18q0 34 -20.5 52.5t-55.5 18.5q-75 0 -75 -93v-70h134v-73h-134v-401h-86v401z" />
    <glyph glyph-name="g" unicode="g" horiz-adv-x="576" 
d="M65 -62l78 33q29 -103 140 -103q69 0 104 44t35 124v53q-21 -40 -63.5 -64.5t-101.5 -24.5q-60 0 -110 29t-79.5 82t-29.5 124q0 73 29.5 130t81 88t113.5 31q108 0 160 -81v71h87v-432q0 -112 -59 -181t-167 -69q-172 0 -218 146zM353 97q34 21 53.5 58.5t19.5 85.5
t-19.5 86t-53.5 59.5t-77 21.5q-66 0 -109 -46.5t-43 -127.5q0 -73 43 -115.5t109 -42.5q43 0 77 21z" />
    <glyph glyph-name="gbreve" unicode="&#x11f;" horiz-adv-x="576" 
d="M65 -62l78 33q29 -103 140 -103q69 0 104 44t35 124v53q-21 -40 -63.5 -64.5t-101.5 -24.5q-60 0 -110 29t-79.5 82t-29.5 124q0 73 29.5 130t81 88t113.5 31q108 0 160 -81v71h87v-432q0 -112 -59 -181t-167 -69q-172 0 -218 146zM353 97q34 21 53.5 58.5t19.5 85.5
t-19.5 86t-53.5 59.5t-77 21.5q-66 0 -109 -46.5t-43 -127.5q0 -73 43 -115.5t109 -42.5q43 0 77 21zM408 663q0 -53 -35 -81t-87 -28t-87 28t-35 81q0 9 1 14h68l-1 -11q0 -22 14.5 -36t39.5 -14t39.5 14t14.5 36l-1 11h68q1 -5 1 -14z" />
    <glyph glyph-name="gcircumflex" unicode="&#x11d;" horiz-adv-x="576" 
d="M65 -62l78 33q29 -103 140 -103q69 0 104 44t35 124v53q-21 -40 -63.5 -64.5t-101.5 -24.5q-60 0 -110 29t-79.5 82t-29.5 124q0 73 29.5 130t81 88t113.5 31q108 0 160 -81v71h87v-432q0 -112 -59 -181t-167 -69q-172 0 -218 146zM353 97q34 21 53.5 58.5t19.5 85.5
t-19.5 86t-53.5 59.5t-77 21.5q-66 0 -109 -46.5t-43 -127.5q0 -73 43 -115.5t109 -42.5q43 0 77 21zM134 569l121 106h62l121 -106v-14h-95l-57 69l-57 -69h-95v14z" />
    <glyph glyph-name="uni0123" unicode="&#x123;" horiz-adv-x="576" 
d="M65 -62l78 33q29 -103 140 -103q69 0 104 44t35 124v53q-21 -40 -63.5 -64.5t-101.5 -24.5q-60 0 -110 29t-79.5 82t-29.5 124q0 73 29.5 130t81 88t113.5 31q108 0 160 -81v71h87v-432q0 -112 -59 -181t-167 -69q-172 0 -218 146zM353 97q34 21 53.5 58.5t19.5 85.5
t-19.5 86t-53.5 59.5t-77 21.5q-66 0 -109 -46.5t-43 -127.5q0 -73 43 -115.5t109 -42.5q43 0 77 21zM218 542v133q0 45 26 64.5t68 19.5h32v-52h-35q-18 0 -28.5 -7.5t-10.5 -22.5q0 -14 9 -22t26 -8h18v-105h-105z" />
    <glyph glyph-name="gdotaccent" unicode="&#x121;" horiz-adv-x="576" 
d="M65 -62l78 33q29 -103 140 -103q69 0 104 44t35 124v53q-21 -40 -63.5 -64.5t-101.5 -24.5q-60 0 -110 29t-79.5 82t-29.5 124q0 73 29.5 130t81 88t113.5 31q108 0 160 -81v71h87v-432q0 -112 -59 -181t-167 -69q-172 0 -218 146zM353 97q34 21 53.5 58.5t19.5 85.5
t-19.5 86t-53.5 59.5t-77 21.5q-66 0 -109 -46.5t-43 -127.5q0 -73 43 -115.5t109 -42.5q43 0 77 21zM238 663h96v-101h-96v101z" />
    <glyph glyph-name="h" unicode="h" horiz-adv-x="555" 
d="M67 0v700h86v-326q20 51 64.5 80.5t102.5 29.5q78 0 123.5 -48t45.5 -129v-307h-87v287q0 61 -29.5 92t-83.5 31q-38 0 -69 -20.5t-49 -58.5t-18 -86v-245h-86z" />
    <glyph glyph-name="hbar" unicode="&#x127;" horiz-adv-x="555" 
d="M443.5 436q45.5 -48 45.5 -129v-307h-87v287q0 61 -29.5 92t-83.5 31q-38 0 -69 -20.5t-49 -58.5t-18 -86v-245h-86v562h-67v70h67v68h86v-68h152v-70h-152v-188q20 51 64.5 80.5t102.5 29.5q78 0 123.5 -48z" />
    <glyph glyph-name="hcircumflex" unicode="&#x125;" horiz-adv-x="555" 
d="M67 0v700h86v-326q20 51 64.5 80.5t102.5 29.5q78 0 123.5 -48t45.5 -129v-307h-87v287q0 61 -29.5 92t-83.5 31q-38 0 -69 -20.5t-49 -58.5t-18 -86v-245h-86zM-42 795l121 106h62l121 -106v-14h-95l-57 69l-57 -69h-95v14z" />
    <glyph glyph-name="i" unicode="i" horiz-adv-x="220" 
d="M153 474v-474h-86v474h86zM62 663h96v-101h-96v101z" />
    <glyph glyph-name="dotlessi" unicode="&#x131;" horiz-adv-x="220" 
d="M153 474v-474h-86v474h86z" />
    <glyph glyph-name="iacute" unicode="&#xed;" horiz-adv-x="220" 
d="M153 474v-474h-86v474h86zM156 688h117v-14l-121 -119h-83z" />
    <glyph glyph-name="ibreve" unicode="&#x12d;" horiz-adv-x="220" 
d="M153 474v-474h-86v474h86zM232 663q0 -53 -35 -81t-87 -28t-87 28t-35 81q0 9 1 14h68l-1 -11q0 -22 14.5 -36t39.5 -14t39.5 14t14.5 36l-1 11h68q1 -5 1 -14z" />
    <glyph glyph-name="icircumflex" unicode="&#xee;" horiz-adv-x="220" 
d="M153 474v-474h-86v474h86zM-42 569l121 106h62l121 -106v-14h-95l-57 69l-57 -69h-95v14z" />
    <glyph glyph-name="idieresis" unicode="&#xef;" horiz-adv-x="220" 
d="M153 474v-474h-86v474h86zM-23 666h97v-99h-97v99zM144 666h97v-99h-97v99z" />
    <glyph glyph-name="i.loclTRK" horiz-adv-x="220" 
d="M153 474v-474h-86v474h86zM62 663h96v-101h-96v101z" />
    <glyph glyph-name="igrave" unicode="&#xec;" horiz-adv-x="220" 
d="M153 474v-474h-86v474h86zM-52 674v14h117l87 -133h-83z" />
    <glyph glyph-name="ij" unicode="&#x133;" horiz-adv-x="440" 
d="M153 474v-474h-86v474h86zM62 663h96v-101h-96v101zM287 474h86v-672h-86v672zM282 663h96v-101h-96v101z" />
    <glyph glyph-name="imacron" unicode="&#x12b;" horiz-adv-x="220" 
d="M153 474v-474h-86v474h86zM236 650v-69h-254v69h254z" />
    <glyph glyph-name="iogonek" unicode="&#x12f;" horiz-adv-x="220" 
d="M153 474v-474h-86v474h86zM62 663h96v-101h-96v101zM156.5 -183q-17.5 -5 -41.5 -5q-40 0 -64 24t-24 59q0 29 16.5 56.5t51.5 48.5h59q-30 -19 -45.5 -38t-15.5 -41q0 -17 11.5 -27.5t29.5 -10.5q17 0 34 11l27 -61q-21 -11 -38.5 -16z" />
    <glyph glyph-name="itilde" unicode="&#x129;" horiz-adv-x="220" 
d="M153 474v-474h-86v474h86zM128 566q-16 8 -33 23q-12 11 -21 16t-22 5q-14 0 -24 -9t-10 -25q0 -8 3 -16l-63 8q-2 6 -2 16q0 39 26.5 64t65.5 25q28 0 44 -8t33 -23q12 -11 21 -16t22 -5q14 0 24 9t10 25q0 9 -3 16l64 -8q2 -6 2 -16q0 -39 -27 -64t-66 -25q-28 0 -44 8
z" />
    <glyph glyph-name="j" unicode="j" horiz-adv-x="220" 
d="M67 474h86v-672h-86v672zM62 663h96v-101h-96v101z" />
    <glyph glyph-name="uni0237" unicode="&#x237;" horiz-adv-x="220" 
d="M67 474h86v-672h-86v672z" />
    <glyph glyph-name="jcircumflex" unicode="&#x135;" horiz-adv-x="220" 
d="M67 474h86v-672h-86v672zM-42 569l121 106h62l121 -106v-14h-95l-57 69l-57 -69h-95v14z" />
    <glyph glyph-name="k" unicode="k" horiz-adv-x="505" 
d="M481 0h-105l-150 218l-73 -77v-141h-86v700h86v-448l203 222h110l-180 -192z" />
    <glyph glyph-name="uni0137" unicode="&#x137;" horiz-adv-x="505" 
d="M481 0h-105l-150 218l-73 -77v-141h-86v700h86v-448l203 222h110l-180 -192zM174 -248l10 47q20 -8 40 -8q16 0 25.5 8t9.5 24q0 15 -10 22.5t-27 7.5h-18v95h104v-121q0 -45 -23 -64.5t-61 -19.5q-25 0 -50 9z" />
    <glyph glyph-name="kgreenlandic" unicode="&#x138;" horiz-adv-x="467" 
d="M67 474h86v-191l171 191h111l-210 -224l219 -250h-110l-181 212v-212h-86v474z" />
    <glyph glyph-name="l" unicode="l" horiz-adv-x="220" 
d="M67 700h86v-700h-86v700z" />
    <glyph glyph-name="lacute" unicode="&#x13a;" horiz-adv-x="220" 
d="M67 700h86v-700h-86v700zM156 914h117v-14l-121 -119h-83z" />
    <glyph glyph-name="lcaron" unicode="&#x13e;" horiz-adv-x="318" 
d="M67 700h86v-700h-86v700zM202 543h25q39 0 39 30q0 14 -9 22t-25 8h-18v97h104v-122q0 -45 -26 -66t-67 -21h-23v52z" />
    <glyph glyph-name="uni013C" unicode="&#x13c;" horiz-adv-x="220" 
d="M67 700h86v-700h-86v700zM27 -248l10 47q20 -8 40 -8q16 0 25.5 8t9.5 24q0 15 -10 22.5t-27 7.5h-18v95h104v-121q0 -45 -23 -64.5t-61 -19.5q-25 0 -50 9z" />
    <glyph glyph-name="ldot" unicode="&#x140;" horiz-adv-x="400" 
d="M67 700h86v-700h-86v700zM362 403v-105h-104v105h104z" />
    <glyph glyph-name="lslash" unicode="&#x142;" horiz-adv-x="220" 
d="M153 337v-337h-86v293l-63 -33l-35 68l98 50v322h86v-278l64 33l34 -67z" />
    <glyph glyph-name="m" unicode="m" horiz-adv-x="752" 
d="M153 474v-67q17 35 49 56t79 21q43 0 76 -24t45 -70q19 45 56.5 69.5t82.5 24.5q66 0 105 -40t39 -115v-329h-86v311q0 44 -24.5 69.5t-62.5 25.5q-39 0 -66 -28t-27 -83v-295h-87v307q0 49 -24 74t-63 25t-65.5 -29t-26.5 -87v-290h-86v474h86z" />
    <glyph glyph-name="n" unicode="n" horiz-adv-x="543" 
d="M67 0v474h86v-77q25 41 65.5 64t90.5 23q76 0 121.5 -46.5t45.5 -129.5v-308h-87v282q0 62 -28.5 94t-79.5 32q-54 0 -91 -40t-37 -108v-260h-86z" />
    <glyph glyph-name="nacute" unicode="&#x144;" horiz-adv-x="543" 
d="M67 0v474h86v-77q25 41 65.5 64t90.5 23q76 0 121.5 -46.5t45.5 -129.5v-308h-87v282q0 62 -28.5 94t-79.5 32q-54 0 -91 -40t-37 -108v-260h-86zM328 688h117v-14l-121 -119h-83z" />
    <glyph glyph-name="ncaron" unicode="&#x148;" horiz-adv-x="543" 
d="M67 0v474h86v-77q25 41 65.5 64t90.5 23q76 0 121.5 -46.5t45.5 -129.5v-308h-87v282q0 62 -28.5 94t-79.5 32q-54 0 -91 -40t-37 -108v-260h-86zM132 661v14h95l57 -69l57 69h95v-14l-121 -106h-62z" />
    <glyph glyph-name="uni0146" unicode="&#x146;" horiz-adv-x="543" 
d="M67 0v474h86v-77q25 41 65.5 64t90.5 23q76 0 121.5 -46.5t45.5 -129.5v-308h-87v282q0 62 -28.5 94t-79.5 32q-54 0 -91 -40t-37 -108v-260h-86zM188 -248l10 47q20 -8 40 -8q16 0 25.5 8t9.5 24q0 15 -10 22.5t-27 7.5h-18v95h104v-121q0 -45 -23 -64.5t-61 -19.5
q-25 0 -50 9z" />
    <glyph glyph-name="eng" unicode="&#x14b;" horiz-adv-x="543" 
d="M261.5 -182q-34.5 26 -43.5 72l78 29q4 -23 16.5 -36t31.5 -13q22 0 33.5 13.5t11.5 43.5v355q0 62 -28.5 94t-80.5 32q-53 0 -90 -40t-37 -107v-261h-86v474h86v-77q25 41 65.5 64t90.5 23q76 0 121.5 -46.5t45.5 -129.5v-374q0 -67 -32.5 -104.5t-99.5 -37.5
q-48 0 -82.5 26z" />
    <glyph glyph-name="ntilde" unicode="&#xf1;" horiz-adv-x="543" 
d="M67 0v474h86v-77q25 41 65.5 64t90.5 23q76 0 121.5 -46.5t45.5 -129.5v-308h-87v282q0 62 -28.5 94t-79.5 32q-54 0 -91 -40t-37 -108v-260h-86zM300 566q-16 8 -33 23q-12 11 -21 16t-22 5q-14 0 -24 -9t-10 -25q0 -8 3 -16l-63 8q-2 6 -2 16q0 39 26.5 64t65.5 25
q28 0 44 -8t33 -23q12 -11 21 -16t22 -5q14 0 24 9t10 25q0 9 -3 16l64 -8q2 -6 2 -16q0 -39 -27 -64t-66 -25q-28 0 -44 8z" />
    <glyph glyph-name="o" unicode="o" horiz-adv-x="556" 
d="M152.5 22.5q-54.5 32.5 -84.5 88.5t-30 126t30 126t84.5 88.5t125.5 32.5t126 -32.5t85 -88.5t30 -126t-30.5 -126t-85 -88.5t-125.5 -32.5t-125.5 32.5zM387.5 115q42.5 47 42.5 122q0 74 -42.5 121.5t-109.5 47.5q-44 0 -78.5 -21.5t-54 -60t-19.5 -87.5t19.5 -87.5
t54 -60t78.5 -21.5q67 0 109.5 47z" />
    <glyph glyph-name="oacute" unicode="&#xf3;" horiz-adv-x="556" 
d="M152.5 22.5q-54.5 32.5 -84.5 88.5t-30 126t30 126t84.5 88.5t125.5 32.5t126 -32.5t85 -88.5t30 -126t-30.5 -126t-85 -88.5t-125.5 -32.5t-125.5 32.5zM387.5 115q42.5 47 42.5 122q0 74 -42.5 121.5t-109.5 47.5q-44 0 -78.5 -21.5t-54 -60t-19.5 -87.5t19.5 -87.5
t54 -60t78.5 -21.5q67 0 109.5 47zM324 688h117v-14l-121 -119h-83z" />
    <glyph glyph-name="obreve" unicode="&#x14f;" horiz-adv-x="556" 
d="M152.5 22.5q-54.5 32.5 -84.5 88.5t-30 126t30 126t84.5 88.5t125.5 32.5t126 -32.5t85 -88.5t30 -126t-30.5 -126t-85 -88.5t-125.5 -32.5t-125.5 32.5zM387.5 115q42.5 47 42.5 122q0 74 -42.5 121.5t-109.5 47.5q-44 0 -78.5 -21.5t-54 -60t-19.5 -87.5t19.5 -87.5
t54 -60t78.5 -21.5q67 0 109.5 47zM400 663q0 -53 -35 -81t-87 -28t-87 28t-35 81q0 9 1 14h68l-1 -11q0 -22 14.5 -36t39.5 -14t39.5 14t14.5 36l-1 11h68q1 -5 1 -14z" />
    <glyph glyph-name="ocircumflex" unicode="&#xf4;" horiz-adv-x="556" 
d="M152.5 22.5q-54.5 32.5 -84.5 88.5t-30 126t30 126t84.5 88.5t125.5 32.5t126 -32.5t85 -88.5t30 -126t-30.5 -126t-85 -88.5t-125.5 -32.5t-125.5 32.5zM387.5 115q42.5 47 42.5 122q0 74 -42.5 121.5t-109.5 47.5q-44 0 -78.5 -21.5t-54 -60t-19.5 -87.5t19.5 -87.5
t54 -60t78.5 -21.5q67 0 109.5 47zM126 569l121 106h62l121 -106v-14h-95l-57 69l-57 -69h-95v14z" />
    <glyph glyph-name="odieresis" unicode="&#xf6;" horiz-adv-x="556" 
d="M152.5 22.5q-54.5 32.5 -84.5 88.5t-30 126t30 126t84.5 88.5t125.5 32.5t126 -32.5t85 -88.5t30 -126t-30.5 -126t-85 -88.5t-125.5 -32.5t-125.5 32.5zM387.5 115q42.5 47 42.5 122q0 74 -42.5 121.5t-109.5 47.5q-44 0 -78.5 -21.5t-54 -60t-19.5 -87.5t19.5 -87.5
t54 -60t78.5 -21.5q67 0 109.5 47zM145 666h97v-99h-97v99zM312 666h97v-99h-97v99z" />
    <glyph glyph-name="ograve" unicode="&#xf2;" horiz-adv-x="556" 
d="M152.5 22.5q-54.5 32.5 -84.5 88.5t-30 126t30 126t84.5 88.5t125.5 32.5t126 -32.5t85 -88.5t30 -126t-30.5 -126t-85 -88.5t-125.5 -32.5t-125.5 32.5zM387.5 115q42.5 47 42.5 122q0 74 -42.5 121.5t-109.5 47.5q-44 0 -78.5 -21.5t-54 -60t-19.5 -87.5t19.5 -87.5
t54 -60t78.5 -21.5q67 0 109.5 47zM116 674v14h117l87 -133h-83z" />
    <glyph glyph-name="ohungarumlaut" unicode="&#x151;" horiz-adv-x="556" 
d="M152.5 22.5q-54.5 32.5 -84.5 88.5t-30 126t30 126t84.5 88.5t125.5 32.5t126 -32.5t85 -88.5t30 -126t-30.5 -126t-85 -88.5t-125.5 -32.5t-125.5 32.5zM387.5 115q42.5 47 42.5 122q0 74 -42.5 121.5t-109.5 47.5q-44 0 -78.5 -21.5t-54 -60t-19.5 -87.5t19.5 -87.5
t54 -60t78.5 -21.5q67 0 109.5 47zM234 688h117v-14l-121 -119h-83zM413 688h117v-14l-121 -119h-83z" />
    <glyph glyph-name="omacron" unicode="&#x14d;" horiz-adv-x="556" 
d="M152.5 22.5q-54.5 32.5 -84.5 88.5t-30 126t30 126t84.5 88.5t125.5 32.5t126 -32.5t85 -88.5t30 -126t-30.5 -126t-85 -88.5t-125.5 -32.5t-125.5 32.5zM387.5 115q42.5 47 42.5 122q0 74 -42.5 121.5t-109.5 47.5q-44 0 -78.5 -21.5t-54 -60t-19.5 -87.5t19.5 -87.5
t54 -60t78.5 -21.5q67 0 109.5 47zM404 650v-69h-254v69h254z" />
    <glyph glyph-name="oslash" unicode="&#xf8;" horiz-adv-x="556" 
d="M487 366q32 -57 32 -129q0 -70 -30.5 -126t-85 -88.5t-125.5 -32.5q-27 0 -47 4l-18 -49l-74 27l18 48q-56 31 -87.5 88.5t-31.5 128.5q0 70 30 126t84.5 88.5t125.5 32.5q27 0 47 -4l18 49l74 -27l-18 -48q56 -31 88 -88zM142 157.5q16 -35.5 44 -58.5l112 306
q-7 1 -20 1q-44 0 -78.5 -21.5t-54 -60t-19.5 -87.5q0 -44 16 -79.5zM387.5 115q42.5 47 42.5 122q0 44 -16 79.5t-44 58.5l-112 -306q7 -1 20 -1q67 0 109.5 47z" />
    <glyph glyph-name="otilde" unicode="&#xf5;" horiz-adv-x="556" 
d="M152.5 22.5q-54.5 32.5 -84.5 88.5t-30 126t30 126t84.5 88.5t125.5 32.5t126 -32.5t85 -88.5t30 -126t-30.5 -126t-85 -88.5t-125.5 -32.5t-125.5 32.5zM387.5 115q42.5 47 42.5 122q0 74 -42.5 121.5t-109.5 47.5q-44 0 -78.5 -21.5t-54 -60t-19.5 -87.5t19.5 -87.5
t54 -60t78.5 -21.5q67 0 109.5 47zM296 566q-16 8 -33 23q-12 11 -21 16t-22 5q-14 0 -24 -9t-10 -25q0 -8 3 -16l-63 8q-2 6 -2 16q0 39 26.5 64t65.5 25q28 0 44 -8t33 -23q12 -11 21 -16t22 -5q14 0 24 9t10 25q0 9 -3 16l64 -8q2 -6 2 -16q0 -39 -27 -64t-66 -25
q-28 0 -44 8z" />
    <glyph glyph-name="oe" unicode="&#x153;" horiz-adv-x="914" 
d="M152.5 22q-54.5 32 -84.5 88t-30 126t30 126.5t84.5 89t125.5 32.5q64 0 114 -28t81 -77q30 49 77 77t107 28q95 0 153 -54.5t58 -147.5q0 -22 -6 -58h-343q1 -77 44.5 -118t106.5 -41q55 0 89 28t48 79l74 -29q-24 -72 -76.5 -112.5t-134.5 -40.5q-65 0 -114.5 26
t-80.5 77q-31 -49 -81.5 -76t-115.5 -27q-71 0 -125.5 32zM781 286q1 5 1 14q0 52 -36.5 80t-89.5 28q-55 0 -92.5 -33t-44.5 -89h262zM387.5 114.5q42.5 46.5 42.5 121.5t-42.5 122.5t-109.5 47.5q-44 0 -78.5 -21.5t-54 -60.5t-19.5 -88q0 -75 43 -121.5t109 -46.5
q67 0 109.5 46.5z" />
    <glyph glyph-name="p" unicode="p" horiz-adv-x="573" 
d="M149 474v-89q23 43 70 71t100 28q63 0 112.5 -31t76.5 -87t27 -129t-28.5 -129t-79 -87t-114.5 -31q-51 0 -93.5 22t-66.5 62v-272h-86v672h82zM171 145.5q22 -38.5 56.5 -58.5t71.5 -20q39 0 73.5 19t55.5 57.5t21 92.5t-21 92.5t-55.5 58t-73.5 19.5q-37 0 -71.5 -20.5
t-56.5 -59t-22 -90.5t22 -90.5z" />
    <glyph glyph-name="thorn" unicode="&#xfe;" horiz-adv-x="573" 
d="M153 700v-310q23 40 68 67t98 27q63 0 112.5 -31t76.5 -87t27 -129t-28.5 -129t-79 -87t-114.5 -31q-51 0 -94 22t-66 62v-272h-86v898h86zM171 145.5q22 -38.5 56.5 -58.5t71.5 -20q39 0 73.5 19t55.5 57.5t21 92.5t-21 92.5t-55.5 58t-73.5 19.5q-37 0 -71.5 -20.5
t-56.5 -59t-22 -90.5t22 -90.5z" />
    <glyph glyph-name="q" unicode="q" horiz-adv-x="573" 
d="M420 85q-54 -95 -164 -95q-63 0 -113 31.5t-77.5 87.5t-27.5 128q0 73 28.5 129t79 87t115.5 31q57 0 100 -27t63 -71v88h83v-672h-87v283zM345.5 86.5q34.5 19.5 56.5 58t22 91.5t-21 91.5t-55.5 58.5t-73.5 20t-73.5 -19.5t-55.5 -58t-21 -92.5q0 -55 21 -93t55.5 -57
t73.5 -19q37 0 71.5 19.5z" />
    <glyph glyph-name="r" unicode="r" horiz-adv-x="440" 
d="M153 474v-69q16 38 47 58.5t74 20.5q58 0 94 -37.5t36 -91.5q0 -29 -6 -53h-84q3 21 3 35q0 33 -20.5 52t-55.5 19q-40 0 -64 -29t-24 -77v-302h-86v474h86z" />
    <glyph glyph-name="racute" unicode="&#x155;" horiz-adv-x="440" 
d="M153 474v-69q16 38 47 58.5t74 20.5q58 0 94 -37.5t36 -91.5q0 -29 -6 -53h-84q3 21 3 35q0 33 -20.5 52t-55.5 19q-40 0 -64 -29t-24 -77v-302h-86v474h86zM301 688h117v-14l-121 -119h-83z" />
    <glyph glyph-name="rcaron" unicode="&#x159;" horiz-adv-x="440" 
d="M153 474v-69q16 38 47 58.5t74 20.5q58 0 94 -37.5t36 -91.5q0 -29 -6 -53h-84q3 21 3 35q0 33 -20.5 52t-55.5 19q-40 0 -64 -29t-24 -77v-302h-86v474h86zM105 661v14h95l57 -69l57 69h95v-14l-121 -106h-62z" />
    <glyph glyph-name="uni0157" unicode="&#x157;" horiz-adv-x="440" 
d="M153 474v-69q16 38 47 58.5t74 20.5q58 0 94 -37.5t36 -91.5q0 -29 -6 -53h-84q3 21 3 35q0 33 -20.5 52t-55.5 19q-40 0 -64 -29t-24 -77v-302h-86v474h86zM27 -248l10 47q20 -8 40 -8q16 0 25.5 8t9.5 24q0 15 -10 22.5t-27 7.5h-18v95h104v-121q0 -45 -23 -64.5
t-61 -19.5q-25 0 -50 9z" />
    <glyph glyph-name="s" unicode="s" horiz-adv-x="472" 
d="M107.5 26.5q-53.5 36.5 -74.5 97.5l71 37q20 -50 53.5 -72.5t87.5 -22.5q47 0 74.5 19t27.5 50q0 34 -26.5 53.5t-98.5 29.5q-163 24 -163 136q0 57 48.5 93.5t122.5 36.5q67 0 108 -27.5t63 -77.5l-67 -37q-12 36 -39 54t-65 18q-39 0 -65.5 -16.5t-26.5 -44.5
q0 -31 28.5 -46.5t98.5 -25.5q166 -23 166 -141q0 -44 -25 -78t-68.5 -53t-96.5 -19q-80 0 -133.5 36.5z" />
    <glyph glyph-name="sacute" unicode="&#x15b;" horiz-adv-x="472" 
d="M107.5 26.5q-53.5 36.5 -74.5 97.5l71 37q20 -50 53.5 -72.5t87.5 -22.5q47 0 74.5 19t27.5 50q0 34 -26.5 53.5t-98.5 29.5q-163 24 -163 136q0 57 48.5 93.5t122.5 36.5q67 0 108 -27.5t63 -77.5l-67 -37q-12 36 -39 54t-65 18q-39 0 -65.5 -16.5t-26.5 -44.5
q0 -31 28.5 -46.5t98.5 -25.5q166 -23 166 -141q0 -44 -25 -78t-68.5 -53t-96.5 -19q-80 0 -133.5 36.5zM277 688h117v-14l-121 -119h-83z" />
    <glyph glyph-name="scaron" unicode="&#x161;" horiz-adv-x="472" 
d="M107.5 26.5q-53.5 36.5 -74.5 97.5l71 37q20 -50 53.5 -72.5t87.5 -22.5q47 0 74.5 19t27.5 50q0 34 -26.5 53.5t-98.5 29.5q-163 24 -163 136q0 57 48.5 93.5t122.5 36.5q67 0 108 -27.5t63 -77.5l-67 -37q-12 36 -39 54t-65 18q-39 0 -65.5 -16.5t-26.5 -44.5
q0 -31 28.5 -46.5t98.5 -25.5q166 -23 166 -141q0 -44 -25 -78t-68.5 -53t-96.5 -19q-80 0 -133.5 36.5zM81 661v14h95l57 -69l57 69h95v-14l-121 -106h-62z" />
    <glyph glyph-name="scedilla" unicode="&#x15f;" horiz-adv-x="472" 
d="M231 -10q-7 -20 -19 -43q9 10 22.5 16.5t26.5 6.5q34 0 55.5 -20.5t21.5 -56.5q0 -38 -23.5 -59.5t-60.5 -21.5q-34 0 -58 17t-30 50l46 12q2 -15 13 -24.5t28 -9.5q18 0 28.5 10t10.5 26t-10 26.5t-29 10.5q-12 0 -23 -6t-16 -15l-46 9q10 36 18 77q-58 12 -97 45.5
t-56 83.5l71 37q20 -50 53.5 -72.5t87.5 -22.5q47 0 74.5 19t27.5 50q0 34 -26.5 53.5t-98.5 29.5q-163 24 -163 136q0 57 48.5 93.5t122.5 36.5q67 0 108 -27.5t63 -77.5l-67 -37q-12 36 -39 54t-65 18q-39 0 -65.5 -16.5t-26.5 -44.5q0 -31 28.5 -46.5t98.5 -25.5
q166 -23 166 -141q0 -44 -25 -78t-68.5 -53t-96.5 -19h-10z" />
    <glyph glyph-name="scircumflex" unicode="&#x15d;" horiz-adv-x="472" 
d="M107.5 26.5q-53.5 36.5 -74.5 97.5l71 37q20 -50 53.5 -72.5t87.5 -22.5q47 0 74.5 19t27.5 50q0 34 -26.5 53.5t-98.5 29.5q-163 24 -163 136q0 57 48.5 93.5t122.5 36.5q67 0 108 -27.5t63 -77.5l-67 -37q-12 36 -39 54t-65 18q-39 0 -65.5 -16.5t-26.5 -44.5
q0 -31 28.5 -46.5t98.5 -25.5q166 -23 166 -141q0 -44 -25 -78t-68.5 -53t-96.5 -19q-80 0 -133.5 36.5zM79 569l121 106h62l121 -106v-14h-95l-57 69l-57 -69h-95v14z" />
    <glyph glyph-name="uni0219" unicode="&#x219;" horiz-adv-x="472" 
d="M107.5 26.5q-53.5 36.5 -74.5 97.5l71 37q20 -50 53.5 -72.5t87.5 -22.5q47 0 74.5 19t27.5 50q0 34 -26.5 53.5t-98.5 29.5q-163 24 -163 136q0 57 48.5 93.5t122.5 36.5q67 0 108 -27.5t63 -77.5l-67 -37q-12 36 -39 54t-65 18q-39 0 -65.5 -16.5t-26.5 -44.5
q0 -31 28.5 -46.5t98.5 -25.5q166 -23 166 -141q0 -44 -25 -78t-68.5 -53t-96.5 -19q-80 0 -133.5 36.5zM158 -248l10 47q20 -8 40 -8q16 0 25.5 8t9.5 24q0 15 -10 22.5t-27 7.5h-18v95h104v-121q0 -45 -23 -64.5t-61 -19.5q-25 0 -50 9z" />
    <glyph glyph-name="germandbls" unicode="&#xdf;" horiz-adv-x="590" 
d="M338 69q50 0 83 36t33 106q0 51 -26.5 87t-69.5 54t-94 18v76q51 3 86.5 30t35.5 76q0 39 -24.5 60.5t-66.5 21.5q-44 0 -70 -28.5t-26 -82.5v-523h-86v370h-86v76h86v82q0 84 50 133t132 49q80 0 126.5 -41.5t46.5 -107.5q0 -52 -28.5 -87t-68.5 -54q74 -16 121.5 -69
t47.5 -138q0 -65 -26 -116t-71.5 -79t-102.5 -28q-56 0 -106 25l15 82q42 -28 89 -28z" />
    <glyph glyph-name="t" unicode="t" horiz-adv-x="448" 
d="M157 30q-40 40 -40 111v260h-94v73h94v147h87v-147h170v-73h-170v-264q0 -34 18.5 -52.5t46.5 -18.5q30 0 47.5 17.5t23.5 56.5l80 -18q-10 -64 -48.5 -98t-99.5 -34q-75 0 -115 40z" />
    <glyph glyph-name="tbar" unicode="&#x167;" horiz-adv-x="448" 
d="M420 122q-10 -64 -48.5 -98t-99.5 -34q-75 0 -115 40t-40 111v93h-78v70h78v97h-94v73h94v147h87v-147h170v-73h-170v-97h139v-70h-139v-97q0 -34 18.5 -52.5t46.5 -18.5q30 0 47.5 17.5t23.5 56.5z" />
    <glyph glyph-name="tcaron" unicode="&#x165;" horiz-adv-x="448" 
d="M157 30q-40 40 -40 111v260h-94v73h94v147h87v-147h170v-73h-170v-264q0 -34 18.5 -52.5t46.5 -18.5q30 0 47.5 17.5t23.5 56.5l80 -18q-10 -64 -48.5 -98t-99.5 -34q-75 0 -115 40zM255 577h25q39 0 39 30q0 14 -9 22t-25 8h-18v97h104v-122q0 -45 -26 -66t-67 -21h-23
v52z" />
    <glyph glyph-name="uni0163" unicode="&#x163;" horiz-adv-x="448" 
d="M255 -9q-7 -24 -19 -44q9 10 23 16.5t27 6.5q34 0 55.5 -20.5t21.5 -56.5q0 -38 -23.5 -59.5t-60.5 -21.5q-34 0 -58.5 17t-30.5 50l47 12q2 -15 13 -24.5t28 -9.5q18 0 28.5 10t10.5 26t-10 26.5t-29 10.5q-12 0 -23 -6t-16 -15l-47 9q12 38 18 81q-46 14 -69.5 50.5
t-23.5 91.5v260h-94v73h94v147h87v-147h170v-73h-170v-264q0 -34 18.5 -52.5t46.5 -18.5q30 0 47.5 17.5t23.5 56.5l80 -18q-10 -64 -48.5 -98t-99.5 -34q-11 0 -17 1z" />
    <glyph glyph-name="uni021B" unicode="&#x21b;" horiz-adv-x="448" 
d="M157 30q-40 40 -40 111v260h-94v73h94v147h87v-147h170v-73h-170v-264q0 -34 18.5 -52.5t46.5 -18.5q30 0 47.5 17.5t23.5 56.5l80 -18q-10 -64 -48.5 -98t-99.5 -34q-75 0 -115 40zM186 -248l10 47q20 -8 40 -8q16 0 25.5 8t9.5 24q0 15 -10 22.5t-27 7.5h-18v95h104
v-121q0 -45 -23 -64.5t-61 -19.5q-25 0 -50 9z" />
    <glyph glyph-name="u" unicode="u" horiz-adv-x="545" 
d="M479 474v-474h-87v80q-24 -41 -63.5 -65.5t-91.5 -24.5q-78 0 -124 46t-46 134v304h86v-284q0 -62 27.5 -93t79.5 -31q56 0 94 42.5t38 113.5v252h87z" />
    <glyph glyph-name="uacute" unicode="&#xfa;" horiz-adv-x="545" 
d="M479 474v-474h-87v80q-24 -41 -63.5 -65.5t-91.5 -24.5q-78 0 -124 46t-46 134v304h86v-284q0 -62 27.5 -93t79.5 -31q56 0 94 42.5t38 113.5v252h87zM319 688h117v-14l-121 -119h-83z" />
    <glyph glyph-name="ubreve" unicode="&#x16d;" horiz-adv-x="545" 
d="M479 474v-474h-87v80q-24 -41 -63.5 -65.5t-91.5 -24.5q-78 0 -124 46t-46 134v304h86v-284q0 -62 27.5 -93t79.5 -31q56 0 94 42.5t38 113.5v252h87zM395 663q0 -53 -35 -81t-87 -28t-87 28t-35 81q0 9 1 14h68l-1 -11q0 -22 14.5 -36t39.5 -14t39.5 14t14.5 36l-1 11
h68q1 -5 1 -14z" />
    <glyph glyph-name="ucircumflex" unicode="&#xfb;" horiz-adv-x="545" 
d="M479 474v-474h-87v80q-24 -41 -63.5 -65.5t-91.5 -24.5q-78 0 -124 46t-46 134v304h86v-284q0 -62 27.5 -93t79.5 -31q56 0 94 42.5t38 113.5v252h87zM121 569l121 106h62l121 -106v-14h-95l-57 69l-57 -69h-95v14z" />
    <glyph glyph-name="udieresis" unicode="&#xfc;" horiz-adv-x="545" 
d="M479 474v-474h-87v80q-24 -41 -63.5 -65.5t-91.5 -24.5q-78 0 -124 46t-46 134v304h86v-284q0 -62 27.5 -93t79.5 -31q56 0 94 42.5t38 113.5v252h87zM140 666h97v-99h-97v99zM307 666h97v-99h-97v99z" />
    <glyph glyph-name="ugrave" unicode="&#xf9;" horiz-adv-x="545" 
d="M479 474v-474h-87v80q-24 -41 -63.5 -65.5t-91.5 -24.5q-78 0 -124 46t-46 134v304h86v-284q0 -62 27.5 -93t79.5 -31q56 0 94 42.5t38 113.5v252h87zM110 674v14h117l87 -133h-83z" />
    <glyph glyph-name="uhungarumlaut" unicode="&#x171;" horiz-adv-x="545" 
d="M479 474v-474h-87v80q-24 -41 -63.5 -65.5t-91.5 -24.5q-78 0 -124 46t-46 134v304h86v-284q0 -62 27.5 -93t79.5 -31q56 0 94 42.5t38 113.5v252h87zM229 688h117v-14l-121 -119h-83zM408 688h117v-14l-121 -119h-83z" />
    <glyph glyph-name="umacron" unicode="&#x16b;" horiz-adv-x="545" 
d="M479 474v-474h-87v80q-24 -41 -63.5 -65.5t-91.5 -24.5q-78 0 -124 46t-46 134v304h86v-284q0 -62 27.5 -93t79.5 -31q56 0 94 42.5t38 113.5v252h87zM399 650v-69h-254v69h254z" />
    <glyph glyph-name="uogonek" unicode="&#x173;" horiz-adv-x="545" 
d="M520 -167q-21 -11 -38.5 -16t-41.5 -5q-40 0 -64 24t-24 59q0 29 16.5 56.5t51.5 48.5h-28v80q-24 -41 -63.5 -65.5t-91.5 -24.5q-78 0 -124 46t-46 134v304h86v-284q0 -62 27.5 -93t79.5 -31q56 0 94 42.5t38 113.5v252h87v-474q-31 -19 -46 -38t-15 -41
q0 -17 11.5 -27.5t29.5 -10.5q17 0 33 11z" />
    <glyph glyph-name="uring" unicode="&#x16f;" horiz-adv-x="545" 
d="M479 474v-474h-87v80q-24 -41 -63.5 -65.5t-91.5 -24.5q-78 0 -124 46t-46 134v304h86v-284q0 -62 27.5 -93t79.5 -31q56 0 94 42.5t38 113.5v252h87zM210.5 564.5q-25.5 25.5 -25.5 62.5t25.5 63t62.5 26t63 -26t26 -63t-26 -62.5t-63 -25.5t-62.5 25.5zM300.5 599.5
q11.5 11.5 11.5 27.5t-11.5 27.5t-27.5 11.5t-27.5 -11.5t-11.5 -27.5t11.5 -27.5t27.5 -11.5t27.5 11.5z" />
    <glyph glyph-name="utilde" unicode="&#x169;" horiz-adv-x="545" 
d="M479 474v-474h-87v80q-24 -41 -63.5 -65.5t-91.5 -24.5q-78 0 -124 46t-46 134v304h86v-284q0 -62 27.5 -93t79.5 -31q56 0 94 42.5t38 113.5v252h87zM291 566q-16 8 -33 23q-12 11 -21 16t-22 5q-14 0 -24 -9t-10 -25q0 -8 3 -16l-63 8q-2 6 -2 16q0 39 26.5 64t65.5 25
q28 0 44 -8t33 -23q12 -11 21 -16t22 -5q14 0 24 9t10 25q0 9 -3 16l64 -8q2 -6 2 -16q0 -39 -27 -64t-66 -25q-28 0 -44 8z" />
    <glyph glyph-name="v" unicode="v" horiz-adv-x="521" 
d="M261 84l150 390h92l-190 -474h-105l-189 474h91z" />
    <glyph glyph-name="w" unicode="w" horiz-adv-x="741" 
d="M213 84l107 390h101l107 -390l111 390h85l-141 -474h-107l-105 364l-105 -364h-108l-141 474h85z" />
    <glyph glyph-name="wacute" unicode="&#x1e83;" horiz-adv-x="741" 
d="M213 84l107 390h101l107 -390l111 390h85l-141 -474h-107l-105 364l-105 -364h-108l-141 474h85zM417 688h117v-14l-121 -119h-83z" />
    <glyph glyph-name="wcircumflex" unicode="&#x175;" horiz-adv-x="741" 
d="M213 84l107 390h101l107 -390l111 390h85l-141 -474h-107l-105 364l-105 -364h-108l-141 474h85zM219 569l121 106h62l121 -106v-14h-95l-57 69l-57 -69h-95v14z" />
    <glyph glyph-name="wdieresis" unicode="&#x1e85;" horiz-adv-x="741" 
d="M213 84l107 390h101l107 -390l111 390h85l-141 -474h-107l-105 364l-105 -364h-108l-141 474h85zM238 666h97v-99h-97v99zM405 666h97v-99h-97v99z" />
    <glyph glyph-name="wgrave" unicode="&#x1e81;" horiz-adv-x="741" 
d="M213 84l107 390h101l107 -390l111 390h85l-141 -474h-107l-105 364l-105 -364h-108l-141 474h85zM208 674v14h117l87 -133h-83z" />
    <glyph glyph-name="x" unicode="x" horiz-adv-x="468" 
d="M282 251l173 -251h-99l-122 183l-122 -183h-99l174 250l-154 224h101l100 -154l99 154h101z" />
    <glyph glyph-name="y" unicode="y" horiz-adv-x="481" 
d="M468 474l-304 -672h-92l117 259l-181 413h94l133 -312l141 312h92z" />
    <glyph glyph-name="yacute" unicode="&#xfd;" horiz-adv-x="481" 
d="M468 474l-304 -672h-92l117 259l-181 413h94l133 -312l141 312h92zM281 688h117v-14l-121 -119h-83z" />
    <glyph glyph-name="ycircumflex" unicode="&#x177;" horiz-adv-x="481" 
d="M468 474l-304 -672h-92l117 259l-181 413h94l133 -312l141 312h92zM83 569l121 106h62l121 -106v-14h-95l-57 69l-57 -69h-95v14z" />
    <glyph glyph-name="ydieresis" unicode="&#xff;" horiz-adv-x="481" 
d="M468 474l-304 -672h-92l117 259l-181 413h94l133 -312l141 312h92zM102 666h97v-99h-97v99zM269 666h97v-99h-97v99z" />
    <glyph glyph-name="ygrave" unicode="&#x1ef3;" horiz-adv-x="481" 
d="M468 474l-304 -672h-92l117 259l-181 413h94l133 -312l141 312h92zM72 674v14h117l87 -133h-83z" />
    <glyph glyph-name="z" unicode="z" horiz-adv-x="495" 
d="M42 0v73l293 323h-288v78h396v-73l-293 -323h298v-78h-406z" />
    <glyph glyph-name="zacute" unicode="&#x17a;" horiz-adv-x="495" 
d="M42 0v73l293 323h-288v78h396v-73l-293 -323h298v-78h-406zM290 688h117v-14l-121 -119h-83z" />
    <glyph glyph-name="zcaron" unicode="&#x17e;" horiz-adv-x="495" 
d="M42 0v73l293 323h-288v78h396v-73l-293 -323h298v-78h-406zM95 661v14h95l57 -69l57 69h95v-14l-121 -106h-62z" />
    <glyph glyph-name="zdotaccent" unicode="&#x17c;" horiz-adv-x="495" 
d="M42 0v73l293 323h-288v78h396v-73l-293 -323h298v-78h-406zM196 663h96v-101h-96v101z" />
    <glyph glyph-name="uni01B6" unicode="&#x1b6;" horiz-adv-x="495" 
d="M42 73l119 132h-70v70h135l109 121h-288v78h396v-73l-114 -126h66v-70h-130l-115 -127h298v-78h-406v73z" />
    <glyph glyph-name="adieresis.ss01" horiz-adv-x="515" 
d="M90.5 29.5q-45.5 39.5 -45.5 105.5q0 73 49.5 110t126.5 37q53 0 101 -15l43 -12v49q0 52 -33 79.5t-86 27.5q-51 0 -84 -26t-42 -72l-78 22q14 68 67.5 108.5t136.5 40.5q97 0 149.5 -49.5t52.5 -137.5v-297h-83v75q-18 -38 -62 -61.5t-101 -23.5q-66 0 -111.5 39.5z
M327.5 95.5q37.5 29.5 37.5 81.5v10l-44 13q-50 15 -88 15q-46 0 -72.5 -19t-26.5 -56q0 -33 25 -53.5t72 -20.5q59 0 96.5 29.5zM119.5 576.5q-16.5 16.5 -16.5 39.5t16.5 39.5t39.5 16.5t39.5 -16.5t16.5 -39.5t-16.5 -39.5t-39.5 -16.5t-39.5 16.5zM292.5 576.5
q-16.5 16.5 -16.5 39.5t16.5 39.5t39.5 16.5t39.5 -16.5t16.5 -39.5t-16.5 -39.5t-39.5 -16.5t-39.5 16.5z" />
    <glyph glyph-name="cdotaccent.ss01" horiz-adv-x="550" 
d="M145 148q23 -40 60.5 -61t79.5 -21q69 0 106 37.5t51 104.5l77 -29q-20 -90 -81.5 -139.5t-150.5 -49.5q-74 0 -130.5 31t-87.5 88t-31 131q0 70 32.5 126t87 87t118.5 31q86 0 144.5 -45t75.5 -126l-79 -24q-11 56 -47.5 87.5t-94.5 31.5q-37 0 -72 -19t-58 -57t-23 -92
q0 -52 23 -92zM232.5 653.5q16.5 16.5 40.5 16.5q25 0 41.5 -16.5t16.5 -41.5t-16.5 -41.5t-41.5 -16.5q-24 0 -40.5 16.5t-16.5 41.5t16.5 41.5z" />
    <glyph glyph-name="dcaron.ss01" horiz-adv-x="682" 
d="M144.5 20.5q-50.5 30.5 -78.5 86t-28 127.5q0 73 28 130t78 88.5t114 31.5q55 0 97 -26t65 -70v312h87v-700h-83v85q-24 -43 -67 -69t-97 -26q-65 0 -115.5 30.5zM345.5 86.5q34.5 19.5 56.5 58t22 90.5t-22 91t-56.5 59.5t-71.5 20.5q-39 0 -73 -20.5t-55.5 -59
t-21.5 -91.5t21 -91t55.5 -57.5t73.5 -19.5q37 0 71.5 19.5zM560 543h43q12 0 19 5t7 15q0 16 -23 22q-22 4 -35.5 21t-13.5 39q0 26 17.5 44t44.5 18q28 0 45.5 -19t17.5 -50v-59q0 -45 -22 -66.5t-61 -21.5h-39v52z" />
    <glyph glyph-name="edieresis.ss01" horiz-adv-x="515" 
d="M366 93.5q34 27.5 48 78.5l75 -29q-24 -72 -77 -112.5t-135 -40.5q-69 0 -123.5 30.5t-85 87t-30.5 132.5q0 68 28 123.5t79.5 88t118.5 32.5q95 0 153 -54.5t58 -147.5q0 -31 -6 -58h-343q1 -77 44.5 -117.5t106.5 -40.5q55 0 89 27.5zM170.5 375q-37.5 -33 -44.5 -89
h263l1 14q0 51 -36.5 79.5t-90.5 28.5q-55 0 -92.5 -33zM135.5 576.5q-16.5 16.5 -16.5 39.5t16.5 39.5t39.5 16.5t39.5 -16.5t16.5 -39.5t-16.5 -39.5t-39.5 -16.5t-39.5 16.5zM308.5 576.5q-16.5 16.5 -16.5 39.5t16.5 39.5t39.5 16.5t39.5 -16.5t16.5 -39.5t-16.5 -39.5
t-39.5 -16.5t-39.5 16.5z" />
    <glyph glyph-name="edotaccent.ss01" horiz-adv-x="522" 
d="M366 93.5q34 27.5 48 78.5l75 -29q-24 -72 -77 -112.5t-135 -40.5q-69 0 -123.5 30.5t-85 87t-30.5 132.5q0 68 28 123.5t79.5 88t118.5 32.5q95 0 153 -54.5t58 -147.5q0 -31 -6 -58h-343q1 -77 44.5 -117.5t106.5 -40.5q55 0 89 27.5zM170.5 375q-37.5 -33 -44.5 -89
h263l1 14q0 51 -36.5 79.5t-90.5 28.5q-55 0 -92.5 -33zM221.5 653.5q16.5 16.5 40.5 16.5q25 0 41.5 -16.5t16.5 -41.5t-16.5 -41.5t-41.5 -16.5q-24 0 -40.5 16.5t-16.5 41.5t16.5 41.5z" />
    <glyph glyph-name="uni0123.ss01" horiz-adv-x="576" 
d="M65 -62l78 33q29 -103 140 -103q69 0 104 44t35 124v53q-21 -40 -63.5 -64.5t-101.5 -24.5q-60 0 -110 29t-79.5 82t-29.5 124q0 73 29.5 130t81 88t113.5 31q108 0 160 -81v71h87v-432q0 -112 -59 -181t-167 -69q-172 0 -218 146zM353 97q34 21 53.5 58.5t19.5 85.5
t-19.5 86t-53.5 59.5t-77 21.5q-66 0 -109 -46.5t-43 -127.5q0 -73 43 -115.5t109 -42.5q43 0 77 21zM242.5 564q-17.5 18 -17.5 43v68q0 87 76 87h49v-45h-45q-13 0 -21 -7t-8 -19q0 -10 6 -15.5t19 -9.5q20 -5 33 -21.5t13 -37.5q0 -26 -17.5 -43.5t-43.5 -17.5t-43.5 18z
" />
    <glyph glyph-name="gdotaccent.ss01" horiz-adv-x="576" 
d="M65 -62l78 33q29 -103 140 -103q69 0 104 44t35 124v53q-21 -40 -63.5 -64.5t-101.5 -24.5q-60 0 -110 29t-79.5 82t-29.5 124q0 73 29.5 130t81 88t113.5 31q108 0 160 -81v71h87v-432q0 -112 -59 -181t-167 -69q-172 0 -218 146zM353 97q34 21 53.5 58.5t19.5 85.5
t-19.5 86t-53.5 59.5t-77 21.5q-66 0 -109 -46.5t-43 -127.5q0 -73 43 -115.5t109 -42.5q43 0 77 21zM243.5 653.5q16.5 16.5 40.5 16.5q25 0 41.5 -16.5t16.5 -41.5t-16.5 -41.5t-41.5 -16.5q-24 0 -40.5 16.5t-16.5 41.5t16.5 41.5z" />
    <glyph glyph-name="i.ss01" horiz-adv-x="220" 
d="M153 474v-474h-86v474h86zM67.5 653.5q16.5 16.5 40.5 16.5q25 0 41.5 -16.5t16.5 -41.5t-16.5 -41.5t-41.5 -16.5q-24 0 -40.5 16.5t-16.5 41.5t16.5 41.5z" />
    <glyph glyph-name="idieresis.ss01" horiz-adv-x="220" 
d="M153 474v-474h-86v474h86zM-15.5 576.5q-16.5 16.5 -16.5 39.5t16.5 39.5t39.5 16.5t39.5 -16.5t16.5 -39.5t-16.5 -39.5t-39.5 -16.5t-39.5 16.5zM157.5 576.5q-16.5 16.5 -16.5 39.5t16.5 39.5t39.5 16.5t39.5 -16.5t16.5 -39.5t-16.5 -39.5t-39.5 -16.5t-39.5 16.5z
" />
    <glyph glyph-name="i.loclTRK.ss01" horiz-adv-x="220" 
d="M153 474v-474h-86v474h86zM67.5 653.5q16.5 16.5 40.5 16.5q25 0 41.5 -16.5t16.5 -41.5t-16.5 -41.5t-41.5 -16.5q-24 0 -40.5 16.5t-16.5 41.5t16.5 41.5z" />
    <glyph glyph-name="ij.ss01" horiz-adv-x="440" 
d="M153 474v-474h-86v474h86zM67.5 653.5q16.5 16.5 40.5 16.5q25 0 41.5 -16.5t16.5 -41.5t-16.5 -41.5t-41.5 -16.5q-24 0 -40.5 16.5t-16.5 41.5t16.5 41.5zM287 474h86v-672h-86v672zM287.5 653.5q16.5 16.5 40.5 16.5q25 0 41.5 -16.5t16.5 -41.5t-16.5 -41.5
t-41.5 -16.5q-24 0 -40.5 16.5t-16.5 41.5t16.5 41.5z" />
    <glyph glyph-name="iogonek.ss01" horiz-adv-x="220" 
d="M153 474v-474h-86v474h86zM67.5 653.5q16.5 16.5 40.5 16.5q25 0 41.5 -16.5t16.5 -41.5t-16.5 -41.5t-41.5 -16.5q-24 0 -40.5 16.5t-16.5 41.5t16.5 41.5zM156.5 -183q-17.5 -5 -41.5 -5q-40 0 -64 24t-24 59q0 29 16.5 56.5t51.5 48.5h59q-30 -19 -45.5 -38t-15.5 -41
q0 -17 11.5 -27.5t29.5 -10.5q17 0 34 11l27 -61q-21 -11 -38.5 -16z" />
    <glyph glyph-name="j.ss01" horiz-adv-x="220" 
d="M67 474h86v-672h-86v672zM67.5 653.5q16.5 16.5 40.5 16.5q25 0 41.5 -16.5t16.5 -41.5t-16.5 -41.5t-41.5 -16.5q-24 0 -40.5 16.5t-16.5 41.5t16.5 41.5z" />
    <glyph glyph-name="uni0137.ss01" horiz-adv-x="505" 
d="M481 0h-105l-150 218l-73 -77v-141h-86v700h86v-448l203 222h110l-180 -192zM192 -249l10 48q20 -9 37 -9q33 0 33 26q0 9 -5.5 14t-20.5 12q-43 16 -43 55q0 26 16.5 42.5t40.5 16.5q25 0 43 -18t18 -43v-68q0 -85 -83 -85q-24 0 -46 9z" />
    <glyph glyph-name="lcaron.ss01" horiz-adv-x="328" 
d="M67 700h86v-700h-86v700zM207 543h43q12 0 19 5t7 15q0 16 -23 22q-22 4 -35.5 21t-13.5 39q0 26 17.5 44t44.5 18q28 0 45.5 -19t17.5 -50v-59q0 -45 -22 -66.5t-61 -21.5h-39v52z" />
    <glyph glyph-name="uni013C.ss01" horiz-adv-x="220" 
d="M67 700h86v-700h-86v700zM45 -249l10 48q20 -9 37 -9q33 0 33 26q0 9 -5.5 14t-20.5 12q-43 16 -43 55q0 26 16.5 42.5t40.5 16.5q25 0 43 -18t18 -43v-68q0 -85 -83 -85q-24 0 -46 9z" />
    <glyph glyph-name="ldot.ss01" horiz-adv-x="400" 
d="M67 700h86v-700h-86v700zM267 307q-18 18 -18 43q0 26 18 43.5t43 17.5q26 0 43.5 -17.5t17.5 -43.5q0 -25 -17.5 -43t-43.5 -18q-25 0 -43 18z" />
    <glyph glyph-name="uni0146.ss01" horiz-adv-x="543" 
d="M67 0v474h86v-77q25 41 65.5 64t90.5 23q76 0 121.5 -46.5t45.5 -129.5v-308h-87v282q0 62 -28.5 94t-79.5 32q-54 0 -91 -40t-37 -108v-260h-86zM205 -249l10 48q20 -9 37 -9q33 0 33 26q0 9 -5.5 14t-20.5 12q-43 16 -43 55q0 26 16.5 42.5t40.5 16.5q25 0 43 -18
t18 -43v-68q0 -85 -83 -85q-24 0 -46 9z" />
    <glyph glyph-name="odieresis.ss01" horiz-adv-x="544" 
d="M152.5 22.5q-54.5 32.5 -84.5 88.5t-30 126t30 126t84.5 88.5t125.5 32.5t126 -32.5t85 -88.5t30 -126t-30.5 -126t-85 -88.5t-125.5 -32.5t-125.5 32.5zM387.5 115q42.5 47 42.5 122q0 74 -42.5 121.5t-109.5 47.5q-44 0 -78.5 -21.5t-54 -60t-19.5 -87.5t19.5 -87.5
t54 -60t78.5 -21.5q67 0 109.5 47zM145.5 576.5q-16.5 16.5 -16.5 39.5t16.5 39.5t39.5 16.5t39.5 -16.5t16.5 -39.5t-16.5 -39.5t-39.5 -16.5t-39.5 16.5zM318.5 576.5q-16.5 16.5 -16.5 39.5t16.5 39.5t39.5 16.5t39.5 -16.5t16.5 -39.5t-16.5 -39.5t-39.5 -16.5
t-39.5 16.5z" />
    <glyph glyph-name="uni0157.ss01" horiz-adv-x="440" 
d="M153 474v-69q16 38 47 58.5t74 20.5q58 0 94 -37.5t36 -91.5q0 -29 -6 -53h-84q3 21 3 35q0 33 -20.5 52t-55.5 19q-40 0 -64 -29t-24 -77v-302h-86v474h86zM45 -249l10 48q20 -9 37 -9q33 0 33 26q0 9 -5.5 14t-20.5 12q-43 16 -43 55q0 26 16.5 42.5t40.5 16.5
q25 0 43 -18t18 -43v-68q0 -85 -83 -85q-24 0 -46 9z" />
    <glyph glyph-name="uni0219.ss01" horiz-adv-x="472" 
d="M107.5 26.5q-53.5 36.5 -74.5 97.5l71 37q20 -50 53.5 -72.5t87.5 -22.5q47 0 74.5 19t27.5 50q0 34 -26.5 53.5t-98.5 29.5q-163 24 -163 136q0 57 48.5 93.5t122.5 36.5q67 0 108 -27.5t63 -77.5l-67 -37q-12 36 -39 54t-65 18q-39 0 -65.5 -16.5t-26.5 -44.5
q0 -31 28.5 -46.5t98.5 -25.5q166 -23 166 -141q0 -44 -25 -78t-68.5 -53t-96.5 -19q-80 0 -133.5 36.5zM176 -249l10 48q20 -9 37 -9q33 0 33 26q0 9 -5.5 14t-20.5 12q-43 16 -43 55q0 26 16.5 42.5t40.5 16.5q25 0 43 -18t18 -43v-68q0 -85 -83 -85q-24 0 -46 9z" />
    <glyph glyph-name="tcaron.ss01" horiz-adv-x="448" 
d="M157 30q-40 40 -40 111v260h-94v73h94v147h87v-147h170v-73h-170v-264q0 -34 18.5 -52.5t46.5 -18.5q30 0 47.5 17.5t23.5 56.5l80 -18q-10 -64 -48.5 -98t-99.5 -34q-75 0 -115 40zM261 577h43q12 0 19 5t7 15q0 16 -23 22q-22 4 -35.5 21t-13.5 39q0 26 17.5 44
t44.5 18q28 0 45.5 -19t17.5 -50v-59q0 -45 -22 -66.5t-61 -21.5h-39v52z" />
    <glyph glyph-name="uni021B.ss01" horiz-adv-x="448" 
d="M157 30q-40 40 -40 111v260h-94v73h94v147h87v-147h170v-73h-170v-264q0 -34 18.5 -52.5t46.5 -18.5q30 0 47.5 17.5t23.5 56.5l80 -18q-10 -64 -48.5 -98t-99.5 -34q-75 0 -115 40zM204 -249l10 48q20 -9 37 -9q33 0 33 26q0 9 -5.5 14t-20.5 12q-43 16 -43 55
q0 26 16.5 42.5t40.5 16.5q25 0 43 -18t18 -43v-68q0 -85 -83 -85q-24 0 -46 9z" />
    <glyph glyph-name="udieresis.ss01" horiz-adv-x="528" 
d="M479 474v-474h-87v80q-24 -41 -63.5 -65.5t-91.5 -24.5q-78 0 -124 46t-46 134v304h86v-284q0 -62 27.5 -93t79.5 -31q56 0 94 42.5t38 113.5v252h87zM137.5 576.5q-16.5 16.5 -16.5 39.5t16.5 39.5t39.5 16.5t39.5 -16.5t16.5 -39.5t-16.5 -39.5t-39.5 -16.5t-39.5 16.5
zM310.5 576.5q-16.5 16.5 -16.5 39.5t16.5 39.5t39.5 16.5t39.5 -16.5t16.5 -39.5t-16.5 -39.5t-39.5 -16.5t-39.5 16.5z" />
    <glyph glyph-name="wdieresis.ss01" horiz-adv-x="741" 
d="M213 84l107 390h101l107 -390l111 390h85l-141 -474h-107l-105 364l-105 -364h-108l-141 474h85zM244.5 576.5q-16.5 16.5 -16.5 39.5t16.5 39.5t39.5 16.5t39.5 -16.5t16.5 -39.5t-16.5 -39.5t-39.5 -16.5t-39.5 16.5zM417.5 576.5q-16.5 16.5 -16.5 39.5t16.5 39.5
t39.5 16.5t39.5 -16.5t16.5 -39.5t-16.5 -39.5t-39.5 -16.5t-39.5 16.5z" />
    <glyph glyph-name="ydieresis.ss01" horiz-adv-x="484" 
d="M468 474l-304 -672h-92l117 259l-181 413h94l133 -312l141 312h92zM115.5 576.5q-16.5 16.5 -16.5 39.5t16.5 39.5t39.5 16.5t39.5 -16.5t16.5 -39.5t-16.5 -39.5t-39.5 -16.5t-39.5 16.5zM288.5 576.5q-16.5 16.5 -16.5 39.5t16.5 39.5t39.5 16.5t39.5 -16.5t16.5 -39.5
t-16.5 -39.5t-39.5 -16.5t-39.5 16.5z" />
    <glyph glyph-name="zdotaccent.ss01" horiz-adv-x="495" 
d="M42 0v73l293 323h-288v78h396v-73l-293 -323h298v-78h-406zM201.5 653.5q16.5 16.5 40.5 16.5q25 0 41.5 -16.5t16.5 -41.5t-16.5 -41.5t-41.5 -16.5q-24 0 -40.5 16.5t-16.5 41.5t16.5 41.5z" />
    <glyph glyph-name="a.ss02" horiz-adv-x="584" 
d="M149 21q-52 31 -81.5 86.5t-29.5 126.5q0 73 29.5 130t81 88.5t115.5 31.5q58 0 101 -24.5t65 -67.5v82h87v-474h-82v85q-60 -95 -169 -95q-65 0 -117 31zM354 86.5q36 19.5 58 57.5t22 91q0 52 -22.5 91t-58 59.5t-74.5 20.5q-40 0 -76 -20.5t-57.5 -59t-21.5 -91.5
t21.5 -91t57 -57.5t76.5 -19.5q39 0 75 19.5z" />
    <glyph glyph-name="aacute.ss02" horiz-adv-x="584" 
d="M149 21q-52 31 -81.5 86.5t-29.5 126.5q0 73 29.5 130t81 88.5t115.5 31.5q58 0 101 -24.5t65 -67.5v82h87v-474h-82v85q-60 -95 -169 -95q-65 0 -117 31zM354 86.5q36 19.5 58 57.5t22 91q0 52 -22.5 91t-58 59.5t-74.5 20.5q-40 0 -76 -20.5t-57.5 -59t-21.5 -91.5
t21.5 -91t57 -57.5t76.5 -19.5q39 0 75 19.5zM329 688h117v-14l-121 -119h-83z" />
    <glyph glyph-name="abreve.ss02" horiz-adv-x="584" 
d="M149 21q-52 31 -81.5 86.5t-29.5 126.5q0 73 29.5 130t81 88.5t115.5 31.5q58 0 101 -24.5t65 -67.5v82h87v-474h-82v85q-60 -95 -169 -95q-65 0 -117 31zM354 86.5q36 19.5 58 57.5t22 91q0 52 -22.5 91t-58 59.5t-74.5 20.5q-40 0 -76 -20.5t-57.5 -59t-21.5 -91.5
t21.5 -91t57 -57.5t76.5 -19.5q39 0 75 19.5zM405 663q0 -53 -35 -81t-87 -28t-87 28t-35 81q0 9 1 14h68l-1 -11q0 -22 14.5 -36t39.5 -14t39.5 14t14.5 36l-1 11h68q1 -5 1 -14z" />
    <glyph glyph-name="acircumflex.ss02" horiz-adv-x="584" 
d="M149 21q-52 31 -81.5 86.5t-29.5 126.5q0 73 29.5 130t81 88.5t115.5 31.5q58 0 101 -24.5t65 -67.5v82h87v-474h-82v85q-60 -95 -169 -95q-65 0 -117 31zM354 86.5q36 19.5 58 57.5t22 91q0 52 -22.5 91t-58 59.5t-74.5 20.5q-40 0 -76 -20.5t-57.5 -59t-21.5 -91.5
t21.5 -91t57 -57.5t76.5 -19.5q39 0 75 19.5zM131 569l121 106h62l121 -106v-14h-95l-57 69l-57 -69h-95v14z" />
    <glyph glyph-name="adieresis.ss02" horiz-adv-x="584" 
d="M149 21q-52 31 -81.5 86.5t-29.5 126.5q0 73 29.5 130t81 88.5t115.5 31.5q58 0 101 -24.5t65 -67.5v82h87v-474h-82v85q-60 -95 -169 -95q-65 0 -117 31zM354 86.5q36 19.5 58 57.5t22 91q0 52 -22.5 91t-58 59.5t-74.5 20.5q-40 0 -76 -20.5t-57.5 -59t-21.5 -91.5
t21.5 -91t57 -57.5t76.5 -19.5q39 0 75 19.5zM150 666h97v-99h-97v99zM317 666h97v-99h-97v99z" />
    <glyph glyph-name="agrave.ss02" horiz-adv-x="584" 
d="M149 21q-52 31 -81.5 86.5t-29.5 126.5q0 73 29.5 130t81 88.5t115.5 31.5q58 0 101 -24.5t65 -67.5v82h87v-474h-82v85q-60 -95 -169 -95q-65 0 -117 31zM354 86.5q36 19.5 58 57.5t22 91q0 52 -22.5 91t-58 59.5t-74.5 20.5q-40 0 -76 -20.5t-57.5 -59t-21.5 -91.5
t21.5 -91t57 -57.5t76.5 -19.5q39 0 75 19.5zM120 674v14h117l87 -133h-83z" />
    <glyph glyph-name="amacron.ss02" horiz-adv-x="584" 
d="M149 21q-52 31 -81.5 86.5t-29.5 126.5q0 73 29.5 130t81 88.5t115.5 31.5q58 0 101 -24.5t65 -67.5v82h87v-474h-82v85q-60 -95 -169 -95q-65 0 -117 31zM354 86.5q36 19.5 58 57.5t22 91q0 52 -22.5 91t-58 59.5t-74.5 20.5q-40 0 -76 -20.5t-57.5 -59t-21.5 -91.5
t21.5 -91t57 -57.5t76.5 -19.5q39 0 75 19.5zM409 650v-69h-254v69h254z" />
    <glyph glyph-name="aogonek.ss02" horiz-adv-x="584" 
d="M558 -167q-20 -11 -38 -16t-41 -5q-40 0 -64.5 24t-24.5 59q0 29 16.5 56.5t51.5 48.5h-23v85q-60 -95 -169 -95q-65 0 -117 31t-81.5 86.5t-29.5 126.5q0 73 29.5 130t81 88.5t115.5 31.5q58 0 101 -24.5t65 -67.5v82h87v-474q-30 -19 -45.5 -38t-15.5 -41
q0 -17 11.5 -27.5t29.5 -10.5q17 0 34 11zM354 86.5q36 19.5 58 57.5t22 91q0 52 -22.5 91t-58 59.5t-74.5 20.5q-40 0 -76 -20.5t-57.5 -59t-21.5 -91.5t21.5 -91t57 -57.5t76.5 -19.5q39 0 75 19.5z" />
    <glyph glyph-name="aring.ss02" horiz-adv-x="584" 
d="M149 21q-52 31 -81.5 86.5t-29.5 126.5q0 73 29.5 130t81 88.5t115.5 31.5q58 0 101 -24.5t65 -67.5v82h87v-474h-82v85q-60 -95 -169 -95q-65 0 -117 31zM354 86.5q36 19.5 58 57.5t22 91q0 52 -22.5 91t-58 59.5t-74.5 20.5q-40 0 -76 -20.5t-57.5 -59t-21.5 -91.5
t21.5 -91t57 -57.5t76.5 -19.5q39 0 75 19.5zM220.5 564.5q-25.5 25.5 -25.5 62.5t25.5 63t62.5 26t63 -26t26 -63t-26 -62.5t-63 -25.5t-62.5 25.5zM310.5 599.5q11.5 11.5 11.5 27.5t-11.5 27.5t-27.5 11.5t-27.5 -11.5t-11.5 -27.5t11.5 -27.5t27.5 -11.5t27.5 11.5z" />
    <glyph glyph-name="aringacute.ss02" horiz-adv-x="584" 
d="M220.5 564.5q-25.5 25.5 -25.5 62.5q0 29 17 52.5t43 32.5l74 112h117v-14l-113 -110q18 -12 28.5 -31.5t10.5 -41.5q0 -37 -26 -62.5t-63 -25.5t-62.5 25.5zM310.5 599.5q11.5 11.5 11.5 27.5t-11.5 27.5t-27.5 11.5t-27.5 -11.5t-11.5 -27.5t11.5 -27.5t27.5 -11.5
t27.5 11.5zM517 474v-474h-82v85q-60 -95 -169 -95q-65 0 -117 31t-81.5 86.5t-29.5 126.5q0 73 29.5 130t81 88.5t115.5 31.5q58 0 101 -24.5t65 -67.5v82h87zM354 86.5q36 19.5 58 57.5t22 91q0 52 -22.5 91t-58 59.5t-74.5 20.5q-40 0 -76 -20.5t-57.5 -59t-21.5 -91.5
t21.5 -91t57 -57.5t76.5 -19.5q39 0 75 19.5z" />
    <glyph glyph-name="atilde.ss02" horiz-adv-x="584" 
d="M149 21q-52 31 -81.5 86.5t-29.5 126.5q0 73 29.5 130t81 88.5t115.5 31.5q58 0 101 -24.5t65 -67.5v82h87v-474h-82v85q-60 -95 -169 -95q-65 0 -117 31zM354 86.5q36 19.5 58 57.5t22 91q0 52 -22.5 91t-58 59.5t-74.5 20.5q-40 0 -76 -20.5t-57.5 -59t-21.5 -91.5
t21.5 -91t57 -57.5t76.5 -19.5q39 0 75 19.5zM301 566q-16 8 -33 23q-12 11 -21 16t-22 5q-14 0 -24 -9t-10 -25q0 -8 3 -16l-63 8q-2 6 -2 16q0 39 26.5 64t65.5 25q28 0 44 -8t33 -23q12 -11 21 -16t22 -5q14 0 24 9t10 25q0 9 -3 16l64 -8q2 -6 2 -16q0 -39 -27 -64
t-66 -25q-28 0 -44 8z" />
    <glyph glyph-name="ae.ss02" horiz-adv-x="918" 
d="M149 21q-52 31 -81.5 86.5t-29.5 126.5q0 73 29.5 130t81 88.5t115.5 31.5q58 0 101 -24.5t65 -67.5v82h87v-66q21 36 61 56t84 20q94 0 152 -54.5t58 -147.5q0 -22 -6 -58h-343q1 -77 44 -118t107 -41q55 0 89 28t48 79l74 -29q-24 -72 -76.5 -112.5t-134.5 -40.5
q-102 0 -157 78v-68h-82v85q-60 -95 -169 -95q-65 0 -117 31zM785 286q1 5 1 14q0 52 -36.5 80t-89.5 28q-55 0 -92.5 -33t-44.5 -89h262zM354 86.5q36 19.5 58 57.5t22 91q0 52 -22.5 91t-58 59.5t-74.5 20.5q-40 0 -76 -20.5t-57.5 -59t-21.5 -91.5t21.5 -91t57 -57.5
t76.5 -19.5q39 0 75 19.5z" />
    <glyph glyph-name="aeacute.ss02" horiz-adv-x="918" 
d="M149 21q-52 31 -81.5 86.5t-29.5 126.5q0 73 29.5 130t81 88.5t115.5 31.5q58 0 101 -24.5t65 -67.5v82h87v-66q21 36 61 56t84 20q94 0 152 -54.5t58 -147.5q0 -22 -6 -58h-343q1 -77 44 -118t107 -41q55 0 89 28t48 79l74 -29q-24 -72 -76.5 -112.5t-134.5 -40.5
q-102 0 -157 78v-68h-82v85q-60 -95 -169 -95q-65 0 -117 31zM785 286q1 5 1 14q0 52 -36.5 80t-89.5 28q-55 0 -92.5 -33t-44.5 -89h262zM354 86.5q36 19.5 58 57.5t22 91q0 52 -22.5 91t-58 59.5t-74.5 20.5q-40 0 -76 -20.5t-57.5 -59t-21.5 -91.5t21.5 -91t57 -57.5
t76.5 -19.5q39 0 75 19.5zM519 688h117v-14l-121 -119h-83z" />
    <glyph glyph-name="adieresis.ss01.ss02" horiz-adv-x="584" 
d="M149 21q-52 31 -81.5 86.5t-29.5 126.5q0 73 29.5 130t81 88.5t115.5 31.5q58 0 101 -24.5t65 -67.5v82h87v-474h-82v85q-60 -95 -169 -95q-65 0 -117 31zM354 86.5q36 19.5 58 57.5t22 91q0 52 -22.5 91t-58 59.5t-74.5 20.5q-40 0 -76 -20.5t-57.5 -59t-21.5 -91.5
t21.5 -91t57 -57.5t76.5 -19.5q39 0 75 19.5zM156.5 576.5q-16.5 16.5 -16.5 39.5t16.5 39.5t39.5 16.5t39.5 -16.5t16.5 -39.5t-16.5 -39.5t-39.5 -16.5t-39.5 16.5zM329.5 576.5q-16.5 16.5 -16.5 39.5t16.5 39.5t39.5 16.5t39.5 -16.5t16.5 -39.5t-16.5 -39.5
t-39.5 -16.5t-39.5 16.5z" />
    <glyph glyph-name="g.ss03" horiz-adv-x="527" 
d="M87.5 -168q-62.5 40 -62.5 116q0 60 47 97q-35 27 -35 78q0 26 13.5 48t35.5 37q-33 42 -33 103q0 53 25.5 92t68.5 60t95 21q35 0 66.5 -9t53.5 -25q5 28 27 45.5t55 17.5q83 0 87 -96l-75 -13q0 43 -31 43q-11 0 -18.5 -7t-7.5 -18q0 -9 5 -17q27 -45 27 -94
q0 -53 -25.5 -92.5t-68.5 -60t-95 -20.5q-59 0 -107 27q-20 -13 -20 -35q0 -20 17 -30.5t47 -10.5h138q74 0 118 -35.5t44 -95.5q0 -78 -62 -122t-173 -44q-94 0 -156.5 40zM317.5 238q28.5 27 28.5 73q0 45 -29 72.5t-75 27.5t-75 -27.5t-29 -72.5q0 -47 28.5 -73.5
t75.5 -26.5t75.5 27zM358 -114q37 22 37 64q0 65 -96 65h-126q-21 0 -31 2q-35 -24 -35 -67q0 -40 38 -63t104 -23q72 0 109 22z" />
    <glyph glyph-name="gbreve.ss03" horiz-adv-x="527" 
d="M87.5 -168q-62.5 40 -62.5 116q0 60 47 97q-35 27 -35 78q0 26 13.5 48t35.5 37q-33 42 -33 103q0 53 25.5 92t68.5 60t95 21q35 0 66.5 -9t53.5 -25q5 28 27 45.5t55 17.5q83 0 87 -96l-75 -13q0 43 -31 43q-11 0 -18.5 -7t-7.5 -18q0 -9 5 -17q27 -45 27 -94
q0 -53 -25.5 -92.5t-68.5 -60t-95 -20.5q-59 0 -107 27q-20 -13 -20 -35q0 -20 17 -30.5t47 -10.5h138q74 0 118 -35.5t44 -95.5q0 -78 -62 -122t-173 -44q-94 0 -156.5 40zM317.5 238q28.5 27 28.5 73q0 45 -29 72.5t-75 27.5t-75 -27.5t-29 -72.5q0 -47 28.5 -73.5
t75.5 -26.5t75.5 27zM358 -114q37 22 37 64q0 65 -96 65h-126q-21 0 -31 2q-35 -24 -35 -67q0 -40 38 -63t104 -23q72 0 109 22zM364 663q0 -53 -35 -81t-87 -28t-87 28t-35 81q0 9 1 14h68l-1 -11q0 -22 14.5 -36t39.5 -14t39.5 14t14.5 36l-1 11h68q1 -5 1 -14z" />
    <glyph glyph-name="gcircumflex.ss03" horiz-adv-x="527" 
d="M87.5 -168q-62.5 40 -62.5 116q0 60 47 97q-35 27 -35 78q0 26 13.5 48t35.5 37q-33 42 -33 103q0 53 25.5 92t68.5 60t95 21q35 0 66.5 -9t53.5 -25q5 28 27 45.5t55 17.5q83 0 87 -96l-75 -13q0 43 -31 43q-11 0 -18.5 -7t-7.5 -18q0 -9 5 -17q27 -45 27 -94
q0 -53 -25.5 -92.5t-68.5 -60t-95 -20.5q-59 0 -107 27q-20 -13 -20 -35q0 -20 17 -30.5t47 -10.5h138q74 0 118 -35.5t44 -95.5q0 -78 -62 -122t-173 -44q-94 0 -156.5 40zM317.5 238q28.5 27 28.5 73q0 45 -29 72.5t-75 27.5t-75 -27.5t-29 -72.5q0 -47 28.5 -73.5
t75.5 -26.5t75.5 27zM358 -114q37 22 37 64q0 65 -96 65h-126q-21 0 -31 2q-35 -24 -35 -67q0 -40 38 -63t104 -23q72 0 109 22zM90 569l121 106h62l121 -106v-14h-95l-57 69l-57 -69h-95v14z" />
    <glyph glyph-name="uni0123.ss03" horiz-adv-x="527" 
d="M87.5 -168q-62.5 40 -62.5 116q0 60 47 97q-35 27 -35 78q0 26 13.5 48t35.5 37q-33 42 -33 103q0 53 25.5 92t68.5 60t95 21q35 0 66.5 -9t53.5 -25q5 28 27 45.5t55 17.5q83 0 87 -96l-75 -13q0 43 -31 43q-11 0 -18.5 -7t-7.5 -18q0 -9 5 -17q27 -45 27 -94
q0 -53 -25.5 -92.5t-68.5 -60t-95 -20.5q-59 0 -107 27q-20 -13 -20 -35q0 -20 17 -30.5t47 -10.5h138q74 0 118 -35.5t44 -95.5q0 -78 -62 -122t-173 -44q-94 0 -156.5 40zM317.5 238q28.5 27 28.5 73q0 45 -29 72.5t-75 27.5t-75 -27.5t-29 -72.5q0 -47 28.5 -73.5
t75.5 -26.5t75.5 27zM358 -114q37 22 37 64q0 65 -96 65h-126q-21 0 -31 2q-35 -24 -35 -67q0 -40 38 -63t104 -23q72 0 109 22zM174 542v133q0 45 26 64.5t68 19.5h32v-52h-35q-18 0 -28.5 -7.5t-10.5 -22.5q0 -14 9 -22t26 -8h18v-105h-105z" />
    <glyph glyph-name="gdotaccent.ss03" horiz-adv-x="527" 
d="M87.5 -168q-62.5 40 -62.5 116q0 60 47 97q-35 27 -35 78q0 26 13.5 48t35.5 37q-33 42 -33 103q0 53 25.5 92t68.5 60t95 21q35 0 66.5 -9t53.5 -25q5 28 27 45.5t55 17.5q83 0 87 -96l-75 -13q0 43 -31 43q-11 0 -18.5 -7t-7.5 -18q0 -9 5 -17q27 -45 27 -94
q0 -53 -25.5 -92.5t-68.5 -60t-95 -20.5q-59 0 -107 27q-20 -13 -20 -35q0 -20 17 -30.5t47 -10.5h138q74 0 118 -35.5t44 -95.5q0 -78 -62 -122t-173 -44q-94 0 -156.5 40zM317.5 238q28.5 27 28.5 73q0 45 -29 72.5t-75 27.5t-75 -27.5t-29 -72.5q0 -47 28.5 -73.5
t75.5 -26.5t75.5 27zM358 -114q37 22 37 64q0 65 -96 65h-126q-21 0 -31 2q-35 -24 -35 -67q0 -40 38 -63t104 -23q72 0 109 22zM194 663h96v-101h-96v101z" />
    <glyph glyph-name="uni0123.ss01.ss03" horiz-adv-x="527" 
d="M87.5 -168q-62.5 40 -62.5 116q0 60 47 97q-35 27 -35 78q0 26 13.5 48t35.5 37q-33 42 -33 103q0 53 25.5 92t68.5 60t95 21q35 0 66.5 -9t53.5 -25q5 28 27 45.5t55 17.5q83 0 87 -96l-75 -13q0 43 -31 43q-11 0 -18.5 -7t-7.5 -18q0 -9 5 -17q27 -45 27 -94
q0 -53 -25.5 -92.5t-68.5 -60t-95 -20.5q-59 0 -107 27q-20 -13 -20 -35q0 -20 17 -30.5t47 -10.5h138q74 0 118 -35.5t44 -95.5q0 -78 -62 -122t-173 -44q-94 0 -156.5 40zM317.5 238q28.5 27 28.5 73q0 45 -29 72.5t-75 27.5t-75 -27.5t-29 -72.5q0 -47 28.5 -73.5
t75.5 -26.5t75.5 27zM358 -114q37 22 37 64q0 65 -96 65h-126q-21 0 -31 2q-35 -24 -35 -67q0 -40 38 -63t104 -23q72 0 109 22zM198.5 564q-17.5 18 -17.5 43v68q0 87 76 87h49v-45h-45q-13 0 -21 -7t-8 -19q0 -10 6 -15.5t19 -9.5q20 -5 33 -21.5t13 -37.5
q0 -26 -17.5 -43.5t-43.5 -17.5t-43.5 18z" />
    <glyph glyph-name="gdotaccent.ss01.ss03" horiz-adv-x="527" 
d="M87.5 -168q-62.5 40 -62.5 116q0 60 47 97q-35 27 -35 78q0 26 13.5 48t35.5 37q-33 42 -33 103q0 53 25.5 92t68.5 60t95 21q35 0 66.5 -9t53.5 -25q5 28 27 45.5t55 17.5q83 0 87 -96l-75 -13q0 43 -31 43q-11 0 -18.5 -7t-7.5 -18q0 -9 5 -17q27 -45 27 -94
q0 -53 -25.5 -92.5t-68.5 -60t-95 -20.5q-59 0 -107 27q-20 -13 -20 -35q0 -20 17 -30.5t47 -10.5h138q74 0 118 -35.5t44 -95.5q0 -78 -62 -122t-173 -44q-94 0 -156.5 40zM317.5 238q28.5 27 28.5 73q0 45 -29 72.5t-75 27.5t-75 -27.5t-29 -72.5q0 -47 28.5 -73.5
t75.5 -26.5t75.5 27zM358 -114q37 22 37 64q0 65 -96 65h-126q-21 0 -31 2q-35 -24 -35 -67q0 -40 38 -63t104 -23q72 0 109 22zM199.5 653.5q16.5 16.5 40.5 16.5q25 0 41.5 -16.5t16.5 -41.5t-16.5 -41.5t-41.5 -16.5q-24 0 -40.5 16.5t-16.5 41.5t16.5 41.5z" />
    <glyph glyph-name="tcaron.ss01.ss04" horiz-adv-x="364" 
d="M117 401h-94v73h94v147h87v-147h139v-73h-139v-401h-87v401zM256 577h43q12 0 19 5t7 15q0 16 -23 22q-22 4 -35.5 21t-13.5 39q0 26 17.5 44t44.5 18q28 0 45.5 -19t17.5 -50v-59q0 -45 -22 -66.5t-61 -21.5h-39v52z" />
    <glyph glyph-name="uni021B.ss01.ss04" horiz-adv-x="364" 
d="M117 401h-94v73h94v147h87v-147h139v-73h-139v-401h-87v401zM95 -249l10 48q20 -9 37 -9q33 0 33 26q0 9 -5.5 14t-20.5 12q-43 16 -43 55q0 26 16.5 42.5t40.5 16.5q25 0 43 -18t18 -43v-68q0 -85 -83 -85q-24 0 -46 9z" />
    <glyph glyph-name="t.ss04" horiz-adv-x="364" 
d="M117 401h-94v73h94v147h87v-147h139v-73h-139v-401h-87v401z" />
    <glyph glyph-name="tbar.ss04" horiz-adv-x="364" 
d="M204 401v-95h136v-70h-136v-236h-87v236h-82v70h82v95h-94v73h94v147h87v-147h139v-73h-139z" />
    <glyph glyph-name="tcaron.ss04" horiz-adv-x="364" 
d="M117 401h-94v73h94v147h87v-147h139v-73h-139v-401h-87v401zM251 577h25q39 0 39 30q0 14 -9 22t-25 8h-18v97h104v-122q0 -45 -26 -66t-67 -21h-23v52z" />
    <glyph glyph-name="uni0163.ss04" horiz-adv-x="364" 
d="M184 0q-12 -34 -23 -53q9 10 23 16.5t27 6.5q34 0 55.5 -20.5t21.5 -56.5q0 -38 -23.5 -59.5t-60.5 -21.5q-34 0 -58 17t-30 50l46 12q2 -15 13 -24.5t28 -9.5q18 0 28.5 10t10.5 26t-10 26.5t-29 10.5q-12 0 -23 -6t-16 -15l-46 9q12 39 18 82h-19v401h-94v73h94v147h87
v-147h139v-73h-139v-401h-20z" />
    <glyph glyph-name="uni021B.ss04" horiz-adv-x="364" 
d="M117 401h-94v73h94v147h87v-147h139v-73h-139v-401h-87v401zM78 -248l10 47q20 -8 40 -8q16 0 25.5 8t9.5 24q0 15 -10 22.5t-27 7.5h-18v95h104v-121q0 -45 -23 -64.5t-61 -19.5q-25 0 -50 9z" />
    <glyph glyph-name="c_slash_o" horiz-adv-x="955" 
d="M87.5 391q-49.5 51 -49.5 136q0 53 24 94.5t65 65t89 23.5q65 0 109 -34.5t55 -96.5l-67 -19q-7 41 -33 63t-66 22q-44 0 -75.5 -31t-31.5 -87q0 -57 31 -89.5t79 -32.5q50 0 79 27.5t37 71.5l64 -22q-14 -67 -64 -104.5t-114 -37.5q-82 0 -131.5 51zM204 123l490 469
l49 -49l-491 -469zM649.5 14q-40.5 24 -63 66.5t-22.5 94.5t22.5 94.5t63 66.5t91.5 24t91 -24t62.5 -66.5t22.5 -94.5t-22.5 -94.5t-62.5 -66.5t-91 -24t-91.5 24zM819.5 88q29.5 33 29.5 87t-29.5 87t-78.5 33t-78.5 -33t-29.5 -87t29.5 -87t78.5 -33t78.5 33z" />
    <glyph glyph-name="f_b" horiz-adv-x="866" 
d="M725.5 452.5q48.5 -31.5 75.5 -88.5t27 -130t-28.5 -128.5t-79.5 -85.5t-116 -30q-51 0 -94.5 23.5t-68.5 64.5v-78h-81v550q0 41 -20 64t-58 23q-39 0 -58.5 -23t-19.5 -64v-76h101v-73h-101v-401h-87v401h-106v73h106v79q0 71 42 114t123 43q80 0 122 -43t42 -114v-168
q24 44 69.5 71.5t98.5 27.5q63 0 111.5 -31.5zM666.5 86.5q34.5 19.5 55 57.5t20.5 91t-20.5 91.5t-55 59t-74.5 20.5q-38 0 -72.5 -20.5t-56 -59.5t-21.5 -91t21.5 -90t55.5 -58t73 -20q40 0 74.5 19.5z" />
    <glyph glyph-name="f_f_b" horiz-adv-x="1109" 
d="M751.5 13.5q-43.5 23.5 -68.5 64.5v-78h-81v550q0 41 -19.5 64t-58.5 23q-38 0 -58 -23t-20 -64v-76h102v-73h-102v-401h-86v401h-156v-401h-87v401h-106v73h106v72q0 74 44 119t122 45q40 0 72 -13.5t50 -39.5q18 25 49 39t70 14q81 0 123 -43t42 -114v-168
q24 44 69.5 71.5t97.5 27.5q63 0 112 -31.5t76 -88.5t27 -130t-29 -128.5t-80 -85.5t-116 -30q-51 0 -94.5 23.5zM360 474v84q0 40 -20.5 59.5t-55.5 19.5q-38 0 -59 -24.5t-21 -69.5v-69h156zM909 86.5q34 19.5 54.5 57.5t20.5 91t-20.5 92t-54.5 59t-74 20
q-39 0 -73.5 -20.5t-55.5 -59.5t-21 -91t21 -90t55.5 -58t73.5 -20q40 0 74 19.5z" />
    <glyph glyph-name="f_f_h" horiz-adv-x="1091" 
d="M117 401h-106v73h106v72q0 74 44 119t122 45q40 0 72 -13.5t50 -40.5q17 26 48 40t71 14q81 0 123 -43t42 -114v-179q20 51 64.5 80.5t102.5 29.5q78 0 123 -48t45 -129v-307h-86v287q0 60 -29.5 91.5t-83.5 31.5q-38 0 -69 -20.5t-49 -58.5t-18 -86v-245h-87v550
q0 41 -19.5 64t-58.5 23q-38 0 -58 -23t-20 -64v-76h102v-73h-102v-401h-86v401h-156v-401h-87v401zM360 474v84q0 40 -20.5 59.5t-55.5 19.5q-38 0 -59 -24.5t-21 -69.5v-69h156z" />
    <glyph glyph-name="f_f_j" horiz-adv-x="751" 
d="M602 401h-156v-401h-86v401h-156v-401h-87v401h-106v73h106v72q0 74 44 119t122 45q40 0 73 -13.5t50 -40.5q17 25 46.5 39.5t68.5 14.5q78 0 117.5 -39t39.5 -101q0 -13 -1 -22h-81l1 18q0 34 -20.5 52.5t-55.5 18.5q-75 0 -75 -93v-70h243v-672h-87v599zM360 474v84
q0 40 -20.5 59.5t-55.5 19.5q-38 0 -59 -24.5t-21 -69.5v-69h156z" />
    <glyph glyph-name="f_f_k" horiz-adv-x="1040" 
d="M117 401h-106v73h106v72q0 74 44 119t122 45q40 0 72 -13.5t50 -40.5q17 26 48 40t71 14q81 0 123 -43t42 -114v-301l202 222h111l-181 -192l196 -282h-105l-151 218l-72 -77v-141h-87v550q0 41 -19.5 64t-58.5 23q-38 0 -58 -23t-20 -64v-76h102v-73h-102v-401h-86v401
h-156v-401h-87v401zM360 474v84q0 40 -20.5 59.5t-55.5 19.5q-38 0 -59 -24.5t-21 -69.5v-69h156z" />
    <glyph glyph-name="f_f_t" horiz-adv-x="933" 
d="M642 30q-40 40 -40 111v260h-156v-401h-86v401h-156v-401h-87v401h-106v73h106v72q0 74 44 119t122 45q40 0 72 -13.5t50 -40.5q17 26 48 40t71 14q81 0 123 -43t42 -114v-79h170v-73h-170v-264q0 -34 18.5 -52.5t46.5 -18.5q30 0 47.5 17.5t23.5 56.5l80 -18
q-10 -64 -48.5 -98t-99.5 -34q-75 0 -115 40zM360 474v84q0 40 -20.5 59.5t-55.5 19.5q-38 0 -59 -24.5t-21 -69.5v-69h156zM602 474v76q0 41 -19.5 64t-58.5 23q-38 0 -58 -23t-20 -64v-76h156z" />
    <glyph glyph-name="f_h" horiz-adv-x="848" 
d="M117 401h-106v73h106v79q0 71 42 114t123 43q80 0 122 -43t42 -114v-179q20 51 64.5 80.5t102.5 29.5q78 0 123.5 -48t45.5 -129v-307h-87v287q0 61 -29.5 92t-83.5 31q-38 0 -69 -20.5t-49 -58.5t-18 -86v-245h-86v550q0 41 -20 64t-58 23q-39 0 -58.5 -23t-19.5 -64
v-76h107v-73h-107v-401h-87v401z" />
    <glyph glyph-name="f_i" horiz-adv-x="507" 
d="M446 0h-87v401h-156v-401h-86v401h-106v73h106v72q0 74 42 119t119 45q78 0 117.5 -39t39.5 -101q0 -13 -1 -22h-81l1 18q0 34 -20.5 52.5t-55.5 18.5q-75 0 -75 -93v-70h243v-474z" />
    <glyph glyph-name="f_j" horiz-adv-x="507" 
d="M446 -198h-87v599h-156v-401h-86v401h-106v73h106v72q0 74 42 119t119 45q78 0 117.5 -39t39.5 -101q0 -13 -1 -22h-81l1 18q0 34 -20.5 52.5t-55.5 18.5q-75 0 -75 -93v-70h243v-672z" />
    <glyph glyph-name="f_k" horiz-adv-x="798" 
d="M117 401h-106v73h106v79q0 71 42 114t123 43q80 0 122 -43t42 -114v-301l203 222h110l-180 -192l195 -282h-105l-150 218l-73 -77v-141h-86v550q0 41 -20 64t-58 23q-39 0 -58.5 -23t-19.5 -64v-76h101v-73h-101v-401h-87v401z" />
    <glyph glyph-name="f_l" horiz-adv-x="513" 
d="M117 401h-106v73h106v79q0 71 42 114t123 43q80 0 122 -43t42 -114v-553h-86v550q0 41 -20 64t-58 23q-39 0 -58.5 -23t-19.5 -64v-76h101v-73h-101v-401h-87v401z" />
    <glyph glyph-name="f_t" horiz-adv-x="691" 
d="M399.5 30q-39.5 40 -39.5 111v260h-156v-401h-87v401h-106v73h106v79q0 71 42 114t123 43q80 0 122 -43t42 -114v-79h171v-73h-171v-264q0 -34 18.5 -52.5t46.5 -18.5q31 0 48 17.5t23 56.5l81 -18q-10 -64 -49 -98t-100 -34q-75 0 -114.5 40zM360 474v76q0 41 -20 64
t-58 23q-39 0 -58.5 -23t-19.5 -64v-76h156z" />
    <glyph glyph-name="i_m" horiz-adv-x="752" 
d="M158 562h-96v101h96v-101zM646 444q39 -40 39 -115v-329h-86v311q0 44 -24.5 69.5t-62.5 25.5q-39 0 -66 -28t-27 -83v-295h-87v307q0 49 -24 74t-63 25t-65.5 -29t-26.5 -87v-290h-86v474h86v-67q17 35 49 56t79 21q43 0 76 -24t45 -70q19 45 56.5 69.5t82.5 24.5
q66 0 105 -40z" />
    <glyph glyph-name="t_t" horiz-adv-x="670" 
d="M157 30q-40 40 -40 111v260h-94v73h94v147h87v-147h136v147h86v-147h171v-73h-171v-264q0 -34 18.5 -52.5t46.5 -18.5q31 0 48 17.5t23 56.5l81 -18q-10 -64 -49 -98t-100 -34q-80 0 -116 51q-39 -51 -106 -51q-75 0 -115 40zM320 87.5q20 21.5 20 59.5v254h-136v-264
q0 -34 18.5 -52.5t46.5 -18.5q31 0 51 21.5z" />
    <glyph glyph-name="w_w_w" horiz-adv-x="1647" 
d="M5 474h85l112 -390l107 390h97l107 -390l108 390h96l106 -390l107 390h96l108 -390l106 390h97l108 -390l111 390h86l-142 -474h-106l-104 364l-105 -364h-102l-105 364l-104 -364h-101l-105 364l-104 -364h-103l-104 364l-104 -364h-106z" />
    <glyph glyph-name="i_m.ss01" horiz-adv-x="752" 
d="M149.5 570.5q-16.5 -16.5 -41.5 -16.5t-41.5 16.5t-16.5 41.5t16.5 41.5t41.5 16.5t41.5 -16.5t16.5 -41.5t-16.5 -41.5zM646 444q39 -40 39 -115v-329h-86v311q0 44 -24.5 69.5t-62.5 25.5q-39 0 -66 -28t-27 -83v-295h-87v307q0 49 -24 74t-63 25t-65.5 -29t-26.5 -87
v-290h-86v474h86v-67q17 35 49 56t79 21q43 0 76 -24t45 -70q19 45 56.5 69.5t82.5 24.5q66 0 105 -40z" />
    <glyph glyph-name="f_f_t.ss04" horiz-adv-x="887" 
d="M117 401h-106v73h106v72q0 74 44 119t122 45q40 0 72 -13.5t50 -40.5q17 26 48 40t71 14q81 0 123 -43t42 -114v-79h170v-73h-170v-401h-87v401h-156v-401h-86v401h-156v-401h-87v401zM360 474v84q0 40 -20.5 59.5t-55.5 19.5q-38 0 -59 -24.5t-21 -69.5v-69h156z
M602 474v76q0 41 -19.5 64t-58.5 23q-38 0 -58 -23t-20 -64v-76h156z" />
    <glyph glyph-name="f_t.ss04" horiz-adv-x="645" 
d="M117 401h-106v73h106v79q0 71 42 114t123 43q80 0 122 -43t42 -114v-79h171v-73h-171v-401h-86v401h-156v-401h-87v401zM360 474v76q0 41 -20 64t-58 23q-39 0 -58.5 -23t-19.5 -64v-76h156z" />
    <glyph glyph-name="t_t.ss04" horiz-adv-x="594" 
d="M117 401h-94v73h94v147h87v-147h136v147h86v-147h140v-73h-140v-401h-86v401h-136v-401h-87v401z" />
    <glyph glyph-name="ordfeminine" unicode="&#xaa;" horiz-adv-x="465" 
d="M80 298q-41 36 -41 96q0 65 45 99t114 34q47 0 91 -14l37 -10v43q0 46 -29 71t-76 25q-44 0 -73.5 -23.5t-37.5 -63.5l-72 20q13 61 61 98t122 37q88 0 136 -45t48 -125v-269h-77v67q-18 -35 -56.5 -55.5t-90.5 -20.5q-60 0 -101 36zM293.5 358.5q32.5 26.5 32.5 72.5v9
l-37 12q-42 13 -79 13q-41 0 -64 -17t-23 -51q0 -29 22.5 -47t63.5 -18q52 0 84.5 26.5z" />
    <glyph glyph-name="ordmasculine" unicode="&#xba;" horiz-adv-x="500" 
d="M60.5 602q26.5 51 75.5 79.5t114 28.5t114 -28.5t75.5 -79.5t26.5 -116t-26.5 -116t-75.5 -79.5t-114 -28.5t-114 28.5t-75.5 79.5t-26.5 116t26.5 116zM152.5 376q37.5 -42 97.5 -42t98 42t38 110t-38 110t-98 42t-97.5 -42t-37.5 -110t37.5 -110z" />
    <glyph glyph-name="uni0410" unicode="&#x410;" horiz-adv-x="739" 
d="M306 700h128l293 -700h-102l-72 178h-366l-73 -178h-101zM519 262l-149 365l-150 -365h299z" />
    <glyph glyph-name="uni0411" unicode="&#x411;" horiz-adv-x="690" 
d="M76 700h484v-87h-392v-210h249q64 0 115.5 -24t81 -70t29.5 -107q0 -62 -29.5 -107.5t-81 -70t-115.5 -24.5h-341v700zM413 87q59 0 96.5 31.5t37.5 83.5t-37.5 83t-96.5 31h-245v-229h245z" />
    <glyph glyph-name="uni0412" unicode="&#x412;" horiz-adv-x="688" 
d="M76 700h317q66 0 116.5 -24t78 -65.5t27.5 -92.5q0 -52 -28.5 -93.5t-76.5 -63.5q61 -20 95.5 -63t34.5 -109q0 -54 -29.5 -97t-81.5 -67.5t-115 -24.5h-338v700zM397 401q59 0 93 28.5t34 79.5q0 49 -37 76.5t-90 27.5h-229v-212h229zM411 87q58 0 95.5 31t37.5 83
q0 51 -37 84.5t-96 33.5h-243v-232h243z" />
    <glyph glyph-name="uni0413" unicode="&#x413;" horiz-adv-x="613" 
d="M168 613v-613h-92v700h507v-87h-415z" />
    <glyph glyph-name="uni0403" unicode="&#x403;" horiz-adv-x="613" 
d="M168 613v-613h-92v700h507v-87h-415zM368 914h117v-14l-121 -119h-83z" />
    <glyph glyph-name="uni0490" unicode="&#x490;" horiz-adv-x="613" 
d="M583 870v-257h-415v-613h-92v700h420v170h87z" />
    <glyph glyph-name="uni0414" unicode="&#x414;" horiz-adv-x="695" 
d="M29 84h61q41 57 60 111t24.5 112t5.5 155v238h412v-616h74v-194h-86v110h-465v-110h-86v194zM500 84v532h-231v-158q0 -133 -15 -217t-58 -157h304z" />
    <glyph glyph-name="uni0415" unicode="&#x415;" horiz-adv-x="633" 
d="M569 700v-87h-401v-207h371v-87h-371v-232h411v-87h-503v700h493z" />
    <glyph glyph-name="uni0400" unicode="&#x400;" horiz-adv-x="633" 
d="M569 700v-87h-401v-207h371v-87h-371v-232h411v-87h-503v700h493zM144 900v14h117l87 -133h-83z" />
    <glyph glyph-name="uni0401" unicode="&#x401;" horiz-adv-x="633" 
d="M569 700v-87h-401v-207h371v-87h-371v-232h411v-87h-503v700h493zM174 892h97v-99h-97v99zM341 892h97v-99h-97v99z" />
    <glyph glyph-name="uni0416" unicode="&#x416;" horiz-adv-x="1003" 
d="M986 0h-125l-313 324v-324h-92v324l-314 -324h-125l353 365l-336 335h120l302 -304v304h92v-304l301 304h120l-336 -335z" />
    <glyph glyph-name="uni0417" unicode="&#x417;" horiz-adv-x="582" 
d="M122 48q-63 58 -79 149l85 35q10 -71 51 -113t115 -42q65 0 105.5 28.5t40.5 86.5t-36 88t-93 30h-36v86h33q58 0 90 28t32 83q0 56 -36 86t-102 30q-57 0 -95 -32.5t-51 -92.5l-83 37q17 75 79 125t153 50q104 0 165.5 -52.5t61.5 -145.5q0 -60 -30.5 -100t-80.5 -57
q52 -12 86.5 -53.5t34.5 -105.5q0 -98 -67 -152t-174 -54q-106 0 -169 58z" />
    <glyph glyph-name="uni0418" unicode="&#x418;" horiz-adv-x="766" 
d="M234 0h-158v700h92v-636l363 636h159v-700h-92v636z" />
    <glyph glyph-name="uni0419" unicode="&#x419;" horiz-adv-x="766" 
d="M234 0h-158v700h92v-636l363 636h159v-700h-92v636zM493 889q0 -53 -35 -81t-87 -28t-87 28t-35 81q0 9 1 14h68l-1 -11q0 -22 14.5 -36t39.5 -14t39.5 14t14.5 36l-1 11h68q1 -5 1 -14z" />
    <glyph glyph-name="uni040D" unicode="&#x40d;" horiz-adv-x="766" 
d="M234 0h-158v700h92v-636l363 636h159v-700h-92v636zM209 900v14h117l87 -133h-83z" />
    <glyph glyph-name="uni041A" unicode="&#x41a;" horiz-adv-x="623" 
d="M76 700h92v-304l301 304h120l-336 -335l353 -365h-125l-313 324v-324h-92v700z" />
    <glyph glyph-name="uni040C" unicode="&#x40c;" horiz-adv-x="623" 
d="M76 700h92v-304l301 304h120l-336 -335l353 -365h-125l-313 324v-324h-92v700zM364 914h117v-14l-121 -119h-83z" />
    <glyph glyph-name="uni041B" unicode="&#x41b;" horiz-adv-x="695" 
d="M29 12q31 58 45.5 134t14.5 199v355h530v-700h-92v616h-346v-261q0 -240 -55 -355h-97v12z" />
    <glyph glyph-name="uni041C" unicode="&#x41c;" horiz-adv-x="942" 
d="M775 0v651l-234 -651h-140l-233 651v-651h-92v700h170l225 -631l225 631h171v-700h-92z" />
    <glyph glyph-name="uni041D" unicode="&#x41d;" horiz-adv-x="737" 
d="M168 303v-303h-92v700h92v-313h401v313h92v-700h-92v303h-401z" />
    <glyph glyph-name="uni041E" unicode="&#x41e;" horiz-adv-x="812" 
d="M92 531.5q47 82.5 129.5 130.5t184.5 48t184.5 -48t130 -130.5t47.5 -181.5t-47.5 -181.5t-130 -130.5t-184.5 -48t-184.5 48t-129.5 130.5t-47 181.5t47 181.5zM176 206q35 -62 95.5 -95.5t134.5 -33.5t134.5 34t95.5 96t35 143t-34.5 143t-95 96t-135.5 34t-135.5 -34
t-95 -96.5t-34.5 -143.5t35 -143z" />
    <glyph glyph-name="uni041F" unicode="&#x41f;" horiz-adv-x="737" 
d="M168 616v-616h-92v700h585v-700h-92v616h-401z" />
    <glyph glyph-name="uni0420" unicode="&#x420;" horiz-adv-x="658" 
d="M168 0h-92v700h309q72 0 123 -27.5t77.5 -74.5t26.5 -104q0 -55 -27 -102.5t-78.5 -75.5t-121.5 -28h-217v-288zM377 375q62 0 100 31t38 88t-38 88t-100 31h-209v-238h209z" />
    <glyph glyph-name="uni0421" unicode="&#x421;" horiz-adv-x="777" 
d="M266 592.5q-58 -33.5 -91.5 -96.5t-33.5 -146q0 -86 32.5 -148.5t90 -95t131.5 -32.5q116 0 180.5 61.5t86.5 162.5l81 -33q-18 -80 -64 -142t-118 -97.5t-166 -35.5q-105 0 -184.5 47t-122.5 128.5t-43 184.5q0 101 45.5 183.5t125.5 129.5t179 47q128 0 205.5 -66
t104.5 -167l-84 -38q-18 84 -76 135.5t-150 51.5q-71 0 -129 -33.5z" />
    <glyph glyph-name="uni0422" unicode="&#x422;" horiz-adv-x="672" 
d="M641 613h-259v-613h-92v613h-259v87h610v-87z" />
    <glyph glyph-name="uni0423" unicode="&#x423;" horiz-adv-x="690" 
d="M292 265l-276 435h110l219 -351l220 351h109l-444 -700h-111z" />
    <glyph glyph-name="uni040E" unicode="&#x40e;" horiz-adv-x="690" 
d="M292 265l-276 435h110l219 -351l220 351h109l-444 -700h-111zM468 889q0 -53 -35 -81t-87 -28t-87 28t-35 81q0 9 1 14h68l-1 -11q0 -22 14.5 -36t39.5 -14t39.5 14t14.5 36l-1 11h68q1 -5 1 -14z" />
    <glyph glyph-name="uni0424" unicode="&#x424;" horiz-adv-x="819" 
d="M364 0v80h-54q-77 0 -137.5 35.5t-94 97.5t-33.5 137q0 73 34 135t94.5 98.5t136.5 36.5h54v80h92v-80h53q76 0 136.5 -36.5t94.5 -98.5t34 -135q0 -75 -33.5 -137t-94 -97.5t-137.5 -35.5h-53v-80h-92zM364 167v366h-43q-85 0 -134.5 -51t-49.5 -132t49.5 -132
t134.5 -51h43zM456 533v-366h42q85 0 134.5 51t49.5 132t-49.5 132t-134.5 51h-42z" />
    <glyph glyph-name="uni0425" unicode="&#x425;" horiz-adv-x="674" 
d="M283 380l-225 320h112l167 -252l171 252h108l-225 -320l265 -380h-109l-210 308l-210 -308h-109z" />
    <glyph glyph-name="uni0427" unicode="&#x427;" horiz-adv-x="680" 
d="M513 241q-34 -38 -86.5 -60.5t-118.5 -22.5q-74 0 -128 31.5t-82.5 88t-28.5 130.5v292h92v-278q0 -87 44.5 -132t123.5 -45q101 0 184 101v354h92v-700h-92v241z" />
    <glyph glyph-name="uni0426" unicode="&#x426;" horiz-adv-x="692" 
d="M577 0h-501v700h92v-616h323v616h92v-616h81v-194h-87v110z" />
    <glyph glyph-name="uni0428" unicode="&#x428;" horiz-adv-x="922" 
d="M847 700v-700h-771v700h92v-616h247v616h92v-616h248v616h92z" />
    <glyph glyph-name="uni0429" unicode="&#x429;" horiz-adv-x="956" 
d="M841 0h-765v700h92v-616h247v616h92v-616h248v616h92v-616h80v-194h-86v110z" />
    <glyph glyph-name="uni040F" unicode="&#x40f;" horiz-adv-x="665" 
d="M289 0h-213v700h92v-616h330v616h92v-700h-214v-110h-87v110z" />
    <glyph glyph-name="uni042C" unicode="&#x42c;" horiz-adv-x="688" 
d="M76 700h92v-297h246q65 0 116 -24t80.5 -69.5t29.5 -107.5t-29.5 -107.5t-80.5 -70t-116 -24.5h-338v700zM411 87q59 0 96 31.5t37 83.5t-37 83t-96 31h-243v-229h243z" />
    <glyph glyph-name="uni042A" unicode="&#x42a;" horiz-adv-x="787" 
d="M629.5 379q51.5 -24 81 -70t29.5 -107q0 -62 -29.5 -107.5t-81 -70t-115.5 -24.5h-339v613h-144v87h236v-297h247q64 0 115.5 -24zM606 118.5q37 31.5 37 83.5t-37 83t-96 31h-243v-229h243q59 0 96 31.5z" />
    <glyph glyph-name="uni042B" unicode="&#x42b;" horiz-adv-x="931" 
d="M76 700h92v-297h246q65 0 116 -24t80.5 -69.5t29.5 -107.5t-29.5 -107.5t-80.5 -70t-116 -24.5h-338v700zM411 87q59 0 96 31.5t37 83.5t-37 83t-96 31h-243v-229h243zM764 700h92v-700h-92v700z" />
    <glyph glyph-name="uni0409" unicode="&#x409;" horiz-adv-x="1012" 
d="M29 12q31 58 45.5 134t14.5 199v355h455v-293h197q68 0 118.5 -27t77.5 -73.5t27 -102.5q0 -58 -27 -104.5t-77.5 -73t-118.5 -26.5h-289v616h-271v-261q0 -240 -55 -355h-97v12zM735 87q59 0 96 31.5t37 85.5t-37 85.5t-96 31.5h-191v-234h191z" />
    <glyph glyph-name="uni040A" unicode="&#x40a;" horiz-adv-x="989" 
d="M76 700h92v-293h278v293h92v-293h180q68 0 118.5 -27t77.5 -73.5t27 -102.5q0 -58 -27 -104.5t-77.5 -73t-118.5 -26.5h-272v321h-278v-321h-92v700zM712 87q59 0 96 31.5t37 85.5t-37 85.5t-96 31.5h-174v-234h174z" />
    <glyph glyph-name="uni0405" unicode="&#x405;" horiz-adv-x="629" 
d="M418.5 590.5q-43.5 32.5 -110.5 32.5q-59 0 -97.5 -26.5t-38.5 -71.5q0 -52 48 -81.5t135 -46.5q124 -24 181.5 -71t57.5 -129q0 -59 -33.5 -106.5t-94 -74t-136.5 -26.5q-99 0 -182 50t-119 164l85 53q21 -86 76.5 -133t140.5 -47q76 0 122 32t46 85q0 47 -39 75.5
t-137 44.5q-243 42 -243 209q0 51 29.5 94t83 68t123.5 25q87 0 154 -43.5t95 -122.5l-86 -49q-17 63 -60.5 95.5z" />
    <glyph glyph-name="uni0404" unicode="&#x404;" horiz-adv-x="777" 
d="M743 265q-18 -80 -64 -142t-118 -97.5t-166 -35.5q-105 0 -184.5 47t-122.5 128.5t-43 184.5q0 101 45.5 183.5t125.5 129.5t179 47q128 0 205.5 -66t104.5 -167l-84 -38q-18 84 -76 135.5t-150 51.5q-65 0 -118.5 -27.5t-88.5 -79.5t-44 -123h306v-87h-307
q11 -111 79.5 -173t172.5 -62q116 0 180.5 61.5t86.5 162.5z" />
    <glyph glyph-name="uni042D" unicode="&#x42d;" horiz-adv-x="777" 
d="M152 66q-90 76 -118 199l81 33q22 -100 87 -162t181 -62q104 0 174 62t81 173h-316v87h316q-9 70 -45 122.5t-91 80t-119 27.5q-92 0 -150.5 -51.5t-76.5 -135.5l-84 38q28 101 106.5 167t207.5 66q101 0 180 -46.5t123 -128.5t44 -185q0 -104 -42 -185.5t-121.5 -128
t-187.5 -46.5q-140 0 -230 76z" />
    <glyph glyph-name="uni0406" unicode="&#x406;" horiz-adv-x="243" 
d="M76 700h92v-700h-92v700z" />
    <glyph glyph-name="uni0407" unicode="&#x407;" horiz-adv-x="243" 
d="M76 700h92v-700h-92v700zM-10 892h97v-99h-97v99zM157 892h97v-99h-97v99z" />
    <glyph glyph-name="uni0408" unicode="&#x408;" horiz-adv-x="598" 
d="M529 700v-466q0 -65 -24 -120.5t-76.5 -89.5t-135.5 -34q-75 0 -130 29.5t-84 82.5t-29 120q0 69 28 121l87 -33q-23 -41 -23 -93q0 -62 41.5 -101t109.5 -39q72 0 108 44.5t36 129.5v449h92z" />
    <glyph glyph-name="uni040B" unicode="&#x40b;" horiz-adv-x="800" 
d="M290 613h-259v87h610v-87h-259v-227q22 46 67 72t103 26q81 0 128.5 -47.5t47.5 -129.5v-307h-92v282q0 60 -30 91.5t-85 31.5q-38 0 -70 -20t-50.5 -57t-18.5 -84v-244h-92v613z" />
    <glyph glyph-name="uni042E" unicode="&#x42e;" horiz-adv-x="1092" 
d="M870.5 662q82.5 -48 129.5 -130.5t47 -181.5t-47 -181.5t-129.5 -130.5t-184.5 -48q-94 0 -172 41t-127 112.5t-60 159.5h-159v-303h-92v700h92v-313h158q9 90 58 164t128 116.5t174 42.5q102 0 184.5 -48zM820.5 111q60.5 34 95.5 96t35 143t-34.5 143t-95 96t-135.5 34
q-76 0 -136 -34t-94.5 -96.5t-34.5 -143.5t35 -143t95.5 -95.5t134.5 -33.5t134.5 34z" />
    <glyph glyph-name="uni042F" unicode="&#x42f;" horiz-adv-x="672" 
d="M47 14l237 282h-5q-69 0 -120.5 26.5t-78.5 74t-27 107.5q0 54 26.5 98.5t77 71t119.5 26.5h320v-700h-92v296h-98l-248 -296h-111v14zM504 383v230h-220q-63 0 -98.5 -30t-35.5 -85q0 -54 35.5 -84.5t98.5 -30.5h220z" />
    <glyph glyph-name="uni0402" unicode="&#x402;" horiz-adv-x="841" 
d="M621 -97q79 141 79 286q0 210 -157 210q-45 0 -82 -24t-58 -66t-21 -94v-215h-92v616h-259v84h610v-84h-259v-238q25 47 72.5 76.5t116.5 29.5q110 0 165.5 -78.5t55.5 -210.5q0 -84 -20 -157t-57 -148h-94v13z" />
    <glyph glyph-name="uni0462" unicode="&#x462;" horiz-adv-x="757" 
d="M599 379q51 -24 80.5 -69.5t29.5 -107.5t-29.5 -107.5t-80.5 -70t-116 -24.5h-338v528h-142v75h142v97h92v-97h142v-75h-142v-125h246q65 0 116 -24zM576 118.5q37 31.5 37 83.5t-37 83t-96 31h-243v-229h243q59 0 96 31.5z" />
    <glyph glyph-name="uni0472" unicode="&#x472;" horiz-adv-x="812" 
d="M590.5 662q82.5 -48 130 -130.5t47.5 -181.5t-47.5 -181.5t-130 -130.5t-184.5 -48t-184.5 48t-129.5 130.5t-47 181.5t47 181.5t129.5 130.5t184.5 48t184.5 -48zM280.5 594.5q-56.5 -28.5 -92.5 -81.5t-45 -123q55 45 132 45q45 0 77 -12.5t71 -36.5q33 -20 57 -30
t54 -10q40 0 74 15.5t58 44.5q-17 99 -88.5 158t-171.5 59q-69 0 -125.5 -28.5zM530.5 105.5q56.5 28.5 93 81t45.5 122.5q-55 -44 -131 -44q-46 0 -77.5 12.5t-71.5 36.5q-33 20 -56.5 30t-53.5 10q-40 0 -74.5 -16t-58.5 -46q11 -65 48 -114t92 -75t120 -26
q68 0 124.5 28.5z" />
    <glyph glyph-name="uni0474" unicode="&#x474;" horiz-adv-x="808" 
d="M11 700h101l252 -629l223 555q21 52 52 73t71 21q37 0 65 -20t41 -59l-74 -37q-7 28 -31 28t-38 -32l-245 -600h-128z" />
    <glyph glyph-name="uni0492" unicode="&#x492;" horiz-adv-x="655" 
d="M189 613v-216h257v-78h-257v-319h-92v319h-79v78h79v303h507v-87h-415z" />
    <glyph glyph-name="uni0496" unicode="&#x496;" horiz-adv-x="1003" 
d="M991 84v-194h-86v110h-44l-313 324v-324h-92v324l-314 -324h-125l353 365l-336 335h120l302 -304v304h92v-304l301 304h120l-336 -335l272 -281h86z" />
    <glyph glyph-name="uni0498" unicode="&#x498;" horiz-adv-x="582" 
d="M285 -10q-7 -20 -19 -43q9 10 22.5 16.5t27.5 6.5q34 0 55.5 -20.5t21.5 -56.5q0 -37 -23.5 -59t-60.5 -22q-35 0 -59 17t-30 50l47 12q2 -15 12.5 -24.5t27.5 -9.5q19 0 29 10t10 26t-10 26.5t-29 10.5q-12 0 -23 -6t-16 -15l-46 9q11 40 17 76q-82 14 -132 69.5
t-64 133.5l85 35q10 -71 51 -113t115 -42q65 0 105.5 28.5t40.5 86.5t-36 88t-93 30h-36v86h33q58 0 90 28t32 83q0 56 -36 86t-102 30q-57 0 -95 -32.5t-51 -92.5l-83 37q17 75 79 125t153 50q104 0 165.5 -52.5t61.5 -145.5q0 -60 -30.5 -100t-80.5 -57q52 -12 86.5 -53.5
t34.5 -105.5q0 -98 -67 -152t-174 -54h-6z" />
    <glyph glyph-name="uni049A" unicode="&#x49a;" horiz-adv-x="623" 
d="M611 84v-194h-86v110h-44l-313 324v-324h-92v700h92v-304l301 304h120l-336 -335l272 -281h86z" />
    <glyph glyph-name="uni04A0" unicode="&#x4a0;" horiz-adv-x="783" 
d="M766 0h-125l-314 324v-324h-92v622h-204v78h296v-304l302 304h120l-336 -335z" />
    <glyph glyph-name="uni04A2" unicode="&#x4a2;" horiz-adv-x="737" 
d="M736 84v-194h-87v110h-80v303h-401v-303h-92v700h92v-313h401v313h92v-616h75z" />
    <glyph glyph-name="uni04AA" unicode="&#x4aa;" horiz-adv-x="777" 
d="M383 -10q-7 -22 -19 -43q9 10 23 16.5t27 6.5q34 0 55.5 -20.5t21.5 -56.5q0 -38 -23.5 -59.5t-60.5 -21.5q-34 0 -58.5 17t-30.5 50l47 12q2 -15 13 -24.5t28 -9.5q18 0 28.5 10t10.5 26t-10 26.5t-29 10.5q-12 0 -23 -6t-16 -15l-47 9q10 30 17 76q-89 12 -155 61
t-101.5 125.5t-35.5 169.5q0 101 45.5 183.5t125.5 129.5t179 47q128 0 205.5 -66t104.5 -167l-84 -38q-18 84 -76 135.5t-150 51.5q-71 0 -129 -33.5t-91.5 -96.5t-33.5 -146q0 -86 32.5 -148.5t90 -95t131.5 -32.5q116 0 180.5 61.5t86.5 162.5l81 -33q-18 -80 -64 -142
t-118 -97.5t-166 -35.5h-12z" />
    <glyph glyph-name="uni04AE" unicode="&#x4ae;" horiz-adv-x="672" 
d="M336 369l218 331h105l-277 -412v-288h-92v288l-276 412h110z" />
    <glyph glyph-name="uni04B0" unicode="&#x4b0;" horiz-adv-x="672" 
d="M429 358h122v-70h-169v-288h-92v288h-168v70h121l-229 342h110l212 -331l218 331h105z" />
    <glyph glyph-name="uni04B2" unicode="&#x4b2;" horiz-adv-x="674" 
d="M677 84v-194h-87v110h-43l-210 308l-210 -308h-109l265 380l-225 320h112l167 -252l171 252h108l-225 -320l206 -296h80z" />
    <glyph glyph-name="uni04B6" unicode="&#x4b6;" horiz-adv-x="680" 
d="M513 241q-34 -38 -86.5 -60.5t-118.5 -22.5q-74 0 -128 31.5t-82.5 88t-28.5 130.5v292h92v-278q0 -87 44.5 -132t123.5 -45q101 0 184 101v354h92v-700h-92v241zM605 84h87v-194h-87v194z" />
    <glyph glyph-name="uni04BA" unicode="&#x4ba;" horiz-adv-x="680" 
d="M76 700h92v-241q34 38 86.5 60.5t117.5 22.5q75 0 129 -31.5t82.5 -88t28.5 -130.5v-292h-92v278q0 87 -44.5 132t-123.5 45q-103 0 -184 -101v-354h-92v700z" />
    <glyph glyph-name="uni04C0" unicode="&#x4c0;" horiz-adv-x="243" 
d="M76 700h92v-700h-92v700z" />
    <glyph glyph-name="uni04C1" unicode="&#x4c1;" horiz-adv-x="1003" 
d="M986 0h-125l-313 324v-324h-92v324l-314 -324h-125l353 365l-336 335h120l302 -304v304h92v-304l301 304h120l-336 -335zM624 889q0 -53 -35 -81t-87 -28t-87 28t-35 81q0 9 1 14h68l-1 -11q0 -22 14.5 -36t39.5 -14t39.5 14t14.5 36l-1 11h68q1 -5 1 -14z" />
    <glyph glyph-name="uni04D0" unicode="&#x4d0;" horiz-adv-x="739" 
d="M306 700h128l293 -700h-102l-72 178h-366l-73 -178h-101zM519 262l-149 365l-150 -365h299zM492 889q0 -53 -35 -81t-87 -28t-87 28t-35 81q0 9 1 14h68l-1 -11q0 -22 14.5 -36t39.5 -14t39.5 14t14.5 36l-1 11h68q1 -5 1 -14z" />
    <glyph glyph-name="uni04D2" unicode="&#x4d2;" horiz-adv-x="739" 
d="M306 700h128l293 -700h-102l-72 178h-366l-73 -178h-101zM519 262l-149 365l-150 -365h299zM238 892h97v-99h-97v99zM405 892h97v-99h-97v99z" />
    <glyph glyph-name="uni04D4" unicode="&#x4d4;" horiz-adv-x="947" 
d="M893 87v-87h-461v178h-225l-92 -178h-102l363 700h507v-87h-359v-207h329v-87h-329v-232h369zM432 614l-182 -352h182v352z" />
    <glyph glyph-name="uni04D6" unicode="&#x4d6;" horiz-adv-x="633" 
d="M569 700v-87h-401v-207h371v-87h-371v-232h411v-87h-503v700h493zM428 889q0 -53 -35 -81t-87 -28t-87 28t-35 81q0 9 1 14h68l-1 -11q0 -22 14.5 -36t39.5 -14t39.5 14t14.5 36l-1 11h68q1 -5 1 -14z" />
    <glyph glyph-name="uni04D8" unicode="&#x4d8;" horiz-adv-x="721" 
d="M511.5 666q77.5 -44 121 -125.5t43.5 -190.5q0 -100 -41 -182.5t-116 -130t-173 -47.5q-90 0 -160 37.5t-109 105t-39 156.5q0 40 9 81h535q-4 79 -37 136t-88 87t-124 30q-78 0 -133 -45.5t-78 -115.5l-88 34q33 96 110 155t190 59q100 0 177.5 -44zM501 133.5
q61 56.5 76 153.5h-436q-2 -16 -2 -25q0 -53 26.5 -95t74 -66t108.5 -24q92 0 153 56.5z" />
    <glyph glyph-name="uni04DA" unicode="&#x4da;" horiz-adv-x="721" 
d="M511.5 666q77.5 -44 121 -125.5t43.5 -190.5q0 -100 -41 -182.5t-116 -130t-173 -47.5q-90 0 -160 37.5t-109 105t-39 156.5q0 40 9 81h535q-4 79 -37 136t-88 87t-124 30q-78 0 -133 -45.5t-78 -115.5l-88 34q33 96 110 155t190 59q100 0 177.5 -44zM501 133.5
q61 56.5 76 153.5h-436q-2 -16 -2 -25q0 -53 26.5 -95t74 -66t108.5 -24q92 0 153 56.5zM201 892h97v-99h-97v99zM368 892h97v-99h-97v99z" />
    <glyph glyph-name="uni04DC" unicode="&#x4dc;" horiz-adv-x="1003" 
d="M986 0h-125l-313 324v-324h-92v324l-314 -324h-125l353 365l-336 335h120l302 -304v304h92v-304l301 304h120l-336 -335zM370 892h97v-99h-97v99zM537 892h97v-99h-97v99z" />
    <glyph glyph-name="uni04DE" unicode="&#x4de;" horiz-adv-x="582" 
d="M122 48q-63 58 -79 149l85 35q10 -71 51 -113t115 -42q65 0 105.5 28.5t40.5 86.5t-36 88t-93 30h-36v86h33q58 0 90 28t32 83q0 56 -36 86t-102 30q-57 0 -95 -32.5t-51 -92.5l-83 37q17 75 79 125t153 50q104 0 165.5 -52.5t61.5 -145.5q0 -60 -30.5 -100t-80.5 -57
q52 -12 86.5 -53.5t34.5 -105.5q0 -98 -67 -152t-174 -54q-106 0 -169 58zM163 892h97v-99h-97v99zM330 892h97v-99h-97v99z" />
    <glyph glyph-name="uni04E2" unicode="&#x4e2;" horiz-adv-x="766" 
d="M234 0h-158v700h92v-636l363 636h159v-700h-92v636zM498 876v-69h-254v69h254z" />
    <glyph glyph-name="uni04E4" unicode="&#x4e4;" horiz-adv-x="766" 
d="M234 0h-158v700h92v-636l363 636h159v-700h-92v636zM239 892h97v-99h-97v99zM406 892h97v-99h-97v99z" />
    <glyph glyph-name="uni04E6" unicode="&#x4e6;" horiz-adv-x="812" 
d="M92 531.5q47 82.5 129.5 130.5t184.5 48t184.5 -48t130 -130.5t47.5 -181.5t-47.5 -181.5t-130 -130.5t-184.5 -48t-184.5 48t-129.5 130.5t-47 181.5t47 181.5zM176 206q35 -62 95.5 -95.5t134.5 -33.5t134.5 34t95.5 96t35 143t-34.5 143t-95 96t-135.5 34t-135.5 -34
t-95 -96.5t-34.5 -143.5t35 -143zM269 892h97v-99h-97v99zM436 892h97v-99h-97v99z" />
    <glyph glyph-name="uni04E8" unicode="&#x4e8;" horiz-adv-x="812" 
d="M221.5 38q-82.5 48 -129.5 130.5t-47 181.5t47 181.5t129.5 130.5t184.5 48t184.5 -48t130 -130.5t47.5 -181.5t-47.5 -181.5t-130 -130.5t-184.5 -48t-184.5 48zM668 389q-8 70 -43.5 123t-92.5 82t-126 29t-125.5 -28.5t-92.5 -81.5t-44 -124h524zM530.5 105.5
q56.5 28.5 93 81.5t44.5 124h-524q8 -71 44 -124t93 -81.5t125 -28.5t124.5 28.5z" />
    <glyph glyph-name="uni04EA" unicode="&#x4ea;" horiz-adv-x="812" 
d="M221.5 38q-82.5 48 -129.5 130.5t-47 181.5t47 181.5t129.5 130.5t184.5 48t184.5 -48t130 -130.5t47.5 -181.5t-47.5 -181.5t-130 -130.5t-184.5 -48t-184.5 48zM668 389q-8 70 -43.5 123t-92.5 82t-126 29t-125.5 -28.5t-92.5 -81.5t-44 -124h524zM530.5 105.5
q56.5 28.5 93 81.5t44.5 124h-524q8 -71 44 -124t93 -81.5t125 -28.5t124.5 28.5zM274 892h97v-99h-97v99zM441 892h97v-99h-97v99z" />
    <glyph glyph-name="uni04EC" unicode="&#x4ec;" horiz-adv-x="777" 
d="M152 66q-90 76 -118 199l81 33q22 -100 87 -162t181 -62q104 0 174 62t81 173h-316v87h316q-9 70 -45 122.5t-91 80t-119 27.5q-92 0 -150.5 -51.5t-76.5 -135.5l-84 38q28 101 106.5 167t207.5 66q101 0 180 -46.5t123 -128.5t44 -185q0 -104 -42 -185.5t-121.5 -128
t-187.5 -46.5q-140 0 -230 76zM254 892h97v-99h-97v99zM421 892h97v-99h-97v99z" />
    <glyph glyph-name="uni04EE" unicode="&#x4ee;" horiz-adv-x="690" 
d="M292 265l-276 435h110l219 -351l220 351h109l-444 -700h-111zM473 876v-69h-254v69h254z" />
    <glyph glyph-name="uni04F0" unicode="&#x4f0;" horiz-adv-x="690" 
d="M292 265l-276 435h110l219 -351l220 351h109l-444 -700h-111zM214 892h97v-99h-97v99zM381 892h97v-99h-97v99z" />
    <glyph glyph-name="uni04F2" unicode="&#x4f2;" horiz-adv-x="690" 
d="M292 265l-276 435h110l219 -351l220 351h109l-444 -700h-111zM302 914h117v-14l-121 -119h-83zM481 914h117v-14l-121 -119h-83z" />
    <glyph glyph-name="uni04F4" unicode="&#x4f4;" horiz-adv-x="680" 
d="M513 241q-34 -38 -86.5 -60.5t-118.5 -22.5q-74 0 -128 31.5t-82.5 88t-28.5 130.5v292h92v-278q0 -87 44.5 -132t123.5 -45q101 0 184 101v354h92v-700h-92v241zM205 892h97v-99h-97v99zM372 892h97v-99h-97v99z" />
    <glyph glyph-name="uni04F8" unicode="&#x4f8;" horiz-adv-x="931" 
d="M76 700h92v-297h246q65 0 116 -24t80.5 -69.5t29.5 -107.5t-29.5 -107.5t-80.5 -70t-116 -24.5h-338v700zM411 87q59 0 96 31.5t37 83.5t-37 83t-96 31h-243v-229h243zM764 700h92v-700h-92v700zM313 892h97v-99h-97v99zM480 892h97v-99h-97v99z" />
    <glyph glyph-name="uni0401.ss01" horiz-adv-x="633" 
d="M569 700v-87h-401v-207h371v-87h-371v-232h411v-87h-503v700h493zM179.5 802.5q-16.5 16.5 -16.5 39.5t16.5 39.5t39.5 16.5t39.5 -16.5t16.5 -39.5t-16.5 -39.5t-39.5 -16.5t-39.5 16.5zM352.5 802.5q-16.5 16.5 -16.5 39.5t16.5 39.5t39.5 16.5t39.5 -16.5t16.5 -39.5
t-16.5 -39.5t-39.5 -16.5t-39.5 16.5z" />
    <glyph glyph-name="uni0407.ss01" horiz-adv-x="243" 
d="M76 700h92v-700h-92v700zM-5.5 802.5q-16.5 16.5 -16.5 39.5t16.5 39.5t39.5 16.5t39.5 -16.5t16.5 -39.5t-16.5 -39.5t-39.5 -16.5t-39.5 16.5zM167.5 802.5q-16.5 16.5 -16.5 39.5t16.5 39.5t39.5 16.5t39.5 -16.5t16.5 -39.5t-16.5 -39.5t-39.5 -16.5t-39.5 16.5z" />
    <glyph glyph-name="uni04D2.ss01" horiz-adv-x="739" 
d="M306 700h128l293 -700h-102l-72 178h-366l-73 -178h-101zM519 262l-149 365l-150 -365h299zM243.5 802.5q-16.5 16.5 -16.5 39.5t16.5 39.5t39.5 16.5t39.5 -16.5t16.5 -39.5t-16.5 -39.5t-39.5 -16.5t-39.5 16.5zM416.5 802.5q-16.5 16.5 -16.5 39.5t16.5 39.5
t39.5 16.5t39.5 -16.5t16.5 -39.5t-16.5 -39.5t-39.5 -16.5t-39.5 16.5z" />
    <glyph glyph-name="uni04DA.ss01" horiz-adv-x="721" 
d="M511.5 666q77.5 -44 121 -125.5t43.5 -190.5q0 -100 -41 -182.5t-116 -130t-173 -47.5q-90 0 -160 37.5t-109 105t-39 156.5q0 40 9 81h535q-4 79 -37 136t-88 87t-124 30q-78 0 -133 -45.5t-78 -115.5l-88 34q33 96 110 155t190 59q100 0 177.5 -44zM501 133.5
q61 56.5 76 153.5h-436q-2 -16 -2 -25q0 -53 26.5 -95t74 -66t108.5 -24q92 0 153 56.5zM206.5 802.5q-16.5 16.5 -16.5 39.5t16.5 39.5t39.5 16.5t39.5 -16.5t16.5 -39.5t-16.5 -39.5t-39.5 -16.5t-39.5 16.5zM379.5 802.5q-16.5 16.5 -16.5 39.5t16.5 39.5t39.5 16.5
t39.5 -16.5t16.5 -39.5t-16.5 -39.5t-39.5 -16.5t-39.5 16.5z" />
    <glyph glyph-name="uni04DC.ss01" horiz-adv-x="1003" 
d="M986 0h-125l-313 324v-324h-92v324l-314 -324h-125l353 365l-336 335h120l302 -304v304h92v-304l301 304h120l-336 -335zM374.5 802.5q-16.5 16.5 -16.5 39.5t16.5 39.5t39.5 16.5t39.5 -16.5t16.5 -39.5t-16.5 -39.5t-39.5 -16.5t-39.5 16.5zM547.5 802.5
q-16.5 16.5 -16.5 39.5t16.5 39.5t39.5 16.5t39.5 -16.5t16.5 -39.5t-16.5 -39.5t-39.5 -16.5t-39.5 16.5z" />
    <glyph glyph-name="uni04DE.ss01" horiz-adv-x="582" 
d="M122 48q-63 58 -79 149l85 35q10 -71 51 -113t115 -42q65 0 105.5 28.5t40.5 86.5t-36 88t-93 30h-36v86h33q58 0 90 28t32 83q0 56 -36 86t-102 30q-57 0 -95 -32.5t-51 -92.5l-83 37q17 75 79 125t153 50q104 0 165.5 -52.5t61.5 -145.5q0 -60 -30.5 -100t-80.5 -57
q52 -12 86.5 -53.5t34.5 -105.5q0 -98 -67 -152t-174 -54q-106 0 -169 58zM168.5 802.5q-16.5 16.5 -16.5 39.5t16.5 39.5t39.5 16.5t39.5 -16.5t16.5 -39.5t-16.5 -39.5t-39.5 -16.5t-39.5 16.5zM341.5 802.5q-16.5 16.5 -16.5 39.5t16.5 39.5t39.5 16.5t39.5 -16.5
t16.5 -39.5t-16.5 -39.5t-39.5 -16.5t-39.5 16.5z" />
    <glyph glyph-name="uni04E4.ss01" horiz-adv-x="766" 
d="M234 0h-158v700h92v-636l363 636h159v-700h-92v636zM244.5 802.5q-16.5 16.5 -16.5 39.5t16.5 39.5t39.5 16.5t39.5 -16.5t16.5 -39.5t-16.5 -39.5t-39.5 -16.5t-39.5 16.5zM417.5 802.5q-16.5 16.5 -16.5 39.5t16.5 39.5t39.5 16.5t39.5 -16.5t16.5 -39.5t-16.5 -39.5
t-39.5 -16.5t-39.5 16.5z" />
    <glyph glyph-name="uni04E6.ss01" horiz-adv-x="812" 
d="M92 531.5q47 82.5 129.5 130.5t184.5 48t184.5 -48t130 -130.5t47.5 -181.5t-47.5 -181.5t-130 -130.5t-184.5 -48t-184.5 48t-129.5 130.5t-47 181.5t47 181.5zM176 206q35 -62 95.5 -95.5t134.5 -33.5t134.5 34t95.5 96t35 143t-34.5 143t-95 96t-135.5 34t-135.5 -34
t-95 -96.5t-34.5 -143.5t35 -143zM274.5 802.5q-16.5 16.5 -16.5 39.5t16.5 39.5t39.5 16.5t39.5 -16.5t16.5 -39.5t-16.5 -39.5t-39.5 -16.5t-39.5 16.5zM447.5 802.5q-16.5 16.5 -16.5 39.5t16.5 39.5t39.5 16.5t39.5 -16.5t16.5 -39.5t-16.5 -39.5t-39.5 -16.5
t-39.5 16.5z" />
    <glyph glyph-name="uni04EA.ss01" horiz-adv-x="812" 
d="M221.5 38q-82.5 48 -129.5 130.5t-47 181.5t47 181.5t129.5 130.5t184.5 48t184.5 -48t130 -130.5t47.5 -181.5t-47.5 -181.5t-130 -130.5t-184.5 -48t-184.5 48zM668 389q-8 70 -43.5 123t-92.5 82t-126 29t-125.5 -28.5t-92.5 -81.5t-44 -124h524zM530.5 105.5
q56.5 28.5 93 81.5t44.5 124h-524q8 -71 44 -124t93 -81.5t125 -28.5t124.5 28.5zM279.5 802.5q-16.5 16.5 -16.5 39.5t16.5 39.5t39.5 16.5t39.5 -16.5t16.5 -39.5t-16.5 -39.5t-39.5 -16.5t-39.5 16.5zM452.5 802.5q-16.5 16.5 -16.5 39.5t16.5 39.5t39.5 16.5t39.5 -16.5
t16.5 -39.5t-16.5 -39.5t-39.5 -16.5t-39.5 16.5z" />
    <glyph glyph-name="uni04EC.ss01" horiz-adv-x="777" 
d="M152 66q-90 76 -118 199l81 33q22 -100 87 -162t181 -62q104 0 174 62t81 173h-316v87h316q-9 70 -45 122.5t-91 80t-119 27.5q-92 0 -150.5 -51.5t-76.5 -135.5l-84 38q28 101 106.5 167t207.5 66q101 0 180 -46.5t123 -128.5t44 -185q0 -104 -42 -185.5t-121.5 -128
t-187.5 -46.5q-140 0 -230 76zM259.5 802.5q-16.5 16.5 -16.5 39.5t16.5 39.5t39.5 16.5t39.5 -16.5t16.5 -39.5t-16.5 -39.5t-39.5 -16.5t-39.5 16.5zM432.5 802.5q-16.5 16.5 -16.5 39.5t16.5 39.5t39.5 16.5t39.5 -16.5t16.5 -39.5t-16.5 -39.5t-39.5 -16.5t-39.5 16.5z
" />
    <glyph glyph-name="uni04F0.ss01" horiz-adv-x="690" 
d="M292 265l-276 435h110l219 -351l220 351h109l-444 -700h-111zM219.5 802.5q-16.5 16.5 -16.5 39.5t16.5 39.5t39.5 16.5t39.5 -16.5t16.5 -39.5t-16.5 -39.5t-39.5 -16.5t-39.5 16.5zM392.5 802.5q-16.5 16.5 -16.5 39.5t16.5 39.5t39.5 16.5t39.5 -16.5t16.5 -39.5
t-16.5 -39.5t-39.5 -16.5t-39.5 16.5z" />
    <glyph glyph-name="uni04F4.ss01" horiz-adv-x="680" 
d="M513 241q-34 -38 -86.5 -60.5t-118.5 -22.5q-74 0 -128 31.5t-82.5 88t-28.5 130.5v292h92v-278q0 -87 44.5 -132t123.5 -45q101 0 184 101v354h92v-700h-92v241zM209.5 802.5q-16.5 16.5 -16.5 39.5t16.5 39.5t39.5 16.5t39.5 -16.5t16.5 -39.5t-16.5 -39.5t-39.5 -16.5
t-39.5 16.5zM382.5 802.5q-16.5 16.5 -16.5 39.5t16.5 39.5t39.5 16.5t39.5 -16.5t16.5 -39.5t-16.5 -39.5t-39.5 -16.5t-39.5 16.5z" />
    <glyph glyph-name="uni04F8.ss01" horiz-adv-x="931" 
d="M76 700h92v-297h246q65 0 116 -24t80.5 -69.5t29.5 -107.5t-29.5 -107.5t-80.5 -70t-116 -24.5h-338v700zM411 87q59 0 96 31.5t37 83.5t-37 83t-96 31h-243v-229h243zM764 700h92v-700h-92v700zM318.5 802.5q-16.5 16.5 -16.5 39.5t16.5 39.5t39.5 16.5t39.5 -16.5
t16.5 -39.5t-16.5 -39.5t-39.5 -16.5t-39.5 16.5zM491.5 802.5q-16.5 16.5 -16.5 39.5t16.5 39.5t39.5 16.5t39.5 -16.5t16.5 -39.5t-16.5 -39.5t-39.5 -16.5t-39.5 16.5z" />
    <glyph glyph-name="uni0430" unicode="&#x430;" horiz-adv-x="515" 
d="M90.5 29.5q-45.5 39.5 -45.5 105.5q0 73 49.5 110t126.5 37q53 0 101 -15l43 -12v49q0 52 -33 79.5t-86 27.5q-51 0 -84 -26t-42 -72l-78 22q14 68 67.5 108.5t136.5 40.5q97 0 149.5 -49.5t52.5 -137.5v-297h-83v75q-18 -38 -62 -61.5t-101 -23.5q-66 0 -111.5 39.5z
M327.5 95.5q37.5 29.5 37.5 81.5v10l-44 13q-50 15 -88 15q-46 0 -72.5 -19t-26.5 -56q0 -33 25 -53.5t72 -20.5q59 0 96.5 29.5z" />
    <glyph glyph-name="uni0431" unicode="&#x431;" horiz-adv-x="559" 
d="M98 75.5q-60 85.5 -60 214.5q0 142 69.5 224.5t184.5 115.5q57 16 87 29t43 30.5t10 45.5h79l1 -16q0 -63 -46 -99t-133 -57q-94 -24 -142.5 -70t-63.5 -119q24 51 70 80.5t108 29.5q69 0 118 -34t74 -90.5t25 -124.5t-30 -124t-84 -88.5t-123 -32.5q-127 0 -187 85.5z
M390.5 113.5q42.5 45.5 42.5 121.5t-43 123.5t-109 47.5q-67 0 -110 -47.5t-43 -123.5q0 -49 20 -87t55 -59t78 -21q67 0 109.5 45.5z" />
    <glyph glyph-name="uni0432" unicode="&#x432;" horiz-adv-x="528" 
d="M67 474h244q71 0 113 -34t42 -92q0 -36 -21.5 -65.5t-56.5 -40.5q42 -9 67.5 -36.5t25.5 -73.5q0 -58 -43.5 -95t-111.5 -37h-259v474zM310 278q33 0 51 15.5t18 43.5t-18 43.5t-51 15.5h-157v-118h157zM320 78q34 0 54 17t20 46t-19.5 45.5t-54.5 16.5h-167v-125h167z
" />
    <glyph glyph-name="uni0433" unicode="&#x433;" horiz-adv-x="405" 
d="M67 474h318v-81h-232v-393h-86v474z" />
    <glyph glyph-name="uni0453" unicode="&#x453;" horiz-adv-x="405" 
d="M67 474h318v-81h-232v-393h-86v474zM272 688h117v-14l-121 -119h-83z" />
    <glyph glyph-name="uni0491" unicode="&#x491;" horiz-adv-x="405" 
d="M385 585v-192h-232v-393h-86v474h232v111h86z" />
    <glyph glyph-name="uni0434" unicode="&#x434;" horiz-adv-x="566" 
d="M33 78h45q33 65 44 121.5t11 142.5v132h344v-396h56v-188h-81v110h-338v-110h-81v188zM393 78v318h-176v-54q0 -84 -11.5 -143.5t-36.5 -120.5h224z" />
    <glyph glyph-name="uni0435" unicode="&#x435;" horiz-adv-x="522" 
d="M366 93.5q34 27.5 48 78.5l75 -29q-24 -72 -77 -112.5t-135 -40.5q-69 0 -123.5 30.5t-85 87t-30.5 132.5q0 68 28 123.5t79.5 88t118.5 32.5q95 0 153 -54.5t58 -147.5q0 -31 -6 -58h-343q1 -77 44.5 -117.5t106.5 -40.5q55 0 89 27.5zM170.5 375q-37.5 -33 -44.5 -89
h263l1 14q0 51 -36.5 79.5t-90.5 28.5q-55 0 -92.5 -33z" />
    <glyph glyph-name="uni0450" unicode="&#x450;" horiz-adv-x="522" 
d="M366 93.5q34 27.5 48 78.5l75 -29q-24 -72 -77 -112.5t-135 -40.5q-69 0 -123.5 30.5t-85 87t-30.5 132.5q0 68 28 123.5t79.5 88t118.5 32.5q95 0 153 -54.5t58 -147.5q0 -31 -6 -58h-343q1 -77 44.5 -117.5t106.5 -40.5q55 0 89 27.5zM170.5 375q-37.5 -33 -44.5 -89
h263l1 14q0 51 -36.5 79.5t-90.5 28.5q-55 0 -92.5 -33zM102 674v14h117l87 -133h-83z" />
    <glyph glyph-name="uni0451" unicode="&#x451;" horiz-adv-x="522" 
d="M366 93.5q34 27.5 48 78.5l75 -29q-24 -72 -77 -112.5t-135 -40.5q-69 0 -123.5 30.5t-85 87t-30.5 132.5q0 68 28 123.5t79.5 88t118.5 32.5q95 0 153 -54.5t58 -147.5q0 -31 -6 -58h-343q1 -77 44.5 -117.5t106.5 -40.5q55 0 89 27.5zM170.5 375q-37.5 -33 -44.5 -89
h263l1 14q0 51 -36.5 79.5t-90.5 28.5q-55 0 -92.5 -33zM131 666h97v-99h-97v99zM298 666h97v-99h-97v99z" />
    <glyph glyph-name="uni0436" unicode="&#x436;" horiz-adv-x="711" 
d="M242 250l-210 224h109l171 -191v191h87v-191l171 191h108l-209 -224l218 -250h-107l-181 212v-212h-87v212l-181 -212h-108z" />
    <glyph glyph-name="uni0437" unicode="&#x437;" horiz-adv-x="452" 
d="M96 33q-51 43 -63 109l75 34q8 -49 38 -78.5t84 -29.5q44 0 71 18.5t27 54.5q0 29 -21 45t-56 16h-43v76h33q32 0 54 17.5t22 49.5t-23 48t-60 16q-78 0 -102 -86l-74 37q22 59 67 91.5t109 32.5q73 0 120 -36t47 -98q0 -41 -22.5 -70t-59.5 -39q40 -9 66.5 -34.5
t26.5 -73.5q0 -42 -25.5 -74.5t-68.5 -50.5t-95 -18q-76 0 -127 43z" />
    <glyph glyph-name="uni0438" unicode="&#x438;" horiz-adv-x="576" 
d="M67 474h86v-390l224 390h133v-474h-87v390l-224 -390h-132v474z" />
    <glyph glyph-name="uni0439" unicode="&#x439;" horiz-adv-x="576" 
d="M67 474h86v-390l224 390h133v-474h-87v390l-224 -390h-132v474zM410 663q0 -53 -35 -81t-87 -28t-87 28t-35 81q0 9 1 14h68l-1 -11q0 -22 14.5 -36t39.5 -14t39.5 14t14.5 36l-1 11h68q1 -5 1 -14z" />
    <glyph glyph-name="uni045D" unicode="&#x45d;" horiz-adv-x="576" 
d="M67 474h86v-390l224 390h133v-474h-87v390l-224 -390h-132v474zM126 674v14h117l87 -133h-83z" />
    <glyph glyph-name="uni043A" unicode="&#x43a;" horiz-adv-x="467" 
d="M67 474h86v-191l171 191h111l-210 -224l219 -250h-110l-181 212v-212h-86v474z" />
    <glyph glyph-name="uni045C" unicode="&#x45c;" horiz-adv-x="467" 
d="M67 474h86v-191l171 191h111l-210 -224l219 -250h-110l-181 212v-212h-86v474zM278 688h117v-14l-121 -119h-83z" />
    <glyph glyph-name="uni043B" unicode="&#x43b;" horiz-adv-x="522" 
d="M26 14q30 55 45.5 126t15.5 190v144h368v-474h-87v396h-194v-50q0 -137 -17.5 -215t-44.5 -131h-86v14z" />
    <glyph glyph-name="uni043C" unicode="&#x43c;" horiz-adv-x="702" 
d="M635 0h-87v398l-137 -398h-121l-137 398v-398h-86v474h146l138 -401l138 401h146v-474z" />
    <glyph glyph-name="uni043D" unicode="&#x43d;" horiz-adv-x="546" 
d="M153 282h240v192h87v-474h-87v204h-240v-204h-86v474h86v-192z" />
    <glyph glyph-name="uni043E" unicode="&#x43e;" horiz-adv-x="556" 
d="M152.5 22.5q-54.5 32.5 -84.5 88.5t-30 126t30 126t84.5 88.5t125.5 32.5t126 -32.5t85 -88.5t30 -126t-30.5 -126t-85 -88.5t-125.5 -32.5t-125.5 32.5zM387.5 115q42.5 47 42.5 122q0 74 -42.5 121.5t-109.5 47.5q-44 0 -78.5 -21.5t-54 -60t-19.5 -87.5t19.5 -87.5
t54 -60t78.5 -21.5q67 0 109.5 47z" />
    <glyph glyph-name="uni043F" unicode="&#x43f;" horiz-adv-x="541" 
d="M67 474h407v-474h-86v396h-235v-396h-86v474z" />
    <glyph glyph-name="uni0440" unicode="&#x440;" horiz-adv-x="573" 
d="M149 474v-89q23 43 70 71t100 28q63 0 112.5 -31t76.5 -87t27 -129t-28.5 -129t-79 -87t-114.5 -31q-51 0 -93.5 22t-66.5 62v-272h-86v672h82zM171 145.5q22 -38.5 56.5 -58.5t71.5 -20q39 0 73.5 19t55.5 57.5t21 92.5t-21 92.5t-55.5 58t-73.5 19.5q-37 0 -71.5 -20.5
t-56.5 -59t-22 -90.5t22 -90.5z" />
    <glyph glyph-name="uni0441" unicode="&#x441;" horiz-adv-x="550" 
d="M145 148q23 -40 60.5 -61t79.5 -21q69 0 106 37.5t51 104.5l77 -29q-20 -90 -81.5 -139.5t-150.5 -49.5q-74 0 -130.5 31t-87.5 88t-31 131q0 70 32.5 126t87 87t118.5 31q86 0 144.5 -45t75.5 -126l-79 -24q-11 56 -47.5 87.5t-94.5 31.5q-37 0 -72 -19t-58 -57t-23 -92
q0 -52 23 -92z" />
    <glyph glyph-name="uni0442" unicode="&#x442;" horiz-adv-x="415" 
d="M164 396h-149v78h385v-78h-149v-396h-87v396z" />
    <glyph glyph-name="uni0443" unicode="&#x443;" horiz-adv-x="481" 
d="M468 474l-304 -672h-92l117 259l-181 413h94l133 -312l141 312h92z" />
    <glyph glyph-name="uni045E" unicode="&#x45e;" horiz-adv-x="481" 
d="M468 474l-304 -672h-92l117 259l-181 413h94l133 -312l141 312h92zM357 663q0 -53 -35 -81t-87 -28t-87 28t-35 81q0 9 1 14h68l-1 -11q0 -22 14.5 -36t39.5 -14t39.5 14t14.5 36l-1 11h68q1 -5 1 -14z" />
    <glyph glyph-name="uni0444" unicode="&#x444;" horiz-adv-x="893" 
d="M403 67q-26 -37 -66.5 -57t-85.5 -20q-61 0 -109.5 31.5t-76 87.5t-27.5 127q0 75 27.5 131t75 86.5t108.5 30.5q52 0 92 -22.5t62 -62.5v301h87v-301q21 40 61.5 62.5t92.5 22.5q61 0 108.5 -30.5t75 -86.5t27.5 -131q0 -71 -27.5 -127t-76.5 -87.5t-110 -31.5
q-45 0 -85 20t-66 57v-265h-87v265zM336.5 87q32.5 20 52 58t19.5 91q0 52 -19.5 90.5t-52 58.5t-70.5 20q-63 0 -102.5 -45.5t-39.5 -123.5q0 -79 39.5 -124t102.5 -45q38 0 70.5 20zM729 112q39 45 39 124q0 78 -39.5 123.5t-102.5 45.5q-38 0 -70 -20t-51.5 -58
t-19.5 -91t19.5 -91t51.5 -58t70 -20q64 0 103 45z" />
    <glyph glyph-name="uni0445" unicode="&#x445;" horiz-adv-x="468" 
d="M282 251l173 -251h-99l-122 183l-122 -183h-99l174 250l-154 224h101l100 -154l99 154h101z" />
    <glyph glyph-name="uni0447" unicode="&#x447;" horiz-adv-x="547" 
d="M394 474h86v-474h-86v187q-23 -33 -64.5 -54.5t-99.5 -21.5q-78 0 -120.5 46.5t-42.5 123.5v193h86v-177q0 -55 27.5 -83.5t77.5 -28.5q42 0 74.5 18t61.5 55v216z" />
    <glyph glyph-name="uni0446" unicode="&#x446;" horiz-adv-x="570" 
d="M456 0h-389v474h86v-396h231v396h87v-396h66v-188h-81v110z" />
    <glyph glyph-name="uni0448" unicode="&#x448;" horiz-adv-x="780" 
d="M67 474h86v-396h194v396h86v-396h194v396h86v-474h-646v474z" />
    <glyph glyph-name="uni0449" unicode="&#x449;" horiz-adv-x="812" 
d="M698 0h-631v474h86v-396h194v396h86v-396h194v396h86v-396h66v-188h-81v110z" />
    <glyph glyph-name="uni045F" unicode="&#x45f;" horiz-adv-x="540" 
d="M230 0h-163v474h86v-396h234v396h87v-474h-163v-110h-81v110z" />
    <glyph glyph-name="uni044C" unicode="&#x44c;" horiz-adv-x="499" 
d="M67 474h86v-171h141q73 0 115.5 -42.5t42.5 -106.5q0 -42 -19.5 -77t-55 -56t-83.5 -21h-227v474zM290 78q35 0 56.5 20.5t21.5 52.5q0 33 -21.5 53t-56.5 20h-137v-146h137z" />
    <glyph glyph-name="uni044A" unicode="&#x44a;" horiz-adv-x="576" 
d="M144 396h-125v78h212v-171h140q73 0 115.5 -42.5t42.5 -106.5q0 -42 -19 -77t-55 -56t-84 -21h-227v396zM368 78q34 0 55.5 20.5t21.5 52.5q0 33 -21 53t-56 20h-137v-146h137z" />
    <glyph glyph-name="uni044B" unicode="&#x44b;" horiz-adv-x="719" 
d="M67 474h86v-171h141q73 0 115.5 -42.5t42.5 -106.5q0 -42 -19.5 -77t-55 -56t-83.5 -21h-227v474zM290 78q35 0 56.5 20.5t21.5 52.5q0 33 -21.5 53t-56.5 20h-137v-146h137zM652 474v-474h-86v474h86z" />
    <glyph glyph-name="uni0459" unicode="&#x459;" horiz-adv-x="779" 
d="M26 14q30 55 45.5 126t15.5 190v144h347v-171h141q73 0 115 -42.5t42 -106.5q0 -42 -19 -77t-54.5 -56t-83.5 -21h-228v396h-173v-50q0 -137 -17.5 -215t-44.5 -131h-86v14zM571 78q34 0 56 20.5t22 52.5q0 33 -21.5 53t-56.5 20h-137v-146h137z" />
    <glyph glyph-name="uni045A" unicode="&#x45a;" horiz-adv-x="806" 
d="M67 474h86v-192h225v192h86v-192h140q72 0 114 -38.5t42 -102.5q0 -65 -41.5 -103t-114.5 -38h-226v204h-225v-204h-86v474zM601 78q35 0 55 16t20 47t-20 47t-55 16h-137v-126h137z" />
    <glyph glyph-name="uni0455" unicode="&#x455;" horiz-adv-x="472" 
d="M107.5 26.5q-53.5 36.5 -74.5 97.5l71 37q20 -50 53.5 -72.5t87.5 -22.5q47 0 74.5 19t27.5 50q0 34 -26.5 53.5t-98.5 29.5q-163 24 -163 136q0 57 48.5 93.5t122.5 36.5q67 0 108 -27.5t63 -77.5l-67 -37q-12 36 -39 54t-65 18q-39 0 -65.5 -16.5t-26.5 -44.5
q0 -31 28.5 -46.5t98.5 -25.5q166 -23 166 -141q0 -44 -25 -78t-68.5 -53t-96.5 -19q-80 0 -133.5 36.5z" />
    <glyph glyph-name="uni0454" unicode="&#x454;" horiz-adv-x="550" 
d="M519 179q-20 -90 -81.5 -139.5t-150.5 -49.5q-74 0 -130.5 31t-87.5 88t-31 131q0 72 31 127.5t84.5 86t119.5 30.5q87 0 145.5 -44.5t77.5 -126.5l-79 -24q-11 56 -47.5 87.5t-94.5 31.5q-51 0 -95 -33t-55 -97h173v-76h-173q12 -64 56.5 -100t103.5 -36q69 0 106 37.5
t51 104.5z" />
    <glyph glyph-name="uni044D" unicode="&#x44d;" horiz-adv-x="550" 
d="M397 453.5q54 -30.5 85 -86t31 -127.5q0 -74 -31 -131t-88 -88t-131 -31q-89 0 -150.5 49.5t-80.5 139.5l77 29q13 -66 50 -104t107 -38q59 0 103.5 36t56.5 100h-174v76h174q-11 64 -55 97t-96 33q-57 0 -93.5 -31.5t-48.5 -87.5l-78 24q19 82 77 126.5t146 44.5
q65 0 119 -30.5z" />
    <glyph glyph-name="uni0456" unicode="&#x456;" horiz-adv-x="220" 
d="M153 474v-474h-86v474h86zM62 663h96v-101h-96v101z" />
    <glyph glyph-name="uni0457" unicode="&#x457;" horiz-adv-x="220" 
d="M153 474v-474h-86v474h86zM-23 666h97v-99h-97v99zM144 666h97v-99h-97v99z" />
    <glyph glyph-name="uni0458" unicode="&#x458;" horiz-adv-x="220" 
d="M67 474h86v-672h-86v672zM62 663h96v-101h-96v101z" />
    <glyph glyph-name="uni045B" unicode="&#x45b;" horiz-adv-x="555" 
d="M443.5 436q45.5 -48 45.5 -129v-307h-87v287q0 61 -29.5 92t-83.5 31q-38 0 -69 -20.5t-49 -58.5t-18 -86v-245h-86v562h-67v70h67v68h86v-68h152v-70h-152v-188q20 51 64.5 80.5t102.5 29.5q78 0 123.5 -48z" />
    <glyph glyph-name="uni044E" unicode="&#x44e;" horiz-adv-x="753" 
d="M600.5 451.5q54.5 -32.5 84.5 -89t30 -126.5t-30 -126t-84.5 -88t-125.5 -32q-66 0 -118 27.5t-83.5 76t-37.5 110.5h-83v-204h-86v474h86v-192h85q14 89 78 145.5t159 56.5q71 0 125.5 -32.5zM584 114.5q43 46.5 43 121.5q0 49 -19.5 88t-54 60.5t-78.5 21.5t-79 -21.5
t-54.5 -60.5t-19.5 -88q0 -75 43 -121.5t110 -46.5q66 0 109 46.5z" />
    <glyph glyph-name="uni044F" unicode="&#x44f;" horiz-adv-x="496" 
d="M180 190q-61 0 -102 40t-41 102t41 102t114 40h237v-474h-86v190h-60l-157 -190h-93v10zM343 396h-145q-36 0 -55.5 -18t-19.5 -49q0 -30 19.5 -47t55.5 -17h145v131z" />
    <glyph glyph-name="uni0452" unicode="&#x452;" horiz-adv-x="555" 
d="M443.5 436q45.5 -48 45.5 -129v-383q0 -64 -34.5 -98t-92.5 -34q-51 0 -87 26.5t-43 71.5l81 25q3 -20 15.5 -32t33.5 -12q19 0 29.5 12.5t10.5 35.5v368q0 61 -29.5 92t-83.5 31q-38 0 -69 -20.5t-49 -58.5t-18 -86v-245h-86v562h-67v70h67v68h86v-68h152v-70h-152v-188
q20 51 64.5 80.5t102.5 29.5q78 0 123.5 -48z" />
    <glyph glyph-name="uni0463" unicode="&#x463;" horiz-adv-x="479" 
d="M373.5 329.5q58.5 -49.5 58.5 -140.5t-58 -140t-152 -49h-155v526h-123v78h123v96h86v-96h160v-78h-160v-147h69q93 0 151.5 -49.5zM308.5 107.5q31.5 29.5 31.5 81.5q0 53 -31.5 82t-90.5 29h-65v-222h65q59 0 90.5 29.5z" />
    <glyph glyph-name="uni0473" unicode="&#x473;" horiz-adv-x="556" 
d="M404 451q55 -33 85 -89.5t30 -126.5t-30.5 -125.5t-85 -87.5t-125.5 -32t-125.5 32t-84.5 87.5t-30 125.5t30 126.5t85 89.5t125 33q71 0 126 -33zM181 370q-40 -36 -51 -95q30 18 72 18q23 0 43 -6.5t44 -17.5q27 -11 40.5 -15.5t29.5 -4.5q41 0 67 26q-11 59 -51 95
t-97 36t-97 -36zM376.5 104q40.5 36 50.5 96q-30 -18 -72 -18q-23 0 -42.5 6t-44.5 18q-23 11 -38.5 16t-32.5 5q-42 0 -68 -28q11 -60 51 -95.5t98 -35.5t98.5 36z" />
    <glyph glyph-name="uni0475" unicode="&#x475;" horiz-adv-x="556" 
d="M19 474h91l149 -390l123 326q17 44 43 64.5t65 20.5q59 0 87 -54l-59 -53q-8 19 -27 19q-21 0 -29 -24l-151 -383h-105z" />
    <glyph glyph-name="uni0493" unicode="&#x493;" horiz-adv-x="418" 
d="M170 393v-123h119v-68h-119v-202h-87v202h-65v68h65v204h318v-81h-231z" />
    <glyph glyph-name="uni0497" unicode="&#x497;" horiz-adv-x="711" 
d="M700 73v-183h-76v110h-44l-181 212v-212h-87v212l-181 -212h-108l219 250l-210 224h109l171 -191v191h87v-191l171 191h108l-209 -224l155 -178v1h76z" />
    <glyph glyph-name="uni0499" unicode="&#x499;" horiz-adv-x="452" 
d="M220 -10q-7 -20 -19 -43q9 10 22.5 16.5t26.5 6.5q34 0 56 -20.5t22 -56.5q0 -37 -23.5 -59t-61.5 -22q-34 0 -58 17t-30 50l47 12q2 -15 12.5 -24.5t27.5 -9.5q19 0 29 10t10 26t-10 26.5t-29 10.5q-12 0 -23 -6t-16 -15l-46 9q9 32 18 77q-57 13 -94.5 53t-47.5 94
l75 34q8 -49 38 -78.5t84 -29.5q44 0 71 18.5t27 54.5q0 29 -21 45t-56 16h-43v76h33q32 0 54 17.5t22 49.5t-23 48t-60 16q-78 0 -102 -86l-74 37q22 59 67 91.5t109 32.5q73 0 120 -36t47 -98q0 -41 -22.5 -70t-59.5 -39q40 -9 66.5 -34.5t26.5 -73.5q0 -42 -25.5 -74.5
t-68.5 -50.5t-95 -18h-3z" />
    <glyph glyph-name="uni049B" unicode="&#x49b;" horiz-adv-x="467" 
d="M457 73v-183h-77v110h-46l-181 212v-212h-86v474h86v-191l171 191h111l-210 -224l155 -177h77z" />
    <glyph glyph-name="uni04A1" unicode="&#x4a1;" horiz-adv-x="534" 
d="M511 0h-109l-181 212v-212h-87v404h-119v70h206v-191l171 191h110l-210 -224z" />
    <glyph glyph-name="uni04A3" unicode="&#x4a3;" horiz-adv-x="566" 
d="M554 73v-183h-77v110h-84v204h-240v-204h-86v474h86v-192h240v192h87v-401h74z" />
    <glyph glyph-name="uni04AB" unicode="&#x4ab;" horiz-adv-x="550" 
d="M275 -10q-8 -20 -19 -43q9 10 22.5 16.5t27.5 6.5q34 0 55.5 -20.5t21.5 -56.5q0 -37 -23.5 -59t-60.5 -22q-35 0 -59 17t-30 50l47 12q2 -15 12.5 -24.5t27.5 -9.5q19 0 29 10t10 26t-10 26.5t-29 10.5q-12 0 -22.5 -6t-15.5 -15l-47 9q9 32 18 77q-89 17 -140.5 82.5
t-51.5 162.5q0 70 32.5 126t87 87t118.5 31q86 0 144.5 -45t75.5 -126l-79 -24q-11 56 -47.5 87.5t-94.5 31.5q-37 0 -72 -19t-58 -57t-23 -92q0 -52 23 -92t60.5 -61t79.5 -21q69 0 106 37.5t51 104.5l77 -29q-20 -90 -81.5 -139.5t-150.5 -49.5h-12z" />
    <glyph glyph-name="uni04AF" unicode="&#x4af;" horiz-adv-x="517" 
d="M216 0l-197 474h91l149 -377l148 377h91l-196 -474v-198h-86v198z" />
    <glyph glyph-name="uni04B1" unicode="&#x4b1;" horiz-adv-x="517" 
d="M316 33h86v-66h-100v-165h-86v165h-100v66h86l-183 441h91l149 -377l148 377h91z" />
    <glyph glyph-name="uni04B3" unicode="&#x4b3;" horiz-adv-x="468" 
d="M465 73v-183h-76v110h-33l-122 183l-122 -183h-99l174 250l-154 224h101l100 -154l99 154h101l-152 -223l123 -178h60z" />
    <glyph glyph-name="uni04B7" unicode="&#x4b7;" horiz-adv-x="569" 
d="M394 474h86v-474h-86v187q-23 -33 -64.5 -54.5t-99.5 -21.5q-78 0 -120.5 46.5t-42.5 123.5v193h86v-177q0 -55 27.5 -83.5t77.5 -28.5q42 0 74.5 18t61.5 55v216zM480 73h77v-183h-77v183z" />
    <glyph glyph-name="uni04BB" unicode="&#x4bb;" horiz-adv-x="555" 
d="M67 0v700h86v-326q20 51 64.5 80.5t102.5 29.5q78 0 123.5 -48t45.5 -129v-307h-87v287q0 61 -29.5 92t-83.5 31q-38 0 -69 -20.5t-49 -58.5t-18 -86v-245h-86z" />
    <glyph glyph-name="uni0527" unicode="&#x527;" horiz-adv-x="577" 
d="M67 0v700h86v-326q20 51 64.5 80.5t102.5 29.5q78 0 123.5 -48t45.5 -129v-307h-87v287q0 61 -29.5 92t-83.5 31q-38 0 -69 -20.5t-49 -58.5t-18 -86v-245h-86zM489 73h77v-183h-77v183z" />
    <glyph glyph-name="uni04CF" unicode="&#x4cf;" horiz-adv-x="220" 
d="M67 700h86v-700h-86v700z" />
    <glyph glyph-name="uni04C2" unicode="&#x4c2;" horiz-adv-x="711" 
d="M242 250l-210 224h109l171 -191v191h87v-191l171 191h108l-209 -224l218 -250h-107l-181 212v-212h-87v212l-181 -212h-108zM478 663q0 -53 -35 -81t-87 -28t-87 28t-35 81q0 9 1 14h68l-1 -11q0 -22 14.5 -36t39.5 -14t39.5 14t14.5 36l-1 11h68q1 -5 1 -14z" />
    <glyph glyph-name="uni04D1" unicode="&#x4d1;" horiz-adv-x="515" 
d="M90.5 29.5q-45.5 39.5 -45.5 105.5q0 73 49.5 110t126.5 37q53 0 101 -15l43 -12v49q0 52 -33 79.5t-86 27.5q-51 0 -84 -26t-42 -72l-78 22q14 68 67.5 108.5t136.5 40.5q97 0 149.5 -49.5t52.5 -137.5v-297h-83v75q-18 -38 -62 -61.5t-101 -23.5q-66 0 -111.5 39.5z
M327.5 95.5q37.5 29.5 37.5 81.5v10l-44 13q-50 15 -88 15q-46 0 -72.5 -19t-26.5 -56q0 -33 25 -53.5t72 -20.5q59 0 96.5 29.5zM368 663q0 -53 -35 -81t-87 -28t-87 28t-35 81q0 9 1 14h68l-1 -11q0 -22 14.5 -36t39.5 -14t39.5 14t14.5 36l-1 11h68q1 -5 1 -14z" />
    <glyph glyph-name="uni04D3" unicode="&#x4d3;" horiz-adv-x="515" 
d="M90.5 29.5q-45.5 39.5 -45.5 105.5q0 73 49.5 110t126.5 37q53 0 101 -15l43 -12v49q0 52 -33 79.5t-86 27.5q-51 0 -84 -26t-42 -72l-78 22q14 68 67.5 108.5t136.5 40.5q97 0 149.5 -49.5t52.5 -137.5v-297h-83v75q-18 -38 -62 -61.5t-101 -23.5q-66 0 -111.5 39.5z
M327.5 95.5q37.5 29.5 37.5 81.5v10l-44 13q-50 15 -88 15q-46 0 -72.5 -19t-26.5 -56q0 -33 25 -53.5t72 -20.5q59 0 96.5 29.5zM113 666h97v-99h-97v99zM280 666h97v-99h-97v99z" />
    <glyph glyph-name="uni04D5" unicode="&#x4d5;" horiz-adv-x="844" 
d="M90 32q-45 42 -45 106q0 73 48 110.5t128 37.5h140v18q0 52 -32 79.5t-87 27.5q-50 0 -83 -24.5t-42 -68.5l-75 21q16 70 68 107.5t132 37.5q62 0 106.5 -22t67.5 -62q28 39 73 61.5t98 22.5q94 0 152.5 -54.5t58.5 -147.5q0 -22 -6 -58h-343q1 -77 44 -118t107 -41
q55 0 89 28t48 79l74 -29q-24 -72 -76.5 -112.5t-134.5 -40.5q-67 0 -118.5 30t-76.5 83q-60 -113 -198 -113q-72 0 -117 42zM711 286q1 5 1 14q0 51 -36.5 79.5t-90.5 28.5q-55 0 -92.5 -33t-44.5 -89h263zM324 98.5q37 32.5 37 88.5v33h-123q-48 0 -77 -21t-29 -59
q0 -36 25 -55t69 -19q61 0 98 32.5z" />
    <glyph glyph-name="uni04D7" unicode="&#x4d7;" horiz-adv-x="522" 
d="M366 93.5q34 27.5 48 78.5l75 -29q-24 -72 -77 -112.5t-135 -40.5q-69 0 -123.5 30.5t-85 87t-30.5 132.5q0 68 28 123.5t79.5 88t118.5 32.5q95 0 153 -54.5t58 -147.5q0 -31 -6 -58h-343q1 -77 44.5 -117.5t106.5 -40.5q55 0 89 27.5zM170.5 375q-37.5 -33 -44.5 -89
h263l1 14q0 51 -36.5 79.5t-90.5 28.5q-55 0 -92.5 -33zM386 663q0 -53 -35 -81t-87 -28t-87 28t-35 81q0 9 1 14h68l-1 -11q0 -22 14.5 -36t39.5 -14t39.5 14t14.5 36l-1 11h68q1 -5 1 -14z" />
    <glyph glyph-name="uni04D9" unicode="&#x4d9;" horiz-adv-x="522" 
d="M155 380.5q-34 -27.5 -48 -78.5l-74 29q24 72 76.5 112.5t134.5 40.5q70 0 124.5 -30.5t85 -87t30.5 -132.5q0 -67 -28.5 -123t-80 -88.5t-118.5 -32.5q-94 0 -152.5 54.5t-58.5 147.5q0 22 6 58h343q-1 77 -44 117.5t-107 40.5q-55 0 -89 -27.5zM350.5 99
q37.5 33 44.5 90h-262l-1 -15q0 -52 36.5 -80t89.5 -28q55 0 92.5 33z" />
    <glyph glyph-name="uni04DB" unicode="&#x4db;" horiz-adv-x="522" 
d="M155 380.5q-34 -27.5 -48 -78.5l-74 29q24 72 76.5 112.5t134.5 40.5q70 0 124.5 -30.5t85 -87t30.5 -132.5q0 -67 -28.5 -123t-80 -88.5t-118.5 -32.5q-94 0 -152.5 54.5t-58.5 147.5q0 22 6 58h343q-1 77 -44 117.5t-107 40.5q-55 0 -89 -27.5zM350.5 99
q37.5 33 44.5 90h-262l-1 -15q0 -52 36.5 -80t89.5 -28q55 0 92.5 33zM125 666h97v-99h-97v99zM292 666h97v-99h-97v99z" />
    <glyph glyph-name="uni04DD" unicode="&#x4dd;" horiz-adv-x="711" 
d="M242 250l-210 224h109l171 -191v191h87v-191l171 191h108l-209 -224l218 -250h-107l-181 212v-212h-87v212l-181 -212h-108zM223 666h97v-99h-97v99zM390 666h97v-99h-97v99z" />
    <glyph glyph-name="uni04DF" unicode="&#x4df;" horiz-adv-x="452" 
d="M96 33q-51 43 -63 109l75 34q8 -49 38 -78.5t84 -29.5q44 0 71 18.5t27 54.5q0 29 -21 45t-56 16h-43v76h33q32 0 54 17.5t22 49.5t-23 48t-60 16q-78 0 -102 -86l-74 37q22 59 67 91.5t109 32.5q73 0 120 -36t47 -98q0 -41 -22.5 -70t-59.5 -39q40 -9 66.5 -34.5
t26.5 -73.5q0 -42 -25.5 -74.5t-68.5 -50.5t-95 -18q-76 0 -127 43zM102 666h97v-99h-97v99zM269 666h97v-99h-97v99z" />
    <glyph glyph-name="uni04E3" unicode="&#x4e3;" horiz-adv-x="576" 
d="M67 474h86v-390l224 390h133v-474h-87v390l-224 -390h-132v474zM414 650v-69h-254v69h254z" />
    <glyph glyph-name="uni04E5" unicode="&#x4e5;" horiz-adv-x="576" 
d="M67 474h86v-390l224 390h133v-474h-87v390l-224 -390h-132v474zM155 666h97v-99h-97v99zM322 666h97v-99h-97v99z" />
    <glyph glyph-name="uni04E7" unicode="&#x4e7;" horiz-adv-x="556" 
d="M152.5 22.5q-54.5 32.5 -84.5 88.5t-30 126t30 126t84.5 88.5t125.5 32.5t126 -32.5t85 -88.5t30 -126t-30.5 -126t-85 -88.5t-125.5 -32.5t-125.5 32.5zM387.5 115q42.5 47 42.5 122q0 74 -42.5 121.5t-109.5 47.5q-44 0 -78.5 -21.5t-54 -60t-19.5 -87.5t19.5 -87.5
t54 -60t78.5 -21.5q67 0 109.5 47zM145 666h97v-99h-97v99zM312 666h97v-99h-97v99z" />
    <glyph glyph-name="uni04E9" unicode="&#x4e9;" horiz-adv-x="556" 
d="M152.5 22q-54.5 32 -84.5 88t-30 126t30 126.5t84.5 89t125.5 32.5t126 -32.5t85 -89t30 -126.5t-30.5 -126t-85 -88t-125.5 -32t-125.5 32zM427 270q-9 62 -50 99t-99 37t-99 -37t-50 -99h298zM378 105q41 37 50 99h-299q9 -62 49.5 -99t99.5 -37t100 37z" />
    <glyph glyph-name="uni04EB" unicode="&#x4eb;" horiz-adv-x="556" 
d="M152.5 22q-54.5 32 -84.5 88t-30 126t30 126.5t84.5 89t125.5 32.5t126 -32.5t85 -89t30 -126.5t-30.5 -126t-85 -88t-125.5 -32t-125.5 32zM427 270q-9 62 -50 99t-99 37t-99 -37t-50 -99h298zM378 105q41 37 50 99h-299q9 -62 49.5 -99t99.5 -37t100 37zM145 666h97
v-99h-97v99zM312 666h97v-99h-97v99z" />
    <glyph glyph-name="uni04ED" unicode="&#x4ed;" horiz-adv-x="550" 
d="M397 453.5q54 -30.5 85 -86t31 -127.5q0 -74 -31 -131t-88 -88t-131 -31q-89 0 -150.5 49.5t-80.5 139.5l77 29q13 -66 50 -104t107 -38q59 0 103.5 36t56.5 100h-174v76h174q-11 64 -55 97t-96 33q-57 0 -93.5 -31.5t-48.5 -87.5l-78 24q19 82 77 126.5t146 44.5
q65 0 119 -30.5zM140 666h97v-99h-97v99zM307 666h97v-99h-97v99z" />
    <glyph glyph-name="uni04EF" unicode="&#x4ef;" horiz-adv-x="481" 
d="M468 474l-304 -672h-92l117 259l-181 413h94l133 -312l141 312h92zM361 650v-69h-254v69h254z" />
    <glyph glyph-name="uni04F1" unicode="&#x4f1;" horiz-adv-x="481" 
d="M468 474l-304 -672h-92l117 259l-181 413h94l133 -312l141 312h92zM102 666h97v-99h-97v99zM269 666h97v-99h-97v99z" />
    <glyph glyph-name="uni04F3" unicode="&#x4f3;" horiz-adv-x="481" 
d="M468 474l-304 -672h-92l117 259l-181 413h94l133 -312l141 312h92zM191 688h117v-14l-121 -119h-83zM370 688h117v-14l-121 -119h-83z" />
    <glyph glyph-name="uni04F5" unicode="&#x4f5;" horiz-adv-x="547" 
d="M394 474h86v-474h-86v187q-23 -33 -64.5 -54.5t-99.5 -21.5q-78 0 -120.5 46.5t-42.5 123.5v193h86v-177q0 -55 27.5 -83.5t77.5 -28.5q42 0 74.5 18t61.5 55v216zM140 666h97v-99h-97v99zM307 666h97v-99h-97v99z" />
    <glyph glyph-name="uni04F9" unicode="&#x4f9;" horiz-adv-x="719" 
d="M67 474h86v-171h141q73 0 115.5 -42.5t42.5 -106.5q0 -42 -19.5 -77t-55 -56t-83.5 -21h-227v474zM290 78q35 0 56.5 20.5t21.5 52.5q0 33 -21.5 53t-56.5 20h-137v-146h137zM652 474v-474h-86v474h86zM227 666h97v-99h-97v99zM394 666h97v-99h-97v99z" />
    <glyph glyph-name="uni0451.ss01" horiz-adv-x="522" 
d="M366 93.5q34 27.5 48 78.5l75 -29q-24 -72 -77 -112.5t-135 -40.5q-69 0 -123.5 30.5t-85 87t-30.5 132.5q0 68 28 123.5t79.5 88t118.5 32.5q95 0 153 -54.5t58 -147.5q0 -31 -6 -58h-343q1 -77 44.5 -117.5t106.5 -40.5q55 0 89 27.5zM170.5 375q-37.5 -33 -44.5 -89
h263l1 14q0 51 -36.5 79.5t-90.5 28.5q-55 0 -92.5 -33zM138.5 576.5q-16.5 16.5 -16.5 39.5t16.5 39.5t39.5 16.5t39.5 -16.5t16.5 -39.5t-16.5 -39.5t-39.5 -16.5t-39.5 16.5zM311.5 576.5q-16.5 16.5 -16.5 39.5t16.5 39.5t39.5 16.5t39.5 -16.5t16.5 -39.5t-16.5 -39.5
t-39.5 -16.5t-39.5 16.5z" />
    <glyph glyph-name="uni0456.ss01" horiz-adv-x="220" 
d="M153 474v-474h-86v474h86zM67.5 653.5q16.5 16.5 40.5 16.5q25 0 41.5 -16.5t16.5 -41.5t-16.5 -41.5t-41.5 -16.5q-24 0 -40.5 16.5t-16.5 41.5t16.5 41.5z" />
    <glyph glyph-name="uni0457.ss01" horiz-adv-x="220" 
d="M153 474v-474h-86v474h86zM-15.5 576.5q-16.5 16.5 -16.5 39.5t16.5 39.5t39.5 16.5t39.5 -16.5t16.5 -39.5t-16.5 -39.5t-39.5 -16.5t-39.5 16.5zM157.5 576.5q-16.5 16.5 -16.5 39.5t16.5 39.5t39.5 16.5t39.5 -16.5t16.5 -39.5t-16.5 -39.5t-39.5 -16.5t-39.5 16.5z
" />
    <glyph glyph-name="uni0458.ss01" horiz-adv-x="220" 
d="M67 474h86v-672h-86v672zM67.5 653.5q16.5 16.5 40.5 16.5q25 0 41.5 -16.5t16.5 -41.5t-16.5 -41.5t-41.5 -16.5q-24 0 -40.5 16.5t-16.5 41.5t16.5 41.5z" />
    <glyph glyph-name="uni04D3.ss01" horiz-adv-x="515" 
d="M90.5 29.5q-45.5 39.5 -45.5 105.5q0 73 49.5 110t126.5 37q53 0 101 -15l43 -12v49q0 52 -33 79.5t-86 27.5q-51 0 -84 -26t-42 -72l-78 22q14 68 67.5 108.5t136.5 40.5q97 0 149.5 -49.5t52.5 -137.5v-297h-83v75q-18 -38 -62 -61.5t-101 -23.5q-66 0 -111.5 39.5z
M327.5 95.5q37.5 29.5 37.5 81.5v10l-44 13q-50 15 -88 15q-46 0 -72.5 -19t-26.5 -56q0 -33 25 -53.5t72 -20.5q59 0 96.5 29.5zM119.5 576.5q-16.5 16.5 -16.5 39.5t16.5 39.5t39.5 16.5t39.5 -16.5t16.5 -39.5t-16.5 -39.5t-39.5 -16.5t-39.5 16.5zM292.5 576.5
q-16.5 16.5 -16.5 39.5t16.5 39.5t39.5 16.5t39.5 -16.5t16.5 -39.5t-16.5 -39.5t-39.5 -16.5t-39.5 16.5z" />
    <glyph glyph-name="uni04DB.ss01" horiz-adv-x="522" 
d="M155 380.5q-34 -27.5 -48 -78.5l-74 29q24 72 76.5 112.5t134.5 40.5q70 0 124.5 -30.5t85 -87t30.5 -132.5q0 -67 -28.5 -123t-80 -88.5t-118.5 -32.5q-94 0 -152.5 54.5t-58.5 147.5q0 22 6 58h343q-1 77 -44 117.5t-107 40.5q-55 0 -89 -27.5zM350.5 99
q37.5 33 44.5 90h-262l-1 -15q0 -52 36.5 -80t89.5 -28q55 0 92.5 33zM131.5 576.5q-16.5 16.5 -16.5 39.5t16.5 39.5t39.5 16.5t39.5 -16.5t16.5 -39.5t-16.5 -39.5t-39.5 -16.5t-39.5 16.5zM304.5 576.5q-16.5 16.5 -16.5 39.5t16.5 39.5t39.5 16.5t39.5 -16.5t16.5 -39.5
t-16.5 -39.5t-39.5 -16.5t-39.5 16.5z" />
    <glyph glyph-name="uni04DD.ss01" horiz-adv-x="711" 
d="M242 250l-210 224h109l171 -191v191h87v-191l171 191h108l-209 -224l218 -250h-107l-181 212v-212h-87v212l-181 -212h-108zM229.5 576.5q-16.5 16.5 -16.5 39.5t16.5 39.5t39.5 16.5t39.5 -16.5t16.5 -39.5t-16.5 -39.5t-39.5 -16.5t-39.5 16.5zM402.5 576.5
q-16.5 16.5 -16.5 39.5t16.5 39.5t39.5 16.5t39.5 -16.5t16.5 -39.5t-16.5 -39.5t-39.5 -16.5t-39.5 16.5z" />
    <glyph glyph-name="uni04DF.ss01" horiz-adv-x="452" 
d="M96 33q-51 43 -63 109l75 34q8 -49 38 -78.5t84 -29.5q44 0 71 18.5t27 54.5q0 29 -21 45t-56 16h-43v76h33q32 0 54 17.5t22 49.5t-23 48t-60 16q-78 0 -102 -86l-74 37q22 59 67 91.5t109 32.5q73 0 120 -36t47 -98q0 -41 -22.5 -70t-59.5 -39q40 -9 66.5 -34.5
t26.5 -73.5q0 -42 -25.5 -74.5t-68.5 -50.5t-95 -18q-76 0 -127 43zM108.5 576.5q-16.5 16.5 -16.5 39.5t16.5 39.5t39.5 16.5t39.5 -16.5t16.5 -39.5t-16.5 -39.5t-39.5 -16.5t-39.5 16.5zM281.5 576.5q-16.5 16.5 -16.5 39.5t16.5 39.5t39.5 16.5t39.5 -16.5t16.5 -39.5
t-16.5 -39.5t-39.5 -16.5t-39.5 16.5z" />
    <glyph glyph-name="uni04E5.ss01" horiz-adv-x="576" 
d="M67 474h86v-390l224 390h133v-474h-87v390l-224 -390h-132v474zM162.5 576.5q-16.5 16.5 -16.5 39.5t16.5 39.5t39.5 16.5t39.5 -16.5t16.5 -39.5t-16.5 -39.5t-39.5 -16.5t-39.5 16.5zM335.5 576.5q-16.5 16.5 -16.5 39.5t16.5 39.5t39.5 16.5t39.5 -16.5t16.5 -39.5
t-16.5 -39.5t-39.5 -16.5t-39.5 16.5z" />
    <glyph glyph-name="uni04E7.ss01" horiz-adv-x="556" 
d="M152.5 22.5q-54.5 32.5 -84.5 88.5t-30 126t30 126t84.5 88.5t125.5 32.5t126 -32.5t85 -88.5t30 -126t-30.5 -126t-85 -88.5t-125.5 -32.5t-125.5 32.5zM387.5 115q42.5 47 42.5 122q0 74 -42.5 121.5t-109.5 47.5q-44 0 -78.5 -21.5t-54 -60t-19.5 -87.5t19.5 -87.5
t54 -60t78.5 -21.5q67 0 109.5 47zM152.5 576.5q-16.5 16.5 -16.5 39.5t16.5 39.5t39.5 16.5t39.5 -16.5t16.5 -39.5t-16.5 -39.5t-39.5 -16.5t-39.5 16.5zM325.5 576.5q-16.5 16.5 -16.5 39.5t16.5 39.5t39.5 16.5t39.5 -16.5t16.5 -39.5t-16.5 -39.5t-39.5 -16.5
t-39.5 16.5z" />
    <glyph glyph-name="uni04EB.ss01" horiz-adv-x="556" 
d="M152.5 22q-54.5 32 -84.5 88t-30 126t30 126.5t84.5 89t125.5 32.5t126 -32.5t85 -89t30 -126.5t-30.5 -126t-85 -88t-125.5 -32t-125.5 32zM427 270q-9 62 -50 99t-99 37t-99 -37t-50 -99h298zM378 105q41 37 50 99h-299q9 -62 49.5 -99t99.5 -37t100 37zM152.5 576.5
q-16.5 16.5 -16.5 39.5t16.5 39.5t39.5 16.5t39.5 -16.5t16.5 -39.5t-16.5 -39.5t-39.5 -16.5t-39.5 16.5zM325.5 576.5q-16.5 16.5 -16.5 39.5t16.5 39.5t39.5 16.5t39.5 -16.5t16.5 -39.5t-16.5 -39.5t-39.5 -16.5t-39.5 16.5z" />
    <glyph glyph-name="uni04ED.ss01" horiz-adv-x="550" 
d="M397 453.5q54 -30.5 85 -86t31 -127.5q0 -74 -31 -131t-88 -88t-131 -31q-89 0 -150.5 49.5t-80.5 139.5l77 29q13 -66 50 -104t107 -38q59 0 103.5 36t56.5 100h-174v76h174q-11 64 -55 97t-96 33q-57 0 -93.5 -31.5t-48.5 -87.5l-78 24q19 82 77 126.5t146 44.5
q65 0 119 -30.5zM146.5 576.5q-16.5 16.5 -16.5 39.5t16.5 39.5t39.5 16.5t39.5 -16.5t16.5 -39.5t-16.5 -39.5t-39.5 -16.5t-39.5 16.5zM319.5 576.5q-16.5 16.5 -16.5 39.5t16.5 39.5t39.5 16.5t39.5 -16.5t16.5 -39.5t-16.5 -39.5t-39.5 -16.5t-39.5 16.5z" />
    <glyph glyph-name="uni04F1.ss01" horiz-adv-x="481" 
d="M468 474l-304 -672h-92l117 259l-181 413h94l133 -312l141 312h92zM108.5 576.5q-16.5 16.5 -16.5 39.5t16.5 39.5t39.5 16.5t39.5 -16.5t16.5 -39.5t-16.5 -39.5t-39.5 -16.5t-39.5 16.5zM281.5 576.5q-16.5 16.5 -16.5 39.5t16.5 39.5t39.5 16.5t39.5 -16.5t16.5 -39.5
t-16.5 -39.5t-39.5 -16.5t-39.5 16.5z" />
    <glyph glyph-name="uni04F5.ss01" horiz-adv-x="547" 
d="M394 474h86v-474h-86v187q-23 -33 -64.5 -54.5t-99.5 -21.5q-78 0 -120.5 46.5t-42.5 123.5v193h86v-177q0 -55 27.5 -83.5t77.5 -28.5q42 0 74.5 18t61.5 55v216zM147.5 576.5q-16.5 16.5 -16.5 39.5t16.5 39.5t39.5 16.5t39.5 -16.5t16.5 -39.5t-16.5 -39.5
t-39.5 -16.5t-39.5 16.5zM320.5 576.5q-16.5 16.5 -16.5 39.5t16.5 39.5t39.5 16.5t39.5 -16.5t16.5 -39.5t-16.5 -39.5t-39.5 -16.5t-39.5 16.5z" />
    <glyph glyph-name="uni04F9.ss01" horiz-adv-x="719" 
d="M67 474h86v-171h141q73 0 115.5 -42.5t42.5 -106.5q0 -42 -19.5 -77t-55 -56t-83.5 -21h-227v474zM290 78q35 0 56.5 20.5t21.5 52.5q0 33 -21.5 53t-56.5 20h-137v-146h137zM652 474v-474h-86v474h86zM233.5 576.5q-16.5 16.5 -16.5 39.5t16.5 39.5t39.5 16.5
t39.5 -16.5t16.5 -39.5t-16.5 -39.5t-39.5 -16.5t-39.5 16.5zM406.5 576.5q-16.5 16.5 -16.5 39.5t16.5 39.5t39.5 16.5t39.5 -16.5t16.5 -39.5t-16.5 -39.5t-39.5 -16.5t-39.5 16.5z" />
    <glyph glyph-name="uni0430.ss02" horiz-adv-x="584" 
d="M149 21q-52 31 -81.5 86.5t-29.5 126.5q0 73 29.5 130t81 88.5t115.5 31.5q58 0 101 -24.5t65 -67.5v82h87v-474h-82v85q-60 -95 -169 -95q-65 0 -117 31zM354 86.5q36 19.5 58 57.5t22 91q0 52 -22.5 91t-58 59.5t-74.5 20.5q-40 0 -76 -20.5t-57.5 -59t-21.5 -91.5
t21.5 -91t57 -57.5t76.5 -19.5q39 0 75 19.5z" />
    <glyph glyph-name="uni04D1.ss02" horiz-adv-x="584" 
d="M149 21q-52 31 -81.5 86.5t-29.5 126.5q0 73 29.5 130t81 88.5t115.5 31.5q58 0 101 -24.5t65 -67.5v82h87v-474h-82v85q-60 -95 -169 -95q-65 0 -117 31zM354 86.5q36 19.5 58 57.5t22 91q0 52 -22.5 91t-58 59.5t-74.5 20.5q-40 0 -76 -20.5t-57.5 -59t-21.5 -91.5
t21.5 -91t57 -57.5t76.5 -19.5q39 0 75 19.5zM405 663q0 -53 -35 -81t-87 -28t-87 28t-35 81q0 9 1 14h68l-1 -11q0 -22 14.5 -36t39.5 -14t39.5 14t14.5 36l-1 11h68q1 -5 1 -14z" />
    <glyph glyph-name="uni04D3.ss02" horiz-adv-x="584" 
d="M149 21q-52 31 -81.5 86.5t-29.5 126.5q0 73 29.5 130t81 88.5t115.5 31.5q58 0 101 -24.5t65 -67.5v82h87v-474h-82v85q-60 -95 -169 -95q-65 0 -117 31zM354 86.5q36 19.5 58 57.5t22 91q0 52 -22.5 91t-58 59.5t-74.5 20.5q-40 0 -76 -20.5t-57.5 -59t-21.5 -91.5
t21.5 -91t57 -57.5t76.5 -19.5q39 0 75 19.5zM150 666h97v-99h-97v99zM317 666h97v-99h-97v99z" />
    <glyph glyph-name="uni04D5.ss02" horiz-adv-x="918" 
d="M149 21q-52 31 -81.5 86.5t-29.5 126.5q0 73 29.5 130t81 88.5t115.5 31.5q58 0 101 -24.5t65 -67.5v82h87v-66q21 36 61 56t84 20q94 0 152 -54.5t58 -147.5q0 -22 -6 -58h-343q1 -77 44 -118t107 -41q55 0 89 28t48 79l74 -29q-24 -72 -76.5 -112.5t-134.5 -40.5
q-102 0 -157 78v-68h-82v85q-60 -95 -169 -95q-65 0 -117 31zM785 286q1 5 1 14q0 52 -36.5 80t-89.5 28q-55 0 -92.5 -33t-44.5 -89h262zM354 86.5q36 19.5 58 57.5t22 91q0 52 -22.5 91t-58 59.5t-74.5 20.5q-40 0 -76 -20.5t-57.5 -59t-21.5 -91.5t21.5 -91t57 -57.5
t76.5 -19.5q39 0 75 19.5z" />
    <glyph glyph-name="uni04D3.ss01.ss02" horiz-adv-x="584" 
d="M149 21q-52 31 -81.5 86.5t-29.5 126.5q0 73 29.5 130t81 88.5t115.5 31.5q58 0 101 -24.5t65 -67.5v82h87v-474h-82v85q-60 -95 -169 -95q-65 0 -117 31zM354 86.5q36 19.5 58 57.5t22 91q0 52 -22.5 91t-58 59.5t-74.5 20.5q-40 0 -76 -20.5t-57.5 -59t-21.5 -91.5
t21.5 -91t57 -57.5t76.5 -19.5q39 0 75 19.5zM156.5 576.5q-16.5 16.5 -16.5 39.5t16.5 39.5t39.5 16.5t39.5 -16.5t16.5 -39.5t-16.5 -39.5t-39.5 -16.5t-39.5 16.5zM329.5 576.5q-16.5 16.5 -16.5 39.5t16.5 39.5t39.5 16.5t39.5 -16.5t16.5 -39.5t-16.5 -39.5
t-39.5 -16.5t-39.5 16.5z" />
    <glyph glyph-name="Alpha" unicode="&#x391;" horiz-adv-x="739" 
d="M306 700h128l293 -700h-102l-72 178h-366l-73 -178h-101zM519 262l-149 365l-150 -365h299z" />
    <glyph glyph-name="Beta" unicode="&#x392;" horiz-adv-x="688" 
d="M76 700h317q66 0 116.5 -24t78 -65.5t27.5 -92.5q0 -52 -28.5 -93.5t-76.5 -63.5q61 -20 95.5 -63t34.5 -109q0 -54 -29.5 -97t-81.5 -67.5t-115 -24.5h-338v700zM397 401q59 0 93 28.5t34 79.5q0 49 -37 76.5t-90 27.5h-229v-212h229zM411 87q58 0 95.5 31t37.5 83
q0 51 -37 84.5t-96 33.5h-243v-232h243z" />
    <glyph glyph-name="Gamma" unicode="&#x393;" horiz-adv-x="613" 
d="M168 613v-613h-92v700h507v-87h-415z" />
    <glyph glyph-name="uni0394" unicode="&#x394;" horiz-adv-x="739" 
d="M306 700h128l293 -700h-714zM591 84l-221 544l-221 -544h442z" />
    <glyph glyph-name="Epsilon" unicode="&#x395;" horiz-adv-x="633" 
d="M569 700v-87h-401v-207h371v-87h-371v-232h411v-87h-503v700h493z" />
    <glyph glyph-name="Zeta" unicode="&#x396;" horiz-adv-x="702" 
d="M524 613h-467v87h586v-87l-473 -526h478v-87h-596v87z" />
    <glyph glyph-name="Eta" unicode="&#x397;" horiz-adv-x="737" 
d="M168 303v-303h-92v700h92v-313h401v313h92v-700h-92v303h-401z" />
    <glyph glyph-name="Theta" unicode="&#x398;" horiz-adv-x="812" 
d="M92 531.5q47 82.5 129.5 130.5t184.5 48t184.5 -48t130 -130.5t47.5 -181.5t-47.5 -181.5t-130 -130.5t-184.5 -48t-184.5 48t-129.5 130.5t-47 181.5t47 181.5zM176 206q35 -62 95.5 -95.5t134.5 -33.5t134.5 34t95.5 96t35 143t-34.5 143t-95 96t-135.5 34t-135.5 -34
t-95 -96.5t-34.5 -143.5t35 -143zM279 388h254v-76h-254v76z" />
    <glyph glyph-name="Iota" unicode="&#x399;" horiz-adv-x="243" 
d="M76 700h92v-700h-92v700z" />
    <glyph glyph-name="Kappa" unicode="&#x39a;" horiz-adv-x="672" 
d="M648 0h-110l-223 358l-147 -156v-202h-92v700h92v-374l348 374h119l-257 -274z" />
    <glyph glyph-name="Lambda" unicode="&#x39b;" horiz-adv-x="739" 
d="M306 700h128l293 -700h-102l-255 628l-256 -628h-101z" />
    <glyph glyph-name="Mu" unicode="&#x39c;" horiz-adv-x="942" 
d="M775 0v651l-234 -651h-140l-233 651v-651h-92v700h170l225 -631l225 631h171v-700h-92z" />
    <glyph glyph-name="Nu" unicode="&#x39d;" horiz-adv-x="766" 
d="M168 0h-92v700h158l364 -636v636h92v-700h-159l-363 636v-636z" />
    <glyph glyph-name="Xi" unicode="&#x39e;" horiz-adv-x="676" 
d="M60 613v87h557v-87h-557zM180 313v84h317v-84h-317zM622 87v-87h-567v87h567z" />
    <glyph glyph-name="Omicron" unicode="&#x39f;" horiz-adv-x="812" 
d="M92 531.5q47 82.5 129.5 130.5t184.5 48t184.5 -48t130 -130.5t47.5 -181.5t-47.5 -181.5t-130 -130.5t-184.5 -48t-184.5 48t-129.5 130.5t-47 181.5t47 181.5zM176 206q35 -62 95.5 -95.5t134.5 -33.5t134.5 34t95.5 96t35 143t-34.5 143t-95 96t-135.5 34t-135.5 -34
t-95 -96.5t-34.5 -143.5t35 -143z" />
    <glyph glyph-name="Pi" unicode="&#x3a0;" horiz-adv-x="737" 
d="M168 616v-616h-92v700h585v-700h-92v616h-401z" />
    <glyph glyph-name="Rho" unicode="&#x3a1;" horiz-adv-x="658" 
d="M168 0h-92v700h309q72 0 123 -27.5t77.5 -74.5t26.5 -104q0 -55 -27 -102.5t-78.5 -75.5t-121.5 -28h-217v-288zM377 375q62 0 100 31t38 88t-38 88t-100 31h-209v-238h209z" />
    <glyph glyph-name="Sigma" unicode="&#x3a3;" horiz-adv-x="652" 
d="M415 309l-253 -222h436v-87h-546v105l283 245l-283 245v105h526v-87h-416l253 -222v-82z" />
    <glyph glyph-name="Tau" unicode="&#x3a4;" horiz-adv-x="672" 
d="M641 613h-259v-613h-92v613h-259v87h610v-87z" />
    <glyph glyph-name="Upsilon" unicode="&#x3a5;" horiz-adv-x="672" 
d="M336 369l218 331h105l-277 -412v-288h-92v288l-276 412h110z" />
    <glyph glyph-name="Phi" unicode="&#x3a6;" horiz-adv-x="817" 
d="M362 80h-55q-76 0 -135.5 35.5t-93 97t-33.5 137.5q0 74 33.5 135.5t93 98t135.5 36.5h55v80h92v-80h55q76 0 136 -36.5t93.5 -98t33.5 -135.5q0 -76 -33.5 -137.5t-93 -97t-136.5 -35.5h-55v-80h-92v80zM362 167v366h-46q-52 0 -93 -24t-63.5 -65.5t-22.5 -93.5
q0 -51 22.5 -93t63.5 -66t93 -24h46zM501 167q52 0 93 24t63.5 66t22.5 93q0 52 -22.5 93.5t-63.5 65.5t-93 24h-47v-366h47z" />
    <glyph glyph-name="Chi" unicode="&#x3a7;" horiz-adv-x="674" 
d="M283 380l-225 320h112l167 -252l171 252h108l-225 -320l265 -380h-109l-210 308l-210 -308h-109z" />
    <glyph glyph-name="Psi" unicode="&#x3a8;" horiz-adv-x="803" 
d="M734 700v-170q0 -150 -75.5 -239.5t-211.5 -103.5v-187h-92v187q-135 14 -210.5 103.5t-75.5 239.5v170h92v-174q0 -110 50.5 -175.5t143.5 -78.5v428h92v-428q94 13 144.5 78.5t50.5 175.5v174h92z" />
    <glyph glyph-name="uni03A9" unicode="&#x3a9;" horiz-adv-x="777" 
d="M566 666.5q78 -43.5 122 -119t44 -169.5t-47 -170.5t-115 -123.5h136v-84h-272v79q81 42 142 118.5t61 173.5q0 72 -32 129.5t-89 90t-128 32.5t-127.5 -32.5t-89 -90t-32.5 -129.5q0 -97 61.5 -173.5t142.5 -118.5v-79h-272v84h135q-68 47 -114.5 123.5t-46.5 170.5
t44 169.5t122.5 119t176.5 43.5q100 0 178 -43.5z" />
    <glyph glyph-name="Alphatonos" unicode="&#x386;" horiz-adv-x="739" 
d="M306 700h128l293 -700h-102l-72 178h-366l-73 -178h-101zM519 262l-149 365l-150 -365h299zM81 700h113v-14l-71 -119h-79z" />
    <glyph glyph-name="Epsilontonos" unicode="&#x388;" horiz-adv-x="633" 
d="M569 700v-87h-401v-207h371v-87h-371v-232h411v-87h-503v700h493zM-98 700h113v-14l-71 -119h-79z" />
    <glyph glyph-name="Etatonos" unicode="&#x389;" horiz-adv-x="737" 
d="M168 303v-303h-92v700h92v-313h401v313h92v-700h-92v303h-401zM-98 700h113v-14l-71 -119h-79z" />
    <glyph glyph-name="Iotatonos" unicode="&#x38a;" horiz-adv-x="243" 
d="M76 700h92v-700h-92v700zM-98 700h113v-14l-71 -119h-79z" />
    <glyph glyph-name="Omicrontonos" unicode="&#x38c;" horiz-adv-x="812" 
d="M92 531.5q47 82.5 129.5 130.5t184.5 48t184.5 -48t130 -130.5t47.5 -181.5t-47.5 -181.5t-130 -130.5t-184.5 -48t-184.5 48t-129.5 130.5t-47 181.5t47 181.5zM176 206q35 -62 95.5 -95.5t134.5 -33.5t134.5 34t95.5 96t35 143t-34.5 143t-95 96t-135.5 34t-135.5 -34
t-95 -96.5t-34.5 -143.5t35 -143zM-7 700h113v-14l-71 -119h-79z" />
    <glyph glyph-name="Upsilontonos" unicode="&#x38e;" horiz-adv-x="672" 
d="M336 369l218 331h105l-277 -412v-288h-92v288l-276 412h110zM-129 700h113v-14l-71 -119h-79z" />
    <glyph glyph-name="Omegatonos" unicode="&#x38f;" horiz-adv-x="777" 
d="M566 666.5q78 -43.5 122 -119t44 -169.5t-47 -170.5t-115 -123.5h136v-84h-272v79q81 42 142 118.5t61 173.5q0 72 -32 129.5t-89 90t-128 32.5t-127.5 -32.5t-89 -90t-32.5 -129.5q0 -97 61.5 -173.5t142.5 -118.5v-79h-272v84h135q-68 47 -114.5 123.5t-46.5 170.5
t44 169.5t122.5 119t176.5 43.5q100 0 178 -43.5zM-19 700h113v-14l-71 -119h-79z" />
    <glyph glyph-name="Iotadieresis" unicode="&#x3aa;" horiz-adv-x="243" 
d="M76 700h92v-700h-92v700zM-10 892h97v-99h-97v99zM157 892h97v-99h-97v99z" />
    <glyph glyph-name="Upsilondieresis" unicode="&#x3ab;" horiz-adv-x="672" 
d="M336 369l218 331h105l-277 -412v-288h-92v288l-276 412h110zM199 892h97v-99h-97v99zM366 892h97v-99h-97v99z" />
    <glyph glyph-name="Iotadieresis.ss01" horiz-adv-x="243" 
d="M76 700h92v-700h-92v700zM-5.5 802.5q-16.5 16.5 -16.5 39.5t16.5 39.5t39.5 16.5t39.5 -16.5t16.5 -39.5t-16.5 -39.5t-39.5 -16.5t-39.5 16.5zM167.5 802.5q-16.5 16.5 -16.5 39.5t16.5 39.5t39.5 16.5t39.5 -16.5t16.5 -39.5t-16.5 -39.5t-39.5 -16.5t-39.5 16.5z" />
    <glyph glyph-name="Upsilondieresis.ss01" horiz-adv-x="672" 
d="M336 369l218 331h105l-277 -412v-288h-92v288l-276 412h110zM204.5 802.5q-16.5 16.5 -16.5 39.5t16.5 39.5t39.5 16.5t39.5 -16.5t16.5 -39.5t-16.5 -39.5t-39.5 -16.5t-39.5 16.5zM377.5 802.5q-16.5 16.5 -16.5 39.5t16.5 39.5t39.5 16.5t39.5 -16.5t16.5 -39.5
t-16.5 -39.5t-39.5 -16.5t-39.5 16.5z" />
    <glyph glyph-name="alpha" unicode="&#x3b1;" horiz-adv-x="619" 
d="M140.5 19.5q-46.5 29.5 -74.5 85t-28 131.5t27.5 132.5t74 86t101.5 29.5q54 0 90.5 -23t54.5 -61v74h86v-360q0 -22 10 -33t27 -11q27 0 38 35l68 -36q-11 -36 -40.5 -57.5t-68.5 -21.5q-45 0 -75 25.5t-36 69.5q-17 -42 -54.5 -68.5t-97.5 -26.5q-56 0 -102.5 29.5z
M349 111.5q38 43.5 38 127.5q0 82 -38 124.5t-94 42.5q-55 0 -93 -44t-38 -125q0 -82 37.5 -125.5t93.5 -43.5t94 43.5z" />
    <glyph glyph-name="beta" unicode="&#x3b2;" horiz-adv-x="546" 
d="M67 523q0 86 50 136.5t132 50.5q80 0 126 -43.5t46 -112.5q0 -53 -26 -91t-65 -54q71 -13 118.5 -63t47.5 -138q0 -65 -25.5 -114.5t-71 -76.5t-103.5 -27q-43 0 -82 16.5t-61 47.5v-252h-86v721zM376 104.5q34 35.5 34 103.5q0 51 -25.5 86.5t-66 53t-86.5 17.5h-20v75
h20q48 1 77.5 29t29.5 77q0 40 -25 64t-64 24q-45 0 -71 -29t-26 -83v-311q0 -65 38 -103.5t96 -38.5q55 0 89 35.5z" />
    <glyph glyph-name="gamma" unicode="&#x3b3;" horiz-adv-x="529" 
d="M222 71l-203 403h92l154 -322l153 322h93l-203 -403v-269h-86v269z" />
    <glyph glyph-name="delta" unicode="&#x3b4;" horiz-adv-x="552" 
d="M151.5 22q-54.5 32 -84 87.5t-29.5 123.5q0 84 39 137.5t92 71.5q-48 9 -77.5 42t-29.5 80q0 44 27.5 77t74 51t102.5 18q120 0 200 -74l-45 -66q-65 62 -152 62q-52 0 -85.5 -20.5t-33.5 -56.5t31.5 -56.5t94.5 -20.5q76 0 129.5 -32.5t81 -87t27.5 -119.5
q0 -71 -29.5 -128t-83.5 -89t-125 -32q-70 0 -124.5 32zM384 115q42 47 42 122q0 74 -42 119.5t-108 45.5t-108 -45.5t-42 -119.5q0 -75 42 -122t108 -47t108 47z" />
    <glyph glyph-name="epsilon" unicode="&#x3b5;" horiz-adv-x="452" 
d="M134 8q-43 18 -68.5 50.5t-25.5 74.5q0 48 26.5 73.5t66.5 34.5q-37 10 -59.5 39t-22.5 70q0 62 47 98t120 36q64 0 109 -32.5t67 -91.5l-74 -37q-24 86 -102 86q-37 0 -60 -16t-23 -48t22 -49.5t54 -17.5h33v-76h-43q-35 0 -56 -16t-21 -45q0 -36 27 -54.5t71 -18.5
q54 0 84 29.5t38 78.5l75 -34q-12 -66 -63 -109t-127 -43q-52 0 -95 18z" />
    <glyph glyph-name="zeta" unicode="&#x3b6;" horiz-adv-x="494" 
d="M362 -164q40 34 40 78q0 33 -24 54.5t-76 21.5q-72 0 -132 31t-96 91.5t-36 146.5q0 97 45.5 170.5t113 120.5t140.5 72h-286v78h424v-78q-177 -64 -265 -149t-88 -209q0 -101 55 -149.5t144 -48.5q77 0 121 -38.5t44 -107.5q0 -40 -17 -72.5t-43 -55.5z" />
    <glyph glyph-name="eta" unicode="&#x3b7;" horiz-adv-x="543" 
d="M389 282q0 62 -29.5 94t-80.5 32q-54 0 -90 -39t-36 -106v-263h-86v474h86v-75q27 41 66.5 63t89.5 22q76 0 121.5 -46.5t45.5 -129.5v-506h-87v480z" />
    <glyph glyph-name="theta" unicode="&#x3b8;" horiz-adv-x="559" 
d="M100.5 85.5q-62.5 95.5 -62.5 264.5q0 111 28.5 192t82.5 124.5t130 43.5t130.5 -43.5t83 -124.5t28.5 -192q0 -169 -63 -264.5t-179 -95.5t-178.5 95.5zM432 388q-4 112 -43 178t-110 66t-109.5 -66t-42.5 -178h305zM390.5 133q37.5 65 41.5 179h-305q4 -115 41 -179.5
t111 -64.5t111.5 65z" />
    <glyph glyph-name="iota" unicode="&#x3b9;" horiz-adv-x="328" 
d="M102 28.5q-35 38.5 -35 107.5v338h86v-345q0 -30 14.5 -45.5t39.5 -15.5q38 0 49 39l68 -43q-14 -35 -45 -54.5t-72 -19.5q-70 0 -105 38.5z" />
    <glyph glyph-name="kappa" unicode="&#x3ba;" horiz-adv-x="467" 
d="M67 474h86v-191l171 191h111l-210 -224l219 -250h-110l-181 212v-212h-86v474z" />
    <glyph glyph-name="lambda" unicode="&#x3bb;" horiz-adv-x="500" 
d="M395 0l-142 379l-146 -379h-92l197 489l-30 80q-21 54 -62 54t-57 -40l-61 42q16 36 48.5 55.5t73.5 19.5q51 0 84 -25t53 -79l226 -596h-92z" />
    <glyph glyph-name="uni03BC" unicode="&#x3bc;" horiz-adv-x="545" 
d="M67 474h86v-284q0 -124 113 -124q53 0 89.5 42t36.5 114v252h87v-474h-87v80q-21 -42 -57.5 -66t-84.5 -24q-31 0 -56 10.5t-41 30.5v-229h-86v672z" />
    <glyph glyph-name="nu" unicode="&#x3bd;" horiz-adv-x="521" 
d="M261 84l150 390h92l-190 -474h-105l-189 474h91z" />
    <glyph glyph-name="xi" unicode="&#x3be;" horiz-adv-x="487" 
d="M353 -162q17 14 27.5 32.5t10.5 39.5q0 36 -22.5 58t-83.5 22q-114 0 -179.5 53t-65.5 146q0 69 35.5 115.5t93.5 66.5q-42 16 -73.5 57t-31.5 98q0 55 27.5 97t74 64.5t101.5 22.5q88 0 143.5 -43.5t68.5 -127.5l-81 -22q-7 59 -40.5 88t-88.5 29q-54 0 -87.5 -30.5
t-33.5 -79.5q0 -54 36.5 -86.5t101.5 -32.5h80v-76h-88q-73 0 -113.5 -37.5t-40.5 -95.5q0 -69 42 -99.5t130 -30.5q86 0 132.5 -39t46.5 -116q0 -33 -15.5 -64.5t-40.5 -54.5z" />
    <glyph glyph-name="omicron" unicode="&#x3bf;" horiz-adv-x="556" 
d="M152.5 22.5q-54.5 32.5 -84.5 88.5t-30 126t30 126t84.5 88.5t125.5 32.5t126 -32.5t85 -88.5t30 -126t-30.5 -126t-85 -88.5t-125.5 -32.5t-125.5 32.5zM387.5 115q42.5 47 42.5 122q0 74 -42.5 121.5t-109.5 47.5q-44 0 -78.5 -21.5t-54 -60t-19.5 -87.5t19.5 -87.5
t54 -60t78.5 -21.5q67 0 109.5 47z" />
    <glyph glyph-name="pi" unicode="&#x3c0;" horiz-adv-x="622" 
d="M378.5 28q-33.5 38 -33.5 101v272h-130v-401h-87v401h-114v73h544v-73h-126v-278q0 -27 13 -41t35 -14q32 0 48 39l66 -41q-12 -35 -43 -55.5t-71 -20.5q-68 0 -101.5 38z" />
    <glyph glyph-name="rho" unicode="&#x3c1;" horiz-adv-x="569" 
d="M67 214q0 91 31.5 151.5t84.5 89.5t120 29q69 0 121 -31t79.5 -87t27.5 -128t-28 -128.5t-78 -88t-113 -31.5q-53 0 -95 19.5t-66 58.5v-266h-84v412zM370.5 86q33.5 19 54 57.5t20.5 93.5q0 82 -43 125.5t-105 43.5q-39 0 -73 -19t-54.5 -57t-20.5 -93t20.5 -93.5
t54.5 -57.5t73 -19q40 0 73.5 19z" />
    <glyph glyph-name="uni03C2" unicode="&#x3c2;" horiz-adv-x="504" 
d="M366 -161q18 15 29 35t11 40q0 32 -27 54t-90 22q-72 0 -129 31t-89.5 87.5t-32.5 131.5q0 71 32.5 126.5t87 86.5t118.5 31q86 0 144.5 -45t75.5 -126l-79 -24q-11 56 -47.5 87.5t-94.5 31.5q-37 0 -72 -19t-58 -57t-23 -92q0 -80 49.5 -127t128.5 -47q89 0 139 -39
t50 -112q0 -71 -58 -123z" />
    <glyph glyph-name="sigma" unicode="&#x3c3;" horiz-adv-x="556" 
d="M151.5 22q-54.5 32 -84 87t-29.5 123q0 69 30.5 124t88.5 86.5t139 31.5h228v-76h-102q44 -24 68 -69.5t24 -103.5q0 -66 -29.5 -119.5t-83.5 -84.5t-125 -31q-70 0 -124.5 32zM384.5 113.5q41.5 45.5 41.5 118.5t-41.5 118.5t-107.5 45.5t-108.5 -46t-42.5 -118
q0 -73 41.5 -118.5t108.5 -45.5t108.5 45.5z" />
    <glyph glyph-name="tau" unicode="&#x3c4;" horiz-adv-x="433" 
d="M183.5 28.5q-35.5 38.5 -35.5 107.5v262h-125v76h348v-76h-136v-269q0 -30 14 -45.5t40 -15.5q37 0 49 39l67 -43q-14 -35 -44.5 -54.5t-71.5 -19.5q-70 0 -105.5 38.5z" />
    <glyph glyph-name="upsilon" unicode="&#x3c5;" horiz-adv-x="538" 
d="M121.5 45.5q-54.5 55.5 -54.5 150.5v278h86v-281q0 -62 30.5 -93.5t85.5 -31.5q54 0 85 32t31 93v281h86v-278q0 -95 -54.5 -150.5t-147.5 -55.5t-147.5 55.5z" />
    <glyph glyph-name="phi" unicode="&#x3c6;" horiz-adv-x="698" 
d="M546 444q53 -30 83.5 -84t30.5 -123t-30.5 -123t-83.5 -84t-118 -30h-36v-198h-86v198h-36q-65 0 -118 30t-83.5 84t-30.5 123t30.5 123t83.5 84t118 30h36v226h86v-226h36q65 0 118 -30zM306 78v318h-25q-73 0 -116 -43.5t-43 -115.5t43 -115.5t116 -43.5h25zM533 121.5
q43 43.5 43 115.5t-43 115.5t-117 43.5h-24v-318h24q74 0 117 43.5z" />
    <glyph glyph-name="chi" unicode="&#x3c7;" horiz-adv-x="470" 
d="M186 152l-156 322h100l105 -233l104 233h101l-156 -321l173 -351h-99l-123 263l-123 -263h-99z" />
    <glyph glyph-name="psi" unicode="&#x3c8;" horiz-adv-x="627" 
d="M270 700h87v-622q56 2 86.5 37t30.5 107v252h87v-249q0 -106 -53 -163t-151 -62v-198h-87v198q-98 5 -150.5 62t-52.5 163v249h86v-252q0 -72 30.5 -107t86.5 -37v622z" />
    <glyph glyph-name="omega" unicode="&#x3c9;" horiz-adv-x="744" 
d="M303 102q26 34 26 96v171h86v-171q0 -62 26 -96t72 -34q52 0 79.5 44.5t27.5 128.5q0 71 -22.5 131.5t-53.5 101.5h93q29 -40 49 -99t20 -129q0 -117 -47.5 -186.5t-141.5 -69.5q-53 0 -91 28t-54 79q-17 -51 -55 -79t-90 -28q-94 0 -141.5 69.5t-47.5 186.5
q0 69 20.5 128t49.5 100h92q-31 -41 -53.5 -101.5t-22.5 -131.5q0 -84 27.5 -128.5t79.5 -44.5q46 0 72 34z" />
    <glyph glyph-name="iotatonos" unicode="&#x3af;" horiz-adv-x="328" 
d="M102 28.5q-35 38.5 -35 107.5v338h86v-345q0 -30 14.5 -45.5t39.5 -15.5q38 0 49 39l68 -43q-14 -35 -45 -54.5t-72 -19.5q-70 0 -105 38.5zM108 688h113v-14l-71 -119h-79z" />
    <glyph glyph-name="iotadieresis" unicode="&#x3ca;" horiz-adv-x="328" 
d="M102 28.5q-35 38.5 -35 107.5v338h86v-345q0 -30 14.5 -45.5t39.5 -15.5q38 0 49 39l68 -43q-14 -35 -45 -54.5t-72 -19.5q-70 0 -105 38.5zM-23 666h97v-99h-97v99zM144 666h97v-99h-97v99z" />
    <glyph glyph-name="iotadieresistonos" unicode="&#x390;" horiz-adv-x="328" 
d="M102 28.5q-35 38.5 -35 107.5v338h86v-345q0 -30 14.5 -45.5t39.5 -15.5q38 0 49 39l68 -43q-14 -35 -45 -54.5t-72 -19.5q-70 0 -105 38.5zM66 683h105v-14l-51 -119h-71zM-65 666h98v-99h-98v99zM187 666h97v-99h-97v99z" />
    <glyph glyph-name="upsilontonos" unicode="&#x3cd;" horiz-adv-x="538" 
d="M121.5 45.5q-54.5 55.5 -54.5 150.5v278h86v-281q0 -62 30.5 -93.5t85.5 -31.5q54 0 85 32t31 93v281h86v-278q0 -95 -54.5 -150.5t-147.5 -55.5t-147.5 55.5zM267 688h113v-14l-71 -119h-79z" />
    <glyph glyph-name="upsilondieresis" unicode="&#x3cb;" horiz-adv-x="538" 
d="M121.5 45.5q-54.5 55.5 -54.5 150.5v278h86v-281q0 -62 30.5 -93.5t85.5 -31.5q54 0 85 32t31 93v281h86v-278q0 -95 -54.5 -150.5t-147.5 -55.5t-147.5 55.5zM136 666h97v-99h-97v99zM303 666h97v-99h-97v99z" />
    <glyph glyph-name="upsilondieresistonos" unicode="&#x3b0;" horiz-adv-x="538" 
d="M121.5 45.5q-54.5 55.5 -54.5 150.5v278h86v-281q0 -62 30.5 -93.5t85.5 -31.5q54 0 85 32t31 93v281h86v-278q0 -95 -54.5 -150.5t-147.5 -55.5t-147.5 55.5zM225 683h105v-14l-51 -119h-71zM94 666h98v-99h-98v99zM346 666h97v-99h-97v99z" />
    <glyph glyph-name="omicrontonos" unicode="&#x3cc;" horiz-adv-x="556" 
d="M152.5 22.5q-54.5 32.5 -84.5 88.5t-30 126t30 126t84.5 88.5t125.5 32.5t126 -32.5t85 -88.5t30 -126t-30.5 -126t-85 -88.5t-125.5 -32.5t-125.5 32.5zM387.5 115q42.5 47 42.5 122q0 74 -42.5 121.5t-109.5 47.5q-44 0 -78.5 -21.5t-54 -60t-19.5 -87.5t19.5 -87.5
t54 -60t78.5 -21.5q67 0 109.5 47zM276 688h113v-14l-71 -119h-79z" />
    <glyph glyph-name="omegatonos" unicode="&#x3ce;" horiz-adv-x="744" 
d="M303 102q26 34 26 96v171h86v-171q0 -62 26 -96t72 -34q52 0 79.5 44.5t27.5 128.5q0 71 -22.5 131.5t-53.5 101.5h93q29 -40 49 -99t20 -129q0 -117 -47.5 -186.5t-141.5 -69.5q-53 0 -91 28t-54 79q-17 -51 -55 -79t-90 -28q-94 0 -141.5 69.5t-47.5 186.5
q0 69 20.5 128t49.5 100h92q-31 -41 -53.5 -101.5t-22.5 -131.5q0 -84 27.5 -128.5t79.5 -44.5q46 0 72 34zM379 688h113v-14l-71 -119h-79z" />
    <glyph glyph-name="alphatonos" unicode="&#x3ac;" horiz-adv-x="619" 
d="M140.5 19.5q-46.5 29.5 -74.5 85t-28 131.5t27.5 132.5t74 86t101.5 29.5q54 0 90.5 -23t54.5 -61v74h86v-360q0 -22 10 -33t27 -11q27 0 38 35l68 -36q-11 -36 -40.5 -57.5t-68.5 -21.5q-45 0 -75 25.5t-36 69.5q-17 -42 -54.5 -68.5t-97.5 -26.5q-56 0 -102.5 29.5z
M349 111.5q38 43.5 38 127.5q0 82 -38 124.5t-94 42.5q-55 0 -93 -44t-38 -125q0 -82 37.5 -125.5t93.5 -43.5t94 43.5zM299 688h113v-14l-71 -119h-79z" />
    </font>
</defs>
</svg>
