<?xml version="1.0" standalone="no"?><!DOCTYPE svg PUBLIC "-//W3C//DTD SVG 1.1//EN" "http://www.w3.org/Graphics/SVG/1.1/DTD/svg11.dtd"><svg t="1563372691580" class="icon" viewBox="0 0 1024 1024" version="1.1" xmlns="http://www.w3.org/2000/svg" p-id="1426" xmlns:xlink="http://www.w3.org/1999/xlink" width="200" height="200"><defs><style type="text/css"></style></defs><path d="M1021.707569 507.946688c0 68.831868-6.189916 137.230442-30.949581 197.025032-25.688152 61.899162-73.041011 112.161281-119.836777 158.895148a496.926471 496.926471 0 0 1-164.342274 106.466559c-59.79459 24.759665-122.684139 53.666573-191.516007 53.666573s-134.444979-22.1599-194.301469-46.981464c-61.899162-25.688152-114.142054-67.098691-160.93782-113.832558a500.392824 500.392824 0 0 1-111.418492-162.052006C23.707384 641.277483 2.290274 576.778556 2.290274 507.946688a515.620018 515.620018 0 0 1 38.872673-196.158444c25.750051-61.899162 70.007952-114.018256 116.74182-160.93782s100.338541-86.968322 162.361501-112.656475A507.077933 507.077933 0 0 1 514.815333 0.002166c68.831868 0 132.526105 18.569749 192.320696 43.63891 61.899162 25.688152 124.664912 53.91417 171.398779 100.648037s72.174423 110.490004 97.862575 172.451064c24.821564 59.856489 45.310186 122.746038 45.310186 191.206511z" fill="#FFD635" p-id="1427"></path><path d="M624.191152 957.891695c-64.870322 0-126.831383-20.921917-183.221519-44.3198-58.494708-24.264471-107.704542-63.260943-151.776744-107.395045a471.91921 471.91921 0 0 1-104.795281-152.829031c-23.397883-56.390136-43.329413-117.237012-43.329413-182.169233a486.775008 486.775008 0 0 1 36.396707-185.016595c24.264471-58.494708 66.232103-107.518844 110.118609-151.591047S382.227329 52.430757 440.660138 28.166285A469.133747 469.133747 0 0 1 534.127872 0.559259C527.752258 0.002166 521.314745 0.002166 514.815333 0.002166a507.077933 507.077933 0 0 0-194.549065 38.191783c-61.899162 25.750051-115.627634 66.108305-162.361501 112.842172s-90.991768 99.038659-116.74182 160.937821A515.620018 515.620018 0 0 0 2.290274 507.946688c0 68.831868 21.41711 133.330795 46.238674 193.187284a499.773832 499.773832 0 0 0 111.418491 162.052006c46.733867 46.733867 99.038659 88.144406 160.937821 113.832558 59.856489 24.759665 125.5315 46.981464 194.301468 46.981464s131.721416-28.845009 191.516007-53.666573a517.848388 517.848388 0 0 0 134.568778-79.540423c-11.760841 5.818521-23.769278 11.389446-36.087212 16.527076-56.761531 23.397883-115.813332 50.571615-180.993149 50.571615z" fill="#F7B523" p-id="1428"></path><path d="M433.294137 132.156877s3.652051-2.847361 10.275261-7.304101a240.168748 240.168748 0 0 1 28.659312-16.650875 235.712008 235.712008 0 0 1 44.3198-16.836572A217.513655 217.513655 0 0 1 571.762562 83.689833h14.05111c4.39484 0 9.408673 0.309496 13.927311 0.618992s9.099177 0.990387 13.555917 1.609378 8.789681 1.547479 13.060723 2.475967a168.613317 168.613317 0 0 1 24.078774 7.489798 140.139702 140.139702 0 0 1 20.488623 9.903866 123.798324 123.798324 0 0 1 27.483227 21.293312 74.278994 74.278994 0 0 1 6.623211 7.737395 27.607026 27.607026 0 0 1 2.16647 3.033059s-5.19953 0.928487-13.617815 1.547479c-4.147244 0.309496-9.099177 0.433294-14.670102 0.680891s-11.637042 0-18.136454 0-13.432118-0.618992-20.67432-1.114185-14.732001-1.361782-22.469396-2.352168l-11.698941-1.609379-12.008438-1.918874c-4.085345-0.680891-7.737395-1.423681-12.379832-2.042672l-6.189916-1.237983a55.214052 55.214052 0 0 0-5.818522-0.74279 438.988855 438.988855 0 0 0-91.54886 0l-32.125665 2.723563-9.222975 0.680891z" fill="#FFEF57" p-id="1429"></path><path d="M610.201942 820.104161a11.018051 11.018051 0 0 1-1.856975 0.433294 25.069161 25.069161 0 0 0-4.023446 1.299883c-3.466353 1.114185-8.046891 2.290269-13.494017 3.466353a182.354931 182.354931 0 0 1-18.569748 2.847361c-3.590151 0.433294-6.62321 0.618992-11.451345 0.928488s-8.542084 0.495193-12.998824 0.557092a376.346904 376.346904 0 0 1-48.219447-1.547479c-6.561311-0.618992-12.379832-1.547479-16.031883-2.166471s-6.189916-1.237983-6.189916-1.237983h-0.618992A21.850404 21.850404 0 0 1 460.344071 798.501354a21.41711 21.41711 0 0 1 9.284874-13.184522 122.498441 122.498441 0 0 1 22.221799-10.708555 221.351403 221.351403 0 0 1 50.695414-11.884639c4.580538-0.618992 9.408673-0.928487 13.865412-1.299882a139.211215 139.211215 0 0 1 14.608202 0 93.405835 93.405835 0 0 1 27.545127 5.385227 70.379347 70.379347 0 0 1 18.569749 9.965765 26.55474 26.55474 0 0 1 4.766235 3.961546 16.774673 16.774673 0 0 1 1.176084 1.48558 25.13106 25.13106 0 0 1-6.189916 35.096825 24.140673 24.140673 0 0 1-6.685109 2.785462z" fill="#F7B523" p-id="1430"></path><path d="M795.280436 687.454257H559.38273c-0.928487 48.838439-0.804689 114.080155 1.980773 159.761737 4.271042 69.327061 63.322843 117.608407 132.21661 113.275466s121.693752-59.237498 117.608407-128.564559c-2.97116-41.286741-9.59437-98.172071-15.908084-144.472644z" fill="#F9747E" p-id="1431"></path><path d="M656.935809 687.454257L665.230297 823.261018a19.683933 19.683933 0 0 0 39.305967-2.414067l-8.170689-133.454593z" fill="#E44C5F" p-id="1432"></path><path d="M269.942249 291.361521l136.178156-121.693752a21.726606 21.726606 0 1 1 28.906909 32.373262l-1.609378 1.237983-146.886711 108.50923a13.184521 13.184521 0 0 1-16.588976-20.426723zM873.768573 311.788244L726.510467 203.279014a21.664707 21.664707 0 0 1 25.750051-34.911127 17.084169 17.084169 0 0 1 1.547479 1.299882l136.178156 121.693752a13.184521 13.184521 0 0 1-16.588975 20.426723z" fill="#F7B523" p-id="1433"></path><path d="M486.527417 354.746263s-1.671277 3.033059-4.951933 8.10879-8.170689 12.379832-14.298707 20.241026a568.667599 568.667599 0 0 1-49.086035 55.709245 553.564204 553.564204 0 0 1-55.709246 49.086036c-8.170689 6.189916-15.227194 10.956152-20.241026 14.236807s-8.170689 5.013832-8.170689 5.013832a10.956152 10.956152 0 0 1-14.855799-4.332941 11.07995 11.07995 0 0 1 0-10.584757s1.671277-3.094958 4.951933-8.10879 8.170689-12.379832 14.298707-20.241026A585.504171 585.504171 0 0 1 443.321802 359.017305c8.10879-6.189916 15.165295-11.018051 20.241026-14.298707s8.10879-5.013832 8.10879-5.013832a10.956152 10.956152 0 0 1 14.855799 14.917698z" fill="#943436" p-id="1434"></path><path d="M471.671618 507.141999s-3.094958-1.733177-8.10879-5.013832-12.379832-8.170689-20.241026-14.298706a553.378506 553.378506 0 0 1-55.709246-49.024137 553.688002 553.688002 0 0 1-49.086035-55.709245c-6.189916-8.10879-11.018051-15.165295-14.298707-20.241026s-4.951933-8.10879-4.951933-8.10879a11.018051 11.018051 0 0 1 4.271043-14.917698 11.265647 11.265647 0 0 1 10.584756 0s3.094958 1.733177 8.17069 5.013832 12.379832 8.10879 20.241025 14.236807a553.564204 553.564204 0 0 1 55.709246 49.086035 568.667599 568.667599 0 0 1 49.086035 55.709246c6.189916 8.170689 11.018051 15.165295 14.298707 20.241026s4.951933 8.10879 4.951933 8.10879a10.956152 10.956152 0 0 1-4.271042 14.917698 11.07995 11.07995 0 0 1-10.646656 0zM853.713244 354.746263s-1.671277 3.033059-5.013832 8.10879-8.10879 12.379832-14.236807 20.241026a568.667599 568.667599 0 0 1-49.086035 55.709245 553.564204 553.564204 0 0 1-55.709246 49.086036c-8.170689 6.189916-15.227194 10.956152-20.302925 14.236807s-8.10879 5.013832-8.10879 5.013832a10.956152 10.956152 0 0 1-14.855799-4.332941 11.07995 11.07995 0 0 1 0-10.584757s1.671277-3.094958 4.951933-8.10879 8.170689-12.379832 14.298706-20.241026A580.180843 580.180843 0 0 1 810.507629 359.017305c8.10879-6.189916 15.165295-11.018051 20.241026-14.298707s8.10879-5.013832 8.10879-5.013832a10.956152 10.956152 0 0 1 14.855799 14.917698z" fill="#943436" p-id="1435"></path><path d="M838.857445 507.141999s-3.094958-1.733177-8.10879-5.013832-12.379832-8.170689-20.241026-14.298706a560.373112 560.373112 0 0 1-55.709245-49.024137 560.249313 560.249313 0 0 1-49.024136-55.709245c-6.189916-8.10879-11.018051-15.165295-14.298707-20.241026s-4.951933-8.10879-4.951933-8.10879a11.018051 11.018051 0 0 1 4.271042-14.917698 11.265647 11.265647 0 0 1 10.584757 0s3.094958 1.733177 8.10879 5.013832 12.379832 8.10879 20.302925 14.236807a553.564204 553.564204 0 0 1 55.709246 49.086035 568.667599 568.667599 0 0 1 49.086035 55.709246c6.189916 8.170689 11.018051 15.165295 14.236808 20.241026s5.013832 8.10879 5.013832 8.10879a10.956152 10.956152 0 0 1-14.855799 14.917698zM851.918169 697.172426s-2.042672 0.680891-5.818522 1.609378-9.161076 2.22837-16.093782 3.404454-15.165295 2.537866-25.06916 3.528252-21.355211 1.423681-33.549346 1.609378a229.460193 229.460193 0 0 0-35.715816 2.537866c-6.189916 0.990387-13.246421 2.537866-21.293312 3.775849a235.216815 235.216815 0 0 1-24.759665 2.22837h-23.769278c-7.923093 0-16.155681 0-24.264471-0.557093-16.031883-0.680891-30.949581-0.928487-47.105262-0.804689s-33.673144-0.618992-49.51933-1.547479-30.454388-1.114185-45.186388-1.052286c-6.932706 0-13.989211 0-20.67432 0.680891l-21.045715 1.671277c-14.7939 1.114185-28.906909 0.990387-40.977245 0.74279l-32.930354-0.433294a154.747904 154.747904 0 0 1-25.440556-2.104571 90.372776 90.372776 0 0 1-22.221799-6.189916 14.546303 14.546303 0 0 1 0-26.307144 95.510407 95.510407 0 0 1 22.098001-6.189916 165.889754 165.889754 0 0 1 25.378656-2.290269l33.116052-0.618992c12.379832 0 24.202572-0.433294 37.139497-1.795076a437.131881 437.131881 0 0 1 45.186388-3.713949c15.47479 0 31.506673 0 47.971851 0.557092s30.949581 1.052286 46.919564 1.176084 33.425547 0.618992 49.086036 1.48558c7.737395 0.371395 15.289093 0.618992 22.84079 0.74279h22.098001a245.92537 245.92537 0 0 0 40.60585-4.209143 276.874951 276.874951 0 0 1 42.153329-1.856975c11.946538 0 22.655093 0 32.373262 0.557093a249.948815 249.948815 0 0 1 25.81195 2.16647 148.557988 148.557988 0 0 1 16.588976 3.094958c3.775849 0.866588 5.818521 1.547479 5.818521 1.547479a13.865412 13.865412 0 0 1 0 26.307144z" fill="#943436" p-id="1436"></path></svg>